<?xml version="1.0" standalone="no"?>
<!DOCTYPE svg PUBLIC "-//W3C//DTD SVG 20010904//EN"
 "http://www.w3.org/TR/2001/REC-SVG-20010904/DTD/svg10.dtd">
<svg version="1.0" xmlns="http://www.w3.org/2000/svg"
 width="300.000000pt" height="300.000000pt" viewBox="0 0 300.000000 300.000000"
 preserveAspectRatio="xMidYMid meet">
<metadata>
Created by potrace 1.10, written by Peter Selinger 2001-2011
</metadata>
<g transform="translate(0.000000,300.000000) scale(0.100000,-0.100000)"
fill="#000000" stroke="none">
<path d="M380 2867 c0 -7 16 -46 35 -86 40 -81 42 -94 18 -89 -11 2 -20 15
-23 32 -3 16 -11 31 -19 34 -10 3 -11 -3 -6 -27 7 -32 7 -32 -31 -29 -20 2
-40 10 -45 18 -58 113 -82 151 -91 142 -6 -6 4 -33 26 -74 20 -36 36 -67 36
-70 0 -3 -20 -3 -45 0 -42 4 -47 2 -85 -36 -35 -34 -40 -46 -40 -84 0 -43 29
-120 50 -133 5 -3 10 -19 10 -35 0 -46 20 -80 46 -80 17 0 25 7 30 25 8 33 19
32 34 -4 6 -16 22 -39 36 -52 13 -12 24 -26 24 -30 0 -4 -43 -38 -95 -75 -82
-58 -106 -84 -76 -84 4 0 47 29 94 64 48 36 89 60 93 55 3 -5 8 -52 11 -103
l6 -94 -29 -16 c-39 -21 -74 -52 -74 -64 0 -6 13 -20 30 -32 l30 -21 -32 -40
-32 -39 -22 21 c-46 43 -70 -3 -40 -76 9 -21 11 -37 5 -40 -17 -11 -9 -41 16
-65 39 -37 121 -39 209 -5 82 31 106 21 52 -21 -20 -16 -36 -32 -36 -36 0 -5
17 -8 37 -8 l37 0 -37 -38 c-20 -21 -37 -41 -37 -45 0 -11 39 -8 61 4 19 10
20 9 8 -12 -6 -12 -24 -33 -40 -47 -16 -13 -26 -28 -23 -33 5 -9 18 -7 64 9 8
3 2 -7 -15 -21 -34 -31 -27 -46 15 -30 37 14 38 3 4 -42 -31 -41 -24 -64 13
-40 14 9 27 14 30 12 2 -3 -4 -28 -13 -56 -22 -59 -14 -73 22 -40 l27 24 -8
-40 c-3 -22 -15 -54 -26 -72 -22 -35 -12 -50 17 -28 10 8 22 15 26 15 13 0 -3
-64 -23 -93 -23 -32 -17 -52 12 -37 23 13 23 19 -1 -83 -36 -157 -80 -279
-112 -310 -28 -29 -32 -30 -97 -24 -73 6 -82 3 -100 -31 -8 -15 -21 -22 -40
-22 -20 0 -37 -10 -56 -31 -33 -40 -30 -74 5 -74 24 0 26 -3 25 -43 0 -32 5
-48 18 -56 14 -9 21 -7 31 7 7 9 24 17 36 17 13 0 33 8 44 18 19 17 88 42 115
42 6 0 11 -6 11 -13 0 -18 42 -57 62 -57 23 0 48 33 54 72 l6 35 59 -3 c42 -2
63 1 74 12 22 22 19 32 -16 65 -29 27 -31 31 -19 60 7 17 44 78 82 136 37 59
68 110 68 115 0 17 18 7 24 -14 6 -22 7 -22 20 -5 8 10 17 39 21 64 l7 47 18
-24 18 -24 11 24 c5 14 12 42 16 63 6 38 19 48 29 22 10 -27 26 -15 26 20 0
19 4 35 8 35 17 0 32 -25 32 -52 0 -34 15 -36 32 -5 l12 22 7 -25 c4 -14 7
-42 8 -63 1 -34 3 -38 22 -32 19 6 20 4 14 -29 -25 -130 -91 -331 -124 -374
-23 -32 -89 -41 -125 -17 -31 20 -70 14 -103 -17 -31 -29 -29 -47 7 -62 37
-15 29 -26 -20 -26 -64 0 -128 -91 -95 -136 12 -16 17 -17 32 -6 51 36 116 51
85 20 -30 -30 4 -117 40 -103 10 4 20 15 23 26 4 12 16 19 30 19 13 0 31 10
39 21 18 26 65 59 85 59 9 0 11 -7 7 -23 -3 -14 1 -32 9 -43 8 -10 15 -26 15
-35 0 -8 5 -20 12 -27 17 -17 45 3 69 50 16 32 19 46 11 63 -11 24 12 69 68
130 15 17 38 50 50 75 43 85 193 290 212 290 5 0 13 12 18 26 7 17 15 24 26
20 16 -6 19 0 29 57 3 21 10 35 16 32 13 -9 10 -56 -6 -85 -8 -14 -14 -28 -15
-32 0 -14 28 -8 45 8 14 15 17 14 36 -10 23 -29 40 -27 32 4 -7 26 9 26 25 -1
13 -20 14 -20 27 -2 13 16 14 14 21 -24 7 -48 17 -54 36 -20 12 22 12 22 18
-8 4 -22 10 -29 24 -27 11 2 17 -2 14 -10 -7 -20 -67 -37 -135 -37 -48 -1 -65
-5 -75 -19 -7 -10 -25 -22 -39 -25 -36 -9 -79 -55 -79 -84 0 -29 23 -39 55
-25 23 11 23 10 18 -23 -4 -26 -1 -35 15 -44 16 -8 25 -6 46 10 l25 20 7 -25
c3 -13 12 -27 21 -30 18 -7 61 14 87 43 25 27 36 27 36 -3 0 -35 23 -50 52
-35 39 20 58 41 58 64 0 32 27 51 100 70 81 21 100 37 100 85 0 47 7 53 36 33
22 -14 24 -14 24 2 0 9 -5 25 -10 36 -16 28 0 23 37 -13 28 -27 33 -29 39 -14
4 10 2 22 -5 29 -6 6 -11 18 -11 26 0 11 4 10 20 -4 11 -10 33 -18 49 -17 18
0 37 -8 52 -24 22 -23 49 -32 49 -16 0 4 -5 13 -12 20 -25 25 3 24 36 -2 40
-30 46 -32 46 -11 0 20 6 19 59 -11 57 -33 98 -70 117 -106 13 -26 12 -29 -17
-62 -94 -108 -364 -159 -734 -139 -225 11 -358 2 -472 -32 -122 -37 -184 -106
-154 -171 15 -35 58 -32 94 6 60 63 201 75 477 40 216 -27 386 -34 508 -21
341 36 531 164 532 356 0 100 -63 207 -174 296 l-49 39 41 0 c56 0 60 14 10
39 -24 11 -60 37 -81 56 l-38 35 40 0 c52 0 60 16 19 34 -53 24 -76 50 -89
100 -14 56 -7 67 24 38 47 -45 69 -21 26 29 -17 19 -35 42 -40 52 -9 16 -8 17
9 8 28 -15 34 -3 16 31 -8 16 -17 51 -18 77 -2 27 -9 58 -15 70 -13 24 -7 26
38 10 25 -9 35 -9 44 0 9 10 7 16 -8 27 -49 36 -85 77 -85 98 0 12 -9 39 -20
61 -11 22 -20 40 -20 42 0 1 20 3 45 5 67 4 63 20 -13 49 -27 10 -82 72 -82
93 0 2 23 4 51 4 27 0 52 2 56 5 8 9 -7 27 -23 27 -22 0 -116 42 -109 48 3 4
23 5 44 3 64 -4 55 16 -19 45 -39 15 -73 31 -75 35 -3 3 23 14 56 23 70 20 74
40 7 42 -25 1 -72 14 -108 30 l-63 28 48 11 c27 5 49 15 50 20 0 6 -28 13 -62
17 -34 4 -70 11 -80 17 -15 8 -14 10 12 16 50 11 57 15 52 28 -2 8 -19 11 -45
9 -33 -3 -41 0 -36 11 4 11 -15 23 -70 46 -41 17 -84 31 -95 31 -34 0 -32 16
4 33 48 23 46 42 -2 33 -21 -4 -56 -9 -78 -12 l-40 -5 29 16 c41 24 20 35 -51
26 -35 -4 -63 -5 -63 -2 0 3 12 17 27 33 38 40 11 44 -62 8 -64 -31 -78 -31
-51 -1 27 29 10 45 -22 22 -15 -11 -38 -23 -52 -27 l-24 -7 28 37 c16 22 25
43 22 53 -6 14 -11 12 -34 -9 -15 -14 -48 -35 -75 -46 l-47 -21 6 40 c8 49 -9
52 -32 7 -22 -43 -24 -45 -34 -28 -7 12 -14 10 -38 -13 -26 -25 -52 -35 -52
-21 0 4 16 24 35 45 37 41 38 44 53 158 9 60 8 80 -4 102 -24 46 -71 73 -139
77 -88 6 -142 -12 -194 -64 -24 -24 -45 -44 -47 -44 -2 0 -4 11 -4 25 0 28 -3
29 -30 15 -11 -6 -21 -6 -24 -1 -3 5 -15 7 -26 4 -15 -4 -20 0 -20 16 0 25 1
25 -42 7 -21 -9 -46 -12 -68 -7 l-34 7 57 49 c51 45 71 75 50 75 -5 0 -39 -27
-78 -60 -74 -64 -95 -72 -95 -40 0 24 -15 26 -24 3 -5 -12 -10 -13 -18 -5 -8
8 -14 7 -23 -5 -11 -15 -15 -12 -34 24 -11 23 -31 49 -43 57 -68 48 -158 -20
-158 -118 0 -28 -4 -36 -18 -36 -13 0 -31 24 -60 84 -40 82 -62 112 -62 83z
m300 -69 c11 -18 20 -39 20 -45 0 -24 -18 -13 -39 22 -20 34 -53 47 -66 25 -3
-5 -11 -10 -17 -10 -6 0 -3 9 7 20 29 32 72 26 95 -12z m-54 -39 c8 -14 -5
-26 -38 -34 -24 -6 -28 -4 -28 13 0 26 52 43 66 21z m827 -25 c36 -24 47 -47
27 -59 -5 -3 -10 -35 -10 -71 0 -99 -34 -148 -129 -185 -31 -12 -60 -26 -65
-31 -18 -15 -26 -8 -14 12 7 11 17 20 23 20 27 0 116 52 132 76 10 16 20 57
24 98 7 70 6 72 -23 99 -26 24 -36 27 -103 27 -69 0 -75 -2 -98 -30 -24 -28
-38 -61 -51 -122 -11 -48 -29 -33 -23 18 5 50 44 114 89 147 57 42 157 43 221
1z m-653 -19 c0 -2 -15 -12 -32 -22 -26 -13 -29 -18 -15 -21 9 -2 34 7 55 20
30 19 51 23 114 23 72 0 77 -1 72 -19 -6 -17 -2 -18 25 -13 24 5 31 3 31 -9 0
-11 4 -12 19 -4 26 14 31 13 25 -5 -4 -10 0 -15 11 -15 13 0 16 -5 11 -22 -19
-71 -20 -67 30 -116 47 -45 49 -49 50 -103 0 -44 5 -63 25 -87 27 -35 54 -43
46 -13 -7 28 9 48 49 61 26 9 39 9 47 1 7 -7 6 -12 -6 -17 -26 -10 -20 -21 16
-29 l32 -7 -30 -13 -30 -13 27 -13 c22 -9 25 -15 17 -26 -9 -10 -8 -13 2 -13
12 0 12 -2 1 -9 -8 -5 -12 -17 -10 -27 3 -16 14 -20 61 -22 66 -3 75 -17 16
-26 -51 -8 -47 -30 7 -34 45 -4 72 -22 33 -22 -14 0 -29 -3 -32 -7 -12 -12 25
-42 59 -49 38 -7 36 -24 -2 -24 -35 0 -31 -29 6 -43 39 -15 38 -27 -1 -27 -17
0 -28 -4 -24 -10 3 -5 14 -10 24 -10 9 0 26 -7 37 -16 18 -15 17 -15 -18 -10
-21 2 -38 0 -38 -5 0 -16 48 -29 106 -29 66 0 68 13 8 47 l-39 23 38 0 c50 0
45 20 -11 40 -23 8 -42 17 -42 20 0 3 16 12 35 19 47 17 44 28 -10 42 -25 6
-45 14 -45 18 0 4 16 13 35 20 47 17 44 27 -10 35 -53 8 -57 20 -14 35 33 11
31 31 -4 32 -12 0 -31 4 -42 9 -18 7 -17 9 13 20 17 7 32 16 32 21 0 5 -15 9
-32 9 l-33 0 25 20 25 20 -32 0 c-17 0 -39 3 -48 6 -15 6 -15 8 0 24 11 13 13
20 5 25 -7 4 2 14 22 25 37 20 47 18 28 -5 -8 -9 -8 -15 -2 -15 6 0 14 5 17
10 10 16 25 12 19 -5 -9 -22 1 -18 41 16 24 21 35 26 35 16 0 -8 -7 -20 -15
-27 -31 -26 -2 -29 45 -5 69 35 82 31 35 -10 -32 -28 -36 -34 -20 -34 11 0 47
11 80 24 77 32 99 32 60 1 -41 -33 -27 -41 30 -16 61 26 94 23 48 -5 -18 -11
-33 -23 -33 -27 0 -11 32 -10 68 3 17 6 39 9 49 6 15 -3 13 -6 -9 -15 -47 -19
-33 -33 26 -26 31 4 61 2 72 -4 15 -8 10 -11 -29 -17 -26 -4 -47 -13 -47 -19
0 -9 21 -11 79 -8 84 5 120 -11 51 -22 -54 -8 -51 -26 4 -26 51 0 78 -8 70
-21 -3 -5 -16 -9 -30 -9 -13 0 -24 -5 -24 -11 0 -8 17 -9 55 -4 37 4 55 3 55
-4 0 -6 -11 -11 -25 -11 -14 0 -25 -4 -25 -10 0 -5 5 -10 10 -10 6 0 27 -7 48
-16 33 -14 35 -17 17 -24 -16 -6 -13 -9 20 -15 63 -12 77 -24 28 -25 -49 0
-57 -15 -13 -25 47 -10 48 -26 1 -19 -26 4 -41 3 -41 -4 0 -11 21 -17 93 -27
51 -8 74 -25 33 -25 -39 0 -31 -18 19 -42 24 -12 42 -25 39 -29 -2 -4 -30 -5
-62 -3 -53 5 -56 4 -38 -10 11 -9 25 -16 32 -16 7 0 31 -22 54 -49 22 -28 50
-53 62 -56 11 -4 16 -11 11 -16 -5 -5 -30 -2 -57 6 -89 27 -103 14 -29 -25 26
-14 58 -40 70 -59 26 -39 23 -53 -7 -26 -11 10 -23 15 -27 11 -4 -4 16 -30 45
-57 28 -28 52 -52 52 -55 0 -10 -24 -2 -52 17 -16 12 -31 19 -34 17 -2 -3 14
-29 36 -58 52 -70 52 -100 1 -40 -22 25 -42 42 -46 39 -3 -4 14 -48 39 -98 26
-50 43 -91 39 -91 -4 0 -17 10 -30 22 -27 25 -30 10 -6 -35 9 -18 20 -47 24
-65 6 -28 5 -31 -7 -21 -8 6 -14 17 -14 24 0 17 -37 62 -44 54 -3 -3 8 -46 24
-95 22 -67 38 -96 62 -117 25 -20 28 -27 14 -27 -16 0 -16 -3 4 -30 12 -16 18
-30 15 -30 -9 0 -28 21 -49 52 -10 15 -22 25 -27 22 -12 -7 12 -51 55 -99 19
-21 33 -41 31 -43 -8 -9 -63 38 -90 77 -24 36 -45 52 -45 36 0 -3 18 -35 40
-72 22 -36 38 -69 34 -72 -7 -8 -49 44 -69 86 -15 31 -32 49 -40 41 -2 -2 3
-24 12 -48 26 -76 32 -100 24 -100 -5 0 -23 33 -42 72 -27 59 -34 68 -36 48
-2 -14 3 -49 10 -78 21 -77 2 -73 -24 5 -17 53 -23 92 -23 175 -1 71 -5 111
-13 119 -21 21 -25 4 -14 -58 7 -36 8 -83 3 -119 -7 -53 -4 -86 13 -161 10
-44 -13 -23 -35 32 -12 30 -29 60 -38 67 -14 12 -15 8 -9 -29 19 -121 19 -129
3 -109 -8 10 -23 40 -32 67 -10 27 -24 49 -31 49 -16 0 -16 6 2 -81 23 -107 1
-109 -31 -2 -8 28 -21 54 -29 56 -7 3 -15 16 -17 29 -2 13 -7 21 -13 18 -11
-6 -8 -49 5 -65 10 -13 33 -125 27 -132 -9 -8 -55 90 -61 130 -3 20 -8 53 -11
72 -4 21 -12 35 -20 35 -8 0 -15 -2 -15 -5 0 -19 31 -209 36 -216 3 -5 0 -9
-6 -9 -18 0 -40 66 -47 136 -4 44 -10 64 -19 64 -16 0 -18 -59 -4 -130 4 -25
6 -47 4 -49 -12 -13 -28 25 -33 80 -7 71 -31 95 -32 32 0 -21 -4 -47 -9 -58
-16 -39 -24 14 -12 80 14 76 15 85 2 85 -5 0 -14 -17 -20 -37 -12 -45 -26 -70
-35 -61 -6 6 -2 21 24 105 16 53 -6 48 -34 -7 -14 -27 -30 -50 -36 -50 -12 0
-4 29 22 82 34 68 17 96 -20 33 -11 -19 -25 -35 -31 -35 -13 0 -13 2 4 47 8
21 22 72 31 113 18 82 31 108 77 149 23 20 29 33 24 46 -6 16 -10 15 -41 -15
-41 -39 -44 -29 -16 51 30 86 41 106 70 119 l26 13 -24 6 c-23 6 -23 7 18 44
22 20 45 37 50 37 5 0 11 10 13 22 3 25 28 37 28 14 0 -27 21 -29 49 -2 33 32
41 33 41 5 0 -22 8 -22 54 -4 15 7 17 5 11 -13 -5 -19 -2 -22 21 -22 15 0 43
-5 61 -12 26 -9 36 -9 45 0 16 16 -2 30 -54 38 -37 6 -37 7 -16 24 35 28 15
40 -39 24 -61 -18 -69 -18 -50 4 19 21 22 42 7 42 -6 0 -28 -11 -50 -25 -48
-30 -63 -32 -55 -6 3 11 1 22 -5 26 -14 9 -37 -11 -66 -57 -14 -21 -29 -38
-36 -38 -31 0 -128 -141 -128 -187 0 -7 -4 -13 -10 -13 -5 0 -10 8 -10 19 0
10 -7 35 -15 54 -19 46 -19 50 4 42 11 -3 22 -2 25 3 7 11 -41 74 -77 103 -50
39 -66 14 -17 -28 17 -13 30 -31 30 -39 0 -13 -5 -12 -30 2 -16 10 -32 15 -35
12 -7 -7 12 -53 38 -91 22 -33 15 -48 -11 -24 -20 19 -42 22 -42 8 0 -6 5 -13
11 -16 19 -12 69 -87 69 -104 0 -10 -15 2 -39 29 -39 45 -69 51 -37 8 43 -60
48 -69 44 -73 -2 -3 -24 11 -47 31 -61 53 -63 33 -3 -30 29 -30 52 -63 52 -72
0 -15 -3 -15 -23 4 -34 32 -41 15 -11 -25 33 -44 23 -55 -16 -18 -40 38 -49
25 -15 -20 33 -42 29 -54 -9 -24 -49 38 -42 8 7 -36 57 -50 50 -65 -13 -29
-23 13 -45 22 -48 20 -2 -3 15 -28 38 -56 23 -28 40 -53 37 -56 -8 -8 -45 14
-95 54 -23 19 -45 32 -49 29 -3 -4 13 -33 35 -66 52 -74 58 -115 8 -56 -44 51
-54 42 -20 -19 14 -26 23 -50 19 -54 -8 -8 -30 18 -68 82 -33 57 -56 53 -27
-4 37 -73 17 -85 -24 -15 -15 25 -31 45 -36 45 -14 0 -13 -2 15 -66 28 -62 30
-74 15 -74 -6 0 -25 29 -42 65 -18 36 -36 65 -40 65 -11 0 -10 -8 7 -62 8 -27
10 -50 5 -53 -12 -7 -34 36 -55 108 -19 67 -41 72 -36 9 1 -23 -2 -42 -7 -42
-11 0 -42 83 -42 112 0 10 -7 18 -15 18 -14 0 -21 -18 -27 -68 -6 -46 -23 -21
-28 40 -6 73 -22 84 -39 28 -7 -25 -18 -40 -27 -40 -12 0 -15 7 -11 22 20 87
20 93 3 79 -14 -12 -16 -10 -16 12 0 41 -18 41 -34 2 -20 -46 -41 -37 -32 14
3 20 9 46 12 59 10 36 -15 26 -32 -13 -24 -57 -38 -33 -30 51 7 86 -5 96 -35
29 -14 -33 -18 -55 -13 -81 9 -49 -11 -37 -38 22 -23 54 -43 59 -34 9 14 -75
-23 -21 -50 73 -2 6 -8 12 -14 12 -6 0 -10 -24 -10 -56 0 -49 -2 -55 -15 -44
-10 8 -15 31 -15 66 0 56 -13 72 -24 29 -4 -14 -11 -25 -18 -25 -10 0 -8 73 4
119 1 7 -2 15 -8 18 -6 2 -19 -14 -28 -37 -17 -43 -42 -56 -33 -17 3 12 8 38
12 57 l8 35 -32 -29 c-37 -36 -43 -17 -10 38 18 30 18 36 5 36 -8 0 -19 -7
-24 -16 -5 -9 -14 -15 -21 -13 -7 3 -4 17 9 42 l21 39 -21 -7 c-20 -6 -28 9
-10 20 17 11 11 25 -12 25 l-21 0 23 25 c19 20 21 27 11 39 -10 12 -7 17 16
29 28 15 29 14 62 -25 18 -21 44 -43 57 -49 24 -8 24 -10 8 -34 -15 -23 -15
-25 0 -31 9 -3 22 -1 30 5 19 16 25 4 19 -35 -4 -23 -2 -34 6 -34 15 0 41 60
41 93 0 16 12 34 35 51 38 29 50 65 16 46 -40 -21 -68 -28 -81 -20 -10 6 0 15
33 30 25 12 49 30 52 39 3 10 21 25 40 34 19 9 35 21 35 27 0 12 -6 12 -48 1
-56 -17 -35 3 48 43 44 21 85 47 91 57 6 12 21 19 39 19 20 0 30 5 30 15 0 8
13 26 29 40 15 14 36 44 46 66 18 40 29 46 55 29 12 -7 12 -12 -4 -29 -26 -29
2 -29 33 0 24 22 23 46 -1 41 -28 -4 -41 24 -29 59 17 48 14 69 -9 69 -15 0
-20 -7 -20 -26 0 -14 -5 -34 -11 -45 -9 -18 -13 -19 -27 -6 -51 43 -343 197
-517 272 -123 53 -135 61 -85 52 34 -6 77 -18 254 -71 59 -17 93 -23 99 -17 7
7 5 12 -4 14 -8 2 -54 16 -102 31 -48 15 -118 36 -155 46 -72 19 -182 31 -182
20 0 -12 70 -54 140 -84 133 -58 527 -265 560 -293 3 -3 -5 -13 -17 -23 -14
-11 -23 -29 -23 -46 0 -22 -3 -25 -12 -16 -18 18 -26 15 -33 -17 -8 -39 -35
-63 -35 -32 0 32 -17 25 -36 -15 -18 -37 -45 -56 -52 -36 -6 19 -18 14 -30
-13 -6 -14 -18 -25 -27 -25 -19 0 -19 9 0 34 18 24 19 46 3 46 -7 -1 -22 -20
-34 -43 -13 -28 -28 -43 -43 -45 -17 -3 -22 -9 -18 -23 4 -16 0 -19 -29 -19
-19 0 -34 -5 -34 -10 0 -6 -8 -13 -17 -17 -10 -3 -97 -37 -193 -76 -146 -58
-184 -70 -229 -69 -30 1 -59 6 -65 12 -8 8 1 9 30 4 32 -5 51 -1 85 16 96 49
267 205 315 285 14 25 29 44 31 41 12 -11 -9 -56 -48 -104 -48 -61 -37 -70 14
-13 67 75 79 123 57 228 -17 80 -84 141 -284 259 -50 30 -112 64 -139 76 l-47
22 37 20 c49 28 63 69 34 100 -12 12 -21 25 -21 27 0 3 26 2 58 -3 72 -10 152
-2 222 23 67 25 210 48 210 34z m-506 -68 c31 -40 32 -58 9 -79 -36 -31 -62
-39 -84 -28 -17 9 -23 8 -33 -5 -11 -16 -14 -15 -29 9 -16 24 -16 28 -1 52 15
21 15 27 4 34 -23 14 28 49 72 50 30 0 42 -6 62 -33z m1094 21 c15 -15 16
-109 1 -142 -7 -16 -37 -37 -80 -59 l-68 -34 -11 30 c-6 17 -17 38 -25 47 -13
14 -13 23 1 73 24 81 42 97 112 97 32 0 63 -5 70 -12z m-1151 -186 c9 -6 9
-15 0 -43 -18 -52 -32 -51 -35 4 -3 47 6 58 35 39z m76 -39 c9 -9 -13 -34 -24
-27 -14 8 -11 34 4 34 8 0 17 -3 20 -7z m76 -27 c12 -14 -3 -76 -19 -76 -7 0
-20 48 -20 76 0 18 24 18 39 0z m1037 -31 c4 -8 3 -23 -1 -32 -6 -17 -7 -17
-21 1 -8 11 -14 26 -14 33 0 18 29 16 36 -2z m-898 -47 c16 -16 15 -28 -3 -28
-8 0 -15 2 -15 4 0 2 -3 11 -6 20 -7 19 7 21 24 4z m-76 -10 c12 -7 30 -21 40
-30 10 -10 26 -18 36 -18 10 0 28 -11 40 -25 14 -16 32 -25 52 -25 48 0 38
-28 -12 -34 -90 -11 -103 -13 -120 -21 -14 -6 -19 2 -29 40 -7 26 -23 60 -36
76 -35 41 -17 63 29 37z m-27 -121 c9 -59 3 -110 -14 -115 -10 -3 -12 2 -7 22
3 14 0 58 -9 98 -18 90 -19 88 5 60 10 -13 22 -42 25 -65z m1034 59 c23 -25
21 -46 -4 -46 -16 0 -20 6 -29 43 -8 33 3 35 33 3z m-925 -134 c-78 -76 -107
-112 -92 -112 9 0 48 30 88 67 67 62 76 67 118 67 56 1 65 -17 20 -39 -18 -10
-60 -45 -94 -80 -48 -50 -72 -67 -116 -80 -87 -28 -174 -2 -117 34 13 8 58 48
99 87 72 69 105 93 124 94 5 0 -8 -17 -30 -38z m-164 -241 c-5 -10 -16 -21
-25 -25 -14 -5 -14 -2 0 25 9 16 20 27 25 24 7 -4 7 -13 0 -24z m60 1 c0 -23
-26 -59 -36 -50 -8 9 15 68 27 68 5 0 9 -8 9 -18z m-38 -109 c10 -13 -24 -38
-36 -26 -8 8 -8 57 1 79 6 15 8 13 16 -12 5 -16 14 -34 19 -41z m-132 -3 c-18
-11 -27 -3 -35 35 l-7 30 28 -28 c24 -23 27 -29 14 -37z m184 41 c7 -10 -22
-37 -30 -28 -9 8 3 37 15 37 5 0 12 -4 15 -9z m396 -3 c0 -7 -23 -34 -50 -60
-50 -47 -50 -48 -34 -73 27 -41 2 -29 -51 25 l-49 49 40 16 c21 9 57 25 79 36
46 22 65 24 65 7z m-500 -83 c0 -9 -62 -15 -75 -7 -14 7 -12 13 15 36 l32 27
14 -27 c8 -14 14 -28 14 -29z m296 -374 c22 -25 55 -66 74 -89 27 -35 38 -43
58 -39 23 4 34 1 109 -36 18 -8 42 -13 54 -10 17 5 29 -2 50 -27 16 -18 39
-34 51 -35 42 -3 33 -35 -29 -95 -72 -71 -133 -139 -133 -150 0 -5 -9 -12 -21
-15 -18 -6 -168 -218 -181 -257 -4 -10 -16 -7 -52 12 -25 13 -46 28 -46 31 0
4 16 63 36 131 31 103 37 141 40 235 1 63 -1 115 -7 118 -5 4 -9 27 -9 53 0
26 -7 56 -15 66 -8 11 -15 32 -15 47 0 15 -4 31 -10 34 -5 3 -10 18 -10 33 0
15 -9 41 -20 57 -30 46 -24 63 8 20 15 -20 45 -58 68 -84z m1176 -16 c1 -33
-3 -70 -10 -81 -6 -12 -22 -68 -36 -125 -22 -92 -23 -106 -10 -131 8 -15 14
-38 14 -50 0 -15 17 -41 45 -68 25 -24 45 -49 45 -55 0 -14 48 -65 61 -65 6 0
22 -9 36 -19 13 -11 31 -17 39 -14 8 3 21 0 29 -7 8 -7 26 -10 40 -6 14 4 34
1 45 -6 16 -10 24 -10 41 0 12 7 24 11 27 7 6 -6 -48 -53 -102 -90 -17 -11
-37 -32 -43 -46 -8 -16 -27 -31 -52 -39 -34 -11 -42 -10 -62 4 -20 14 -26 14
-44 2 -19 -13 -25 -12 -55 7 -30 19 -31 22 -15 31 40 24 75 59 75 76 0 17 -64
82 -113 115 -15 9 -47 17 -73 17 -40 1 -47 5 -56 27 -5 14 -16 38 -23 53 -12
25 -11 32 11 71 13 24 35 49 49 55 14 7 27 23 30 39 4 15 11 36 16 46 6 10 7
31 4 47 -4 18 0 40 11 62 10 18 18 56 18 84 1 30 9 61 19 78 11 17 16 35 11
49 -5 20 -5 20 10 7 10 -10 16 -36 18 -75z m-568 -370 c14 -14 32 -25 39 -25
8 0 27 -16 41 -35 21 -27 34 -35 54 -33 15 1 38 -4 51 -11 21 -12 26 -10 55
17 27 27 33 29 49 18 9 -7 17 -20 17 -29 0 -8 -36 -57 -80 -109 -45 -51 -112
-139 -151 -196 -58 -84 -73 -101 -87 -93 -9 5 -36 12 -59 16 -23 3 -44 13 -47
22 -3 8 5 47 18 86 36 105 66 223 66 255 -1 15 -7 38 -15 52 -20 34 -19 67 3
79 9 6 18 11 19 11 1 0 13 -11 27 -25z m1406 -90 l23 -25 -36 0 c-35 0 -36 1
-25 25 6 14 12 25 13 25 1 0 12 -11 25 -25z m-126 -63 c3 -5 -4 -21 -15 -38
-10 -16 -19 -42 -19 -58 0 -26 -2 -28 -27 -21 -16 3 -44 8 -63 10 -48 5 -119
21 -127 29 -11 10 23 38 61 51 22 8 38 9 44 3 6 -6 18 -6 32 2 12 6 27 9 34 7
6 -3 20 1 31 9 21 16 41 18 49 6z m197 -69 c99 -94 129 -148 129 -238 0 -96
-10 -108 -50 -61 -18 20 -43 39 -56 42 -29 7 -29 5 -4 54 21 40 15 49 -20 30
-15 -8 -22 -5 -39 19 -11 16 -52 50 -90 76 -70 48 -75 58 -47 94 16 21 68 51
88 51 10 0 50 -30 89 -67z m-466 -2 c6 -11 -29 -33 -39 -24 -7 7 12 33 25 33
4 0 10 -4 14 -9z m-169 -169 c-23 -23 -33 -6 -10 19 12 13 20 16 22 9 3 -7 -3
-19 -12 -28z m-1476 4 c0 -20 -19 -31 -32 -18 -6 6 -7 15 -4 21 10 16 36 13
36 -3z m1110 -16 c-8 -6 -40 -19 -70 -30 -30 -11 -63 -25 -73 -31 -31 -18 -34
1 -4 27 17 14 41 24 60 24 18 1 46 7 62 14 32 14 49 11 25 -4z m-1037 -68 c29
-14 28 -32 -3 -32 -38 0 -50 11 -50 49 0 47 13 63 20 24 3 -18 15 -33 33 -41z
m-141 45 c15 -12 15 -14 -3 -25 -26 -16 -44 -15 -60 4 -24 29 29 46 63 21z
m1247 -10 c-2 -1 -29 -16 -59 -31 -30 -16 -65 -38 -77 -49 -30 -26 -41 -15
-18 19 20 30 135 87 149 73 5 -5 8 -10 5 -12z m-1399 4 c0 -8 -61 -22 -69 -15
-1 1 0 7 4 13 8 13 65 15 65 2z m1510 -75 c-12 -25 -26 -46 -31 -46 -12 0 -12
33 0 62 5 13 12 32 16 42 5 18 7 18 21 4 14 -14 13 -20 -6 -62z m-1460 54 c0
-16 -67 -39 -139 -49 -36 -4 -74 -12 -83 -16 -26 -10 -22 11 4 29 13 10 45 16
78 17 43 0 99 12 138 28 1 1 2 -3 2 -9z m1393 -15 c-3 -8 -9 -15 -13 -15 -5 0
-30 -16 -55 -36 -26 -19 -49 -33 -52 -31 -11 11 21 50 64 77 47 30 67 31 56 5z
m-1272 -51 c-6 -14 -9 -35 -6 -45 9 -28 -3 -41 -26 -29 -24 13 -24 26 2 79 15
31 24 40 32 32 7 -7 7 -18 -2 -37z m-76 16 c0 -10 -24 -22 -70 -35 -38 -11
-76 -27 -83 -37 -10 -14 -18 -16 -32 -8 -16 9 -22 6 -34 -17 l-15 -28 -1 24
c0 33 37 71 69 71 14 0 51 11 81 24 61 27 85 28 85 6z m635 -11 c0 -10 -7 -19
-15 -19 -15 0 -21 31 -9 43 11 10 24 -3 24 -24z m47 -23 c-4 -9 -11 -16 -17
-16 -11 0 -14 33 -3 43 11 11 26 -10 20 -27z m60 8 c8 -21 -13 -42 -28 -27
-13 13 -5 43 11 43 6 0 13 -7 17 -16z m1546 -16 c49 -58 -17 -123 -182 -179
-70 -24 -81 -24 -81 4 0 12 -7 35 -15 51 -19 36 -19 36 3 36 27 0 131 54 172
89 40 35 73 34 103 -1z m-1858 2 c3 -5 17 -10 31 -10 13 0 24 -4 24 -10 0 -16
-51 -24 -71 -11 -10 6 -31 11 -46 11 -27 1 -27 1 -9 15 23 17 62 20 71 5z
m185 -20 c22 -11 48 -20 60 -20 11 0 20 -4 20 -9 0 -15 -18 -23 -25 -11 -4 6
-21 8 -40 4 -19 -3 -35 -1 -39 5 -4 6 -20 11 -37 11 -32 0 -38 14 -11 29 24
14 27 14 72 -9z m-136 -67 c-26 -19 -121 -53 -148 -53 -13 0 -35 -10 -50 -21
-39 -31 -42 -17 -6 25 26 29 39 36 69 36 20 0 61 11 91 23 54 22 80 17 44 -10z
m101 6 c10 -15 -28 -52 -79 -77 -24 -12 -46 -31 -49 -41 -3 -14 -11 -18 -25
-14 -15 3 -24 -2 -35 -22 -17 -33 -32 -18 -17 17 17 42 38 61 60 55 11 -3 18
-1 15 3 -5 8 102 90 117 90 4 0 10 -5 13 -11z m72 -48 c-14 -24 -15 -34 -6
-55 10 -20 9 -32 0 -53 l-13 -28 -14 34 c-16 38 -11 92 13 130 11 17 18 20 26
12 8 -8 7 -19 -6 -40z m1308 -5 c9 -14 15 -37 13 -53 -3 -26 -7 -28 -58 -35
-87 -10 -306 -9 -410 3 -334 36 -379 38 -468 24 -105 -16 -135 -27 -164 -60
-26 -30 -38 -32 -38 -7 0 39 65 79 175 108 73 19 164 21 590 15 124 -1 202 2
250 12 96 20 93 20 110 -7z"/>
<path d="M674 2664 c-18 -15 -18 -15 6 -10 14 3 28 6 33 6 4 0 7 5 7 10 0 15
-24 12 -46 -6z"/>
<path d="M545 2598 c-115 -22 -155 -44 -61 -34 87 10 186 30 186 37 0 15 -30
14 -125 -3z"/>
<path d="M790 2585 c-14 -8 -37 -14 -52 -15 -16 0 -28 -3 -28 -7 0 -12 97 -93
132 -110 31 -16 29 -16 128 14 13 4 13 6 -1 17 -10 6 -24 29 -33 50 -9 22 -24
45 -34 52 -22 18 -81 17 -112 -1z m88 -53 c3 -17 -2 -22 -18 -22 -25 0 -38 29
-19 41 20 13 34 6 37 -19z"/>
<path d="M430 2481 c0 -5 15 -19 34 -30 19 -12 81 -57 139 -100 90 -67 163
-109 173 -98 2 2 -32 27 -74 55 -42 29 -117 82 -167 117 -91 65 -105 72 -105
56z"/>
<path d="M1166 2323 c-8 -9 44 -63 61 -63 7 0 13 4 13 9 0 13 -66 61 -74 54z"/>
<path d="M1708 2284 c-28 -15 -34 -25 -22 -37 9 -8 84 31 84 43 0 14 -31 12
-62 -6z"/>
<path d="M1140 2277 c0 -8 9 -22 19 -31 26 -23 39 -2 15 25 -20 22 -34 25 -34
6z"/>
<path d="M1743 2235 c-23 -20 -25 -24 -10 -25 23 0 77 28 77 40 0 19 -39 10
-67 -15z"/>
<path d="M1808 2206 c-31 -11 -38 -36 -10 -36 10 0 27 6 38 14 27 20 7 36 -28
22z"/>
<path d="M1266 2178 c-3 -17 -4 -33 -1 -36 10 -10 35 21 35 44 0 35 -26 29
-34 -8z"/>
<path d="M766 2162 c-6 -10 34 -102 45 -102 19 0 19 23 0 65 -19 42 -34 55
-45 37z"/>
<path d="M1953 2119 c-63 -18 -48 -45 17 -31 19 4 35 14 35 22 0 18 -13 20
-52 9z"/>
<path d="M2117 2074 c-15 -16 -5 -24 29 -24 24 0 34 4 32 13 -5 13 -50 22 -61
11z"/>
<path d="M1268 2045 c-16 -13 -28 -29 -28 -35 0 -18 26 -11 50 15 33 35 14 51
-22 20z"/>
<path d="M1955 2061 c-3 -6 -4 -15 -1 -19 7 -12 91 1 91 13 0 14 -82 19 -90 6z"/>
<path d="M1408 2053 c-10 -2 -18 -11 -18 -20 0 -12 7 -14 32 -9 37 7 42 11 33
25 -6 11 -17 12 -47 4z"/>
<path d="M1690 2011 c-11 -7 -12 -13 -4 -21 14 -14 96 -2 91 14 -5 14 -68 19
-87 7z"/>
<path d="M1407 1993 c-16 -16 -4 -24 30 -21 48 4 57 28 11 28 -19 0 -38 -3
-41 -7z"/>
<path d="M1142 1950 c-22 -29 -22 -30 -3 -30 19 0 41 26 41 49 0 20 -16 12
-38 -19z"/>
<path d="M2075 1921 c-8 -13 3 -18 63 -26 36 -5 52 -3 52 4 0 24 -101 43 -115
22z"/>
<path d="M1867 1911 c-56 -9 -45 -26 19 -29 49 -3 88 9 73 21 -10 9 -57 13
-92 8z"/>
<path d="M1147 1892 c-21 -23 -21 -32 -3 -32 16 0 46 26 46 41 0 15 -26 10
-43 -9z"/>
<path d="M1027 1822 c-28 -57 -28 -69 -3 -59 29 11 65 102 44 110 -8 3 -24
-17 -41 -51z"/>
<path d="M1530 1846 c0 -16 94 -61 109 -52 26 16 11 27 -76 55 -26 8 -33 7
-33 -3z"/>
<path d="M1400 1827 c0 -13 40 -37 60 -37 21 0 9 31 -16 40 -34 13 -44 13 -44
-3z"/>
<path d="M2072 1828 c5 -15 76 -31 98 -23 13 6 12 9 -4 21 -25 18 -99 19 -94
2z"/>
<path d="M1536 1791 c-9 -13 71 -64 89 -57 22 8 11 23 -35 46 -45 23 -47 23
-54 11z"/>
<path d="M1390 1770 c0 -5 11 -17 26 -26 34 -23 56 -4 23 20 -26 18 -49 21
-49 6z"/>
<path d="M1892 1753 c2 -12 14 -19 36 -21 38 -4 43 14 6 28 -36 14 -46 12 -42
-7z"/>
<path d="M1100 1745 c0 -25 30 -76 40 -70 13 8 13 29 -2 60 -12 27 -38 34 -38
10z"/>
<path d="M1280 1736 c0 -7 7 -19 15 -26 13 -10 18 -11 28 -1 9 10 8 15 -7 27
-25 18 -36 18 -36 0z"/>
<path d="M1690 1741 c0 -6 15 -20 33 -31 54 -33 95 -21 43 13 -33 22 -76 32
-76 18z"/>
<path d="M1067 1723 c-4 -3 -7 -28 -7 -55 0 -35 4 -48 14 -48 19 0 29 50 17
83 -11 29 -14 31 -24 20z"/>
<path d="M1540 1722 c0 -17 37 -42 63 -42 38 0 33 17 -9 35 -41 17 -54 19 -54
7z"/>
<path d="M897 1655 c-10 -14 -26 -25 -36 -25 -17 0 -41 -54 -41 -93 0 -30 29
-6 41 33 8 25 19 40 33 44 24 6 50 42 41 56 -9 15 -18 11 -38 -15z"/>
<path d="M1280 1658 c0 -24 48 -74 59 -63 8 8 4 20 -12 43 -22 32 -47 42 -47
20z"/>
<path d="M1540 1651 c0 -15 87 -54 100 -46 27 17 -1 39 -63 50 -25 5 -37 4
-37 -4z"/>
<path d="M1258 1614 c-9 -8 19 -64 32 -64 6 0 10 6 10 14 0 19 -34 59 -42 50z"/>
<path d="M1540 1591 c0 -12 46 -41 65 -41 25 0 17 18 -15 35 -33 17 -50 19
-50 6z"/>
<path d="M2240 1575 c0 -14 37 -35 61 -35 21 0 2 25 -29 37 -28 11 -32 11 -32
-2z"/>
<path d="M880 1545 c-12 -32 -13 -55 -1 -55 25 0 47 69 24 77 -7 3 -17 -7 -23
-22z"/>
<path d="M1020 1547 c0 -7 -13 -26 -30 -42 -16 -16 -30 -35 -30 -42 0 -16 3
-16 33 -2 42 19 76 99 42 99 -8 0 -15 -6 -15 -13z"/>
<path d="M1057 1481 c-21 -59 -21 -61 -1 -61 16 0 44 56 44 90 0 37 -25 20
-43 -29z"/>
<path d="M1406 1522 c-3 -5 8 -22 24 -37 24 -23 33 -26 43 -16 10 10 6 17 -18
37 -32 26 -41 29 -49 16z"/>
<path d="M1380 1468 c0 -16 51 -68 67 -68 24 0 13 27 -21 54 -39 29 -46 31
-46 14z"/>
<path d="M2046 1472 c-2 -4 9 -23 24 -42 25 -31 30 -33 36 -17 4 12 -1 26 -16
43 -24 25 -36 29 -44 16z"/>
<path d="M1340 1437 c0 -16 32 -47 48 -47 19 0 14 14 -11 38 -27 25 -37 28
-37 9z"/>
<path d="M2330 1443 c0 -13 53 -63 67 -63 22 0 15 27 -13 49 -26 21 -54 28
-54 14z"/>
<path d="M2290 1410 c0 -6 11 -22 25 -35 13 -14 29 -25 35 -25 18 0 11 26 -13
48 -25 23 -47 29 -47 12z"/>
<path d="M2237 1393 c-3 -5 8 -26 24 -47 24 -32 30 -36 35 -22 11 28 -45 92
-59 69z"/>
<path d="M1144 1367 c-7 -18 12 -84 27 -93 19 -11 22 6 9 48 -17 53 -27 66
-36 45z"/>
<path d="M1090 1327 c0 -26 6 -49 14 -56 20 -17 24 -3 17 48 -8 61 -31 67 -31
8z"/>
<path d="M1195 1360 c-6 -10 19 -65 35 -75 23 -14 27 8 7 45 -23 41 -31 47
-42 30z"/>
<path d="M1396 1352 c-9 -14 21 -48 54 -62 47 -19 49 -2 5 36 -42 36 -51 39
-59 26z"/>
<path d="M2346 1291 c-8 -12 10 -51 24 -51 20 0 21 23 2 42 -13 13 -22 16 -26
9z"/>
<path d="M1906 1264 c-9 -22 -7 -54 2 -54 15 0 32 24 32 47 0 26 -25 31 -34 7z"/>
<path d="M2070 1181 c0 -5 7 -25 15 -44 8 -20 15 -48 15 -62 0 -16 6 -25 15
-25 10 0 15 10 15 30 0 41 -29 110 -46 110 -8 0 -14 -4 -14 -9z"/>
<path d="M2134 1169 c4 -13 13 -43 19 -67 12 -48 33 -51 31 -5 -2 38 -24 85
-43 91 -11 4 -12 -1 -7 -19z"/>
<path d="M2424 1174 c4 -11 12 -40 18 -66 7 -30 17 -48 26 -48 28 0 -6 118
-37 128 -10 3 -12 0 -7 -14z"/>
<path d="M2240 1176 c0 -2 7 -23 15 -46 8 -23 15 -58 15 -77 0 -30 2 -34 15
-23 8 7 15 22 15 34 0 38 -31 116 -46 116 -8 0 -14 -2 -14 -4z"/>
<path d="M2197 1162 c-8 -12 19 -106 31 -110 17 -5 15 41 -2 83 -15 36 -21 41
-29 27z"/>
<path d="M1916 1133 c-10 -10 -7 -81 4 -88 11 -7 30 35 30 65 0 18 -23 34 -34
23z"/>
<path d="M2385 1093 c9 -53 13 -63 25 -63 13 0 13 41 0 74 -15 40 -32 32 -25
-11z"/>
<path d="M1977 1083 c-4 -3 -7 -21 -7 -40 0 -23 5 -33 15 -33 11 0 15 11 15
40 0 38 -8 49 -23 33z"/>
<path d="M230 2625 c-15 -19 3 -45 31 -45 28 0 32 17 9 40 -24 24 -24 24 -40
5z"/>
<path d="M996 767 c-54 -30 -84 -72 -69 -95 6 -10 22 -16 36 -15 20 1 27 -4
29 -20 3 -19 9 -22 52 -22 31 0 51 5 54 13 2 6 -4 12 -14 12 -15 0 -15 3 4 23
22 24 42 75 42 109 0 27 -84 24 -134 -5z m94 -17 c0 -5 -13 -10 -29 -10 -17 0
-33 5 -36 10 -4 6 8 10 29 10 20 0 36 -4 36 -10z m-90 -51 c-52 -24 -60 -19
-26 16 22 22 29 24 47 14 20 -10 19 -12 -21 -30z m58 -28 c-24 -32 -38 -38
-38 -19 0 17 31 48 47 48 11 0 8 -8 -9 -29z"/>
</g>
</svg>
