0
SECTION
2
HEADER
9
$INSUNITS
70
4
0
ENDSEC
0
SECTION
2
TABLES
0
TABLE
2
LTYPE
0
LTYPE
72
65
70
64
2
CONTINUOUS
3
______
73
0
40
0
0
ENDTAB
0
TABLE
2
LAYER
0
ENDTAB
0
ENDSEC
0
SECTION
2
ENTITIES
0
LINE
8
0
10
152.382811
20
-53.6871761
11
106.2973074
21
-53.6871761
0
LINE
8
0
10
106.2973074
20
-53.6871761
11
-15.0021992
21
0.966448
0
LINE
8
0
10
-15.0021992
20
0.966448
11
-8.6064158
21
49.5472462
0
LINE
8
0
10
-8.6064158
20
49.5472462
11
47.5337226
21
74.3180641
0
LINE
8
0
10
47.5337226
20
74.3180641
11
70.2445065
21
74.1669528
0
LINE
8
0
10
70.2445065
20
74.1669528
11
130.8656368
21
60.9734179
0
LINE
8
0
10
130.8656368
20
60.9734179
11
127.8144816
21
60.9734179
0
LINE
8
0
10
127.8144816
20
60.9734179
11
188.4356119
21
74.1669528
0
LINE
8
0
10
188.4356119
20
74.1669528
11
211.1463958
21
74.3180641
0
LINE
8
0
10
211.1463958
20
74.3180641
11
267.2865342
21
49.5472462
0
LINE
8
0
10
267.2865342
20
49.5472462
11
273.6823176
21
0.966448
0
LINE
8
0
10
273.6823176
20
0.966448
11
152.382811
21
-53.6871761
0
LINE
8
0
10
-7.8982346
20
10.8739546
11
10.4434953
21
8.4592201
0
LINE
8
0
10
10.4434953
20
8.4592201
11
12.8582298
21
26.80095
0
LINE
8
0
10
12.8582298
20
26.80095
11
-5.4835001
21
29.2156845
0
LINE
8
0
10
-5.4835001
20
29.2156845
11
-7.8982346
21
10.8739546
0
LINE
8
0
10
-5.418237
20
29.711407
11
12.9234929
21
27.2966725
0
LINE
8
0
10
12.9234929
20
27.2966725
11
15.3382274
21
45.6384024
0
LINE
8
0
10
15.3382274
20
45.6384024
11
-3.0035025
21
48.0531369
0
LINE
8
0
10
-3.0035025
20
48.0531369
11
-5.418237
21
29.711407
0
LINE
8
0
10
9.8066523
20
-0.7700622
11
27.8854278
21
-4.6953491
0
LINE
8
0
10
27.8854278
20
-4.6953491
11
31.8107147
21
13.3834264
0
LINE
8
0
10
31.8107147
20
13.3834264
11
13.7319392
21
17.3087133
0
LINE
8
0
10
13.7319392
20
17.3087133
11
9.8066523
21
-0.7700622
0
LINE
8
0
10
13.838028
20
17.7973288
11
31.9168035
21
13.8720419
0
LINE
8
0
10
31.9168035
20
13.8720419
11
35.8420904
21
31.9508174
0
LINE
8
0
10
35.8420904
20
31.9508174
11
17.7633149
21
35.8761043
0
LINE
8
0
10
17.7633149
20
35.8761043
11
13.838028
21
17.7973288
0
LINE
8
0
10
17.8694038
20
36.3647199
11
35.9481793
21
32.439433
0
LINE
8
0
10
35.9481793
20
32.439433
11
39.8734662
21
50.5182085
0
LINE
8
0
10
39.8734662
20
50.5182085
11
21.7946907
21
54.4434954
0
LINE
8
0
10
21.7946907
20
54.4434954
11
17.8694038
21
36.3647199
0
LINE
8
0
10
31.7068368
20
8.9526705
11
49.6376087
21
4.3988346
0
LINE
8
0
10
49.6376087
20
4.3988346
11
54.1914446
21
22.3296065
0
LINE
8
0
10
54.1914446
20
22.3296065
11
36.2606727
21
26.8834424
0
LINE
8
0
10
36.2606727
20
26.8834424
11
31.7068368
21
8.9526705
0
LINE
8
0
10
36.3837494
20
27.3680577
11
54.3145213
21
22.8142218
0
LINE
8
0
10
54.3145213
20
22.8142218
11
58.8683572
21
40.7449937
0
LINE
8
0
10
58.8683572
20
40.7449937
11
40.9375853
21
45.2988296
0
LINE
8
0
10
40.9375853
20
45.2988296
11
36.3837494
21
27.3680577
0
LINE
8
0
10
41.0606619
20
45.783445
11
58.9914338
21
41.2296091
0
LINE
8
0
10
58.9914338
20
41.2296091
11
63.5452697
21
59.160381
0
LINE
8
0
10
63.5452697
20
59.160381
11
45.6144978
21
63.7142169
0
LINE
8
0
10
45.6144978
20
63.7142169
11
41.0606619
21
45.783445
0
LINE
8
0
10
51.0183504
20
9.7194555
11
68.6862194
21
4.2334363
0
LINE
8
0
10
68.6862194
20
4.2334363
11
74.1722386
21
21.9013053
0
LINE
8
0
10
74.1722386
20
21.9013053
11
56.5043696
21
27.3873245
0
LINE
8
0
10
56.5043696
20
27.3873245
11
51.0183504
21
9.7194555
0
LINE
8
0
10
56.6526404
20
27.8648344
11
74.3205094
21
22.3788152
0
LINE
8
0
10
74.3205094
20
22.3788152
11
79.8065286
21
40.0466842
0
LINE
8
0
10
79.8065286
20
40.0466842
11
62.1386596
21
45.5327034
0
LINE
8
0
10
62.1386596
20
45.5327034
11
56.6526404
21
27.8648344
0
LINE
8
0
10
62.2869303
20
46.0102133
11
79.9547993
21
40.5241941
0
LINE
8
0
10
79.9547993
20
40.5241941
11
85.4408185
21
58.1920631
0
LINE
8
0
10
85.4408185
20
58.1920631
11
67.7729495
21
63.6780823
0
LINE
8
0
10
67.7729495
20
63.6780823
11
62.2869303
21
46.0102133
0
LINE
8
0
10
67.3844799
20
-1.6449541
11
85.0523489
21
-7.1309733
0
LINE
8
0
10
85.0523489
20
-7.1309733
11
90.5383681
21
10.5368957
0
LINE
8
0
10
90.5383681
20
10.5368957
11
72.8704991
21
16.0229149
0
LINE
8
0
10
72.8704991
20
16.0229149
11
67.3844799
21
-1.6449541
0
LINE
8
0
10
73.0187699
20
16.5004248
11
90.6866389
21
11.0144056
0
LINE
8
0
10
90.6866389
20
11.0144056
11
96.1726581
21
28.6822746
0
LINE
8
0
10
96.1726581
20
28.6822746
11
78.5047891
21
34.1682938
0
LINE
8
0
10
78.5047891
20
34.1682938
11
73.0187699
21
16.5004248
0
LINE
8
0
10
78.6530598
20
34.6458037
11
96.3209288
21
29.1597845
0
LINE
8
0
10
96.3209288
20
29.1597845
11
101.806948
21
46.8276535
0
LINE
8
0
10
101.806948
20
46.8276535
11
84.139079
21
52.3136727
0
LINE
8
0
10
84.139079
20
52.3136727
11
78.6530598
21
34.6458037
0
LINE
8
0
10
84.3373256
20
-9.530066
11
101.6938653
21
-15.9332315
0
LINE
8
0
10
101.6938653
20
-15.9332315
11
108.0970308
21
1.4233082
0
LINE
8
0
10
108.0970308
20
1.4233082
11
90.7404911
21
7.8264737
0
LINE
8
0
10
90.7404911
20
7.8264737
11
84.3373256
21
-9.530066
0
LINE
8
0
10
90.9135497
20
8.2955693
11
108.2700894
21
1.8924038
0
LINE
8
0
10
108.2700894
20
1.8924038
11
114.6732549
21
19.2489435
0
LINE
8
0
10
114.6732549
20
19.2489435
11
97.3167152
21
25.652109
0
LINE
8
0
10
97.3167152
20
25.652109
11
90.9135497
21
8.2955693
0
LINE
8
0
10
97.4897738
20
26.1212046
11
114.8463135
21
19.7180391
0
LINE
8
0
10
114.8463135
20
19.7180391
11
121.249479
21
37.0745788
0
LINE
8
0
10
121.249479
20
37.0745788
11
103.8929393
21
43.4777443
0
LINE
8
0
10
103.8929393
20
43.4777443
11
97.4897738
21
26.1212046
0
LINE
8
0
10
77.0688674
20
-29.2320841
11
94.4254071
21
-35.6352496
0
LINE
8
0
10
94.4254071
20
-35.6352496
11
100.8285726
21
-18.2787099
0
LINE
8
0
10
100.8285726
20
-18.2787099
11
83.4720329
21
-11.8755444
0
LINE
8
0
10
83.4720329
20
-11.8755444
11
77.0688674
21
-29.2320841
0
LINE
8
0
10
95.3202952
20
-36.8607028
11
109.4400959
21
-48.8139965
0
LINE
8
0
10
109.4400959
20
-48.8139965
11
121.3933896
21
-34.6941958
0
LINE
8
0
10
121.3933896
20
-34.6941958
11
107.2735889
21
-22.7409021
0
LINE
8
0
10
107.2735889
20
-22.7409021
11
95.3202952
21
-36.8607028
0
LINE
8
0
10
248.2366231
20
8.4592201
11
266.578353
21
10.8739546
0
LINE
8
0
10
266.578353
20
10.8739546
11
264.1636185
21
29.2156845
0
LINE
8
0
10
264.1636185
20
29.2156845
11
245.8218886
21
26.80095
0
LINE
8
0
10
245.8218886
20
26.80095
11
248.2366231
21
8.4592201
0
LINE
8
0
10
245.7566255
20
27.2966725
11
264.0983554
21
29.711407
0
LINE
8
0
10
264.0983554
20
29.711407
11
261.6836209
21
48.0531369
0
LINE
8
0
10
261.6836209
20
48.0531369
11
243.341891
21
45.6384024
0
LINE
8
0
10
243.341891
20
45.6384024
11
245.7566255
21
27.2966725
0
LINE
8
0
10
230.7946906
20
-4.6953491
11
248.8734661
21
-0.7700622
0
LINE
8
0
10
248.8734661
20
-0.7700622
11
244.9481792
21
17.3087133
0
LINE
8
0
10
244.9481792
20
17.3087133
11
226.8694037
21
13.3834264
0
LINE
8
0
10
226.8694037
20
13.3834264
11
230.7946906
21
-4.6953491
0
LINE
8
0
10
226.7633149
20
13.8720419
11
244.8420904
21
17.7973288
0
LINE
8
0
10
244.8420904
20
17.7973288
11
240.9168035
21
35.8761043
0
LINE
8
0
10
240.9168035
20
35.8761043
11
222.838028
21
31.9508174
0
LINE
8
0
10
222.838028
20
31.9508174
11
226.7633149
21
13.8720419
0
LINE
8
0
10
222.7319391
20
32.439433
11
240.8107146
21
36.3647199
0
LINE
8
0
10
240.8107146
20
36.3647199
11
236.8854277
21
54.4434954
0
LINE
8
0
10
236.8854277
20
54.4434954
11
218.8066522
21
50.5182085
0
LINE
8
0
10
218.8066522
20
50.5182085
11
222.7319391
21
32.439433
0
LINE
8
0
10
209.0425097
20
4.3988346
11
226.9732816
21
8.9526705
0
LINE
8
0
10
226.9732816
20
8.9526705
11
222.4194457
21
26.8834424
0
LINE
8
0
10
222.4194457
20
26.8834424
11
204.4886738
21
22.3296065
0
LINE
8
0
10
204.4886738
20
22.3296065
11
209.0425097
21
4.3988346
0
LINE
8
0
10
204.3655971
20
22.8142218
11
222.296369
21
27.3680577
0
LINE
8
0
10
222.296369
20
27.3680577
11
217.7425331
21
45.2988296
0
LINE
8
0
10
217.7425331
20
45.2988296
11
199.8117612
21
40.7449937
0
LINE
8
0
10
199.8117612
20
40.7449937
11
204.3655971
21
22.8142218
0
LINE
8
0
10
199.6886846
20
41.2296091
11
217.6194565
21
45.783445
0
LINE
8
0
10
217.6194565
20
45.783445
11
213.0656206
21
63.7142169
0
LINE
8
0
10
213.0656206
20
63.7142169
11
195.1348487
21
59.160381
0
LINE
8
0
10
195.1348487
20
59.160381
11
199.6886846
21
41.2296091
0
LINE
8
0
10
189.993899
20
4.2334363
11
207.661768
21
9.7194555
0
LINE
8
0
10
207.661768
20
9.7194555
11
202.1757488
21
27.3873245
0
LINE
8
0
10
202.1757488
20
27.3873245
11
184.5078798
21
21.9013053
0
LINE
8
0
10
184.5078798
20
21.9013053
11
189.993899
21
4.2334363
0
LINE
8
0
10
184.359609
20
22.3788152
11
202.027478
21
27.8648344
0
LINE
8
0
10
202.027478
20
27.8648344
11
196.5414588
21
45.5327034
0
LINE
8
0
10
196.5414588
20
45.5327034
11
178.8735898
21
40.0466842
0
LINE
8
0
10
178.8735898
20
40.0466842
11
184.359609
21
22.3788152
0
LINE
8
0
10
178.7253191
20
40.5241941
11
196.3931881
21
46.0102133
0
LINE
8
0
10
196.3931881
20
46.0102133
11
190.9071689
21
63.6780823
0
LINE
8
0
10
190.9071689
20
63.6780823
11
173.2392999
21
58.1920631
0
LINE
8
0
10
173.2392999
20
58.1920631
11
178.7253191
21
40.5241941
0
LINE
8
0
10
173.6277695
20
-7.1309733
11
191.2956385
21
-1.6449541
0
LINE
8
0
10
191.2956385
20
-1.6449541
11
185.8096193
21
16.0229149
0
LINE
8
0
10
185.8096193
20
16.0229149
11
168.1417503
21
10.5368957
0
LINE
8
0
10
168.1417503
20
10.5368957
11
173.6277695
21
-7.1309733
0
LINE
8
0
10
167.9934795
20
11.0144056
11
185.6613485
21
16.5004248
0
LINE
8
0
10
185.6613485
20
16.5004248
11
180.1753293
21
34.1682938
0
LINE
8
0
10
180.1753293
20
34.1682938
11
162.5074603
21
28.6822746
0
LINE
8
0
10
162.5074603
20
28.6822746
11
167.9934795
21
11.0144056
0
LINE
8
0
10
162.3591896
20
29.1597845
11
180.0270586
21
34.6458037
0
LINE
8
0
10
180.0270586
20
34.6458037
11
174.5410394
21
52.3136727
0
LINE
8
0
10
174.5410394
20
52.3136727
11
156.8731704
21
46.8276535
0
LINE
8
0
10
156.8731704
20
46.8276535
11
162.3591896
21
29.1597845
0
LINE
8
0
10
156.9862531
20
-15.9332315
11
174.3427928
21
-9.530066
0
LINE
8
0
10
174.3427928
20
-9.530066
11
167.9396273
21
7.8264737
0
LINE
8
0
10
167.9396273
20
7.8264737
11
150.5830876
21
1.4233082
0
LINE
8
0
10
150.5830876
20
1.4233082
11
156.9862531
21
-15.9332315
0
LINE
8
0
10
150.410029
20
1.8924038
11
167.7665687
21
8.2955693
0
LINE
8
0
10
167.7665687
20
8.2955693
11
161.3634032
21
25.652109
0
LINE
8
0
10
161.3634032
20
25.652109
11
144.0068635
21
19.2489435
0
LINE
8
0
10
144.0068635
20
19.2489435
11
150.410029
21
1.8924038
0
LINE
8
0
10
143.8338049
20
19.7180391
11
161.1903446
21
26.1212046
0
LINE
8
0
10
161.1903446
20
26.1212046
11
154.7871791
21
43.4777443
0
LINE
8
0
10
154.7871791
20
43.4777443
11
137.4306394
21
37.0745788
0
LINE
8
0
10
137.4306394
20
37.0745788
11
143.8338049
21
19.7180391
0
LINE
8
0
10
164.2547113
20
-35.6352496
11
181.611251
21
-29.2320841
0
LINE
8
0
10
181.611251
20
-29.2320841
11
175.2080855
21
-11.8755444
0
LINE
8
0
10
175.2080855
20
-11.8755444
11
157.8515458
21
-18.2787099
0
LINE
8
0
10
157.8515458
20
-18.2787099
11
164.2547113
21
-35.6352496
0
LINE
8
0
10
149.2400225
20
-48.8139965
11
163.3598232
21
-36.8607028
0
LINE
8
0
10
163.3598232
20
-36.8607028
11
151.4065295
21
-22.7409021
0
LINE
8
0
10
151.4065295
20
-22.7409021
11
137.2867288
21
-34.6941958
0
LINE
8
0
10
137.2867288
20
-34.6941958
11
149.2400225
21
-48.8139965
0
ENDSEC
0
EOF