0
SECTION
2
HEADER
9
$INSUNITS
70
4
0
ENDSEC
0
SECTION
2
TABLES
0
TABLE
2
LTYPE
0
LTYPE
72
65
70
64
2
CONTINUOUS
3
______
73
0
40
0
0
ENDTAB
0
TABLE
2
LAYER
0
ENDTAB
0
ENDSEC
0
SECTION
2
ENTITIES
0
LINE
8
0
10
-5.2682704
20
28.9351918
11
12.5777371
21
26.5857203
0
LINE
8
0
10
12.5777371
20
26.5857203
11
10.2282656
21
8.7397128
0
LINE
8
0
10
10.2282656
20
8.7397128
11
-7.6177419
21
11.0891843
0
LINE
8
0
10
-7.6177419
20
11.0891843
11
-5.2682704
21
28.9351918
0
LINE
8
0
10
-2.7882728
20
47.7726442
11
15.0577347
21
45.4231727
0
LINE
8
0
10
15.0577347
20
45.4231727
11
12.7082632
21
27.5771652
0
LINE
8
0
10
12.7082632
20
27.5771652
11
-5.1377443
21
29.9266367
0
LINE
8
0
10
-5.1377443
20
29.9266367
11
-2.7882728
21
47.7726442
0
LINE
8
0
10
13.9232026
20
17.0113611
11
31.5133625
21
13.192163
0
LINE
8
0
10
31.5133625
20
13.192163
11
27.6941644
21
-4.3979969
0
LINE
8
0
10
27.6941644
20
-4.3979969
11
10.1040045
21
-0.5787988
0
LINE
8
0
10
10.1040045
20
-0.5787988
11
13.9232026
21
17.0113611
0
LINE
8
0
10
17.9545783
20
35.5787521
11
35.5447382
21
31.759554
0
LINE
8
0
10
35.5447382
20
31.759554
11
31.7255401
21
14.1693941
0
LINE
8
0
10
31.7255401
20
14.1693941
11
14.1353802
21
17.9885922
0
LINE
8
0
10
14.1353802
20
17.9885922
11
17.9545783
21
35.5787521
0
LINE
8
0
10
21.9859541
20
54.1461432
11
39.576114
21
50.3269451
0
LINE
8
0
10
39.576114
20
50.3269451
11
35.7569159
21
32.7367852
0
LINE
8
0
10
35.7569159
20
32.7367852
11
18.166756
21
36.5559833
0
LINE
8
0
10
18.166756
20
36.5559833
11
21.9859541
21
54.1461432
0
LINE
8
0
10
36.4414421
20
26.5795963
11
53.8875985
21
22.1488371
0
LINE
8
0
10
53.8875985
20
22.1488371
11
49.4568393
21
4.7026807
0
LINE
8
0
10
49.4568393
20
4.7026807
11
32.0106829
21
9.1334399
0
LINE
8
0
10
32.0106829
20
9.1334399
11
36.4414421
21
26.5795963
0
LINE
8
0
10
41.1183547
20
44.9949835
11
58.5645111
21
40.5642243
0
LINE
8
0
10
58.5645111
20
40.5642243
11
54.1337519
21
23.1180679
0
LINE
8
0
10
54.1337519
20
23.1180679
11
36.6875955
21
27.5488271
0
LINE
8
0
10
36.6875955
20
27.5488271
11
41.1183547
21
44.9949835
0
LINE
8
0
10
45.7952672
20
63.4103708
11
63.2414236
21
58.9796116
0
LINE
8
0
10
63.2414236
20
58.9796116
11
58.8106644
21
41.5334552
0
LINE
8
0
10
58.8106644
20
41.5334552
11
41.364508
21
45.9642144
0
LINE
8
0
10
41.364508
20
45.9642144
11
45.7952672
21
63.4103708
0
LINE
8
0
10
56.6689892
20
27.0744341
11
73.8593482
21
21.7366857
0
LINE
8
0
10
73.8593482
20
21.7366857
11
68.5215998
21
4.5463267
0
LINE
8
0
10
68.5215998
20
4.5463267
11
51.3312408
21
9.8840751
0
LINE
8
0
10
51.3312408
20
9.8840751
11
56.6689892
21
27.0744341
0
LINE
8
0
10
62.3032792
20
45.219813
11
79.4936382
21
39.8820646
0
LINE
8
0
10
79.4936382
20
39.8820646
11
74.1558898
21
22.6917056
0
LINE
8
0
10
74.1558898
20
22.6917056
11
56.9655308
21
28.029454
0
LINE
8
0
10
56.9655308
20
28.029454
11
62.3032792
21
45.219813
0
LINE
8
0
10
67.9375691
20
63.3651919
11
85.1279281
21
58.0274435
0
LINE
8
0
10
85.1279281
20
58.0274435
11
79.7901797
21
40.8370845
0
LINE
8
0
10
79.7901797
20
40.8370845
11
62.5998207
21
46.1748329
0
LINE
8
0
10
62.5998207
20
46.1748329
11
67.9375691
21
63.3651919
0
LINE
8
0
10
73.0351187
20
15.7100245
11
90.2254777
21
10.3722761
0
LINE
8
0
10
90.2254777
20
10.3722761
11
84.8877293
21
-6.8180829
0
LINE
8
0
10
84.8877293
20
-6.8180829
11
67.6973703
21
-1.4803345
0
LINE
8
0
10
67.6973703
20
-1.4803345
11
73.0351187
21
15.7100245
0
LINE
8
0
10
78.6694087
20
33.8554034
11
95.8597677
21
28.517655
0
LINE
8
0
10
95.8597677
20
28.517655
11
90.5220193
21
11.327296
0
LINE
8
0
10
90.5220193
20
11.327296
11
73.3316603
21
16.6650444
0
LINE
8
0
10
73.3316603
20
16.6650444
11
78.6694087
21
33.8554034
0
LINE
8
0
10
84.3036986
20
52.0007823
11
101.4940576
21
46.6630339
0
LINE
8
0
10
101.4940576
20
46.6630339
11
96.1563092
21
29.4726749
0
LINE
8
0
10
96.1563092
20
29.4726749
11
78.9659502
21
34.8104233
0
LINE
8
0
10
78.9659502
20
34.8104233
11
84.3036986
21
52.0007823
0
LINE
8
0
10
90.8885097
20
7.5053966
11
107.7759537
21
1.2752896
0
LINE
8
0
10
107.7759537
20
1.2752896
11
101.5458467
21
-15.6121544
0
LINE
8
0
10
101.5458467
20
-15.6121544
11
84.6584027
21
-9.3820474
0
LINE
8
0
10
84.6584027
20
-9.3820474
11
90.8885097
21
7.5053966
0
LINE
8
0
10
97.4647338
20
25.3310319
11
114.3521778
21
19.1009249
0
LINE
8
0
10
114.3521778
20
19.1009249
11
108.1220708
21
2.2134809
0
LINE
8
0
10
108.1220708
20
2.2134809
11
91.2346268
21
8.4435879
0
LINE
8
0
10
91.2346268
20
8.4435879
11
97.4647338
21
25.3310319
0
LINE
8
0
10
104.0409579
20
43.1566672
11
120.9284019
21
36.9265602
0
LINE
8
0
10
120.9284019
20
36.9265602
11
114.6982949
21
20.0391162
0
LINE
8
0
10
114.6982949
20
20.0391162
11
97.8108509
21
26.2692232
0
LINE
8
0
10
97.8108509
20
26.2692232
11
104.0409579
21
43.1566672
0
LINE
8
0
10
83.6200515
20
-12.1966215
11
100.5074955
21
-18.4267285
0
LINE
8
0
10
100.5074955
20
-18.4267285
11
94.2773885
21
-35.3141725
0
LINE
8
0
10
94.2773885
20
-35.3141725
11
77.3899445
21
-29.0840655
0
LINE
8
0
10
77.3899445
20
-29.0840655
11
83.6200515
21
-12.1966215
0
LINE
8
0
10
107.302866
20
-23.0932413
11
121.0410504
21
-34.7234729
0
LINE
8
0
10
121.0410504
20
-34.7234729
11
109.4108188
21
-48.4616573
0
LINE
8
0
10
109.4108188
20
-48.4616573
11
95.6726344
21
-36.8314257
0
LINE
8
0
10
95.6726344
20
-36.8314257
11
107.302866
21
-23.0932413
0
LINE
8
0
10
246.1023813
20
26.5857203
11
263.9483888
21
28.9351918
0
LINE
8
0
10
263.9483888
20
28.9351918
11
266.2978603
21
11.0891843
0
LINE
8
0
10
266.2978603
20
11.0891843
11
248.4518528
21
8.7397128
0
LINE
8
0
10
248.4518528
20
8.7397128
11
246.1023813
21
26.5857203
0
LINE
8
0
10
243.6223837
20
45.4231727
11
261.4683912
21
47.7726442
0
LINE
8
0
10
261.4683912
20
47.7726442
11
263.8178627
21
29.9266367
0
LINE
8
0
10
263.8178627
20
29.9266367
11
245.9718552
21
27.5771652
0
LINE
8
0
10
245.9718552
20
27.5771652
11
243.6223837
21
45.4231727
0
LINE
8
0
10
227.1667559
20
13.192163
11
244.7569158
21
17.0113611
0
LINE
8
0
10
244.7569158
20
17.0113611
11
248.5761139
21
-0.5787988
0
LINE
8
0
10
248.5761139
20
-0.5787988
11
230.985954
21
-4.3979969
0
LINE
8
0
10
230.985954
20
-4.3979969
11
227.1667559
21
13.192163
0
LINE
8
0
10
223.1353802
20
31.759554
11
240.7255401
21
35.5787521
0
LINE
8
0
10
240.7255401
20
35.5787521
11
244.5447382
21
17.9885922
0
LINE
8
0
10
244.5447382
20
17.9885922
11
226.9545783
21
14.1693941
0
LINE
8
0
10
226.9545783
20
14.1693941
11
223.1353802
21
31.759554
0
LINE
8
0
10
219.1040044
20
50.3269451
11
236.6941643
21
54.1461432
0
LINE
8
0
10
236.6941643
20
54.1461432
11
240.5133624
21
36.5559833
0
LINE
8
0
10
240.5133624
20
36.5559833
11
222.9232025
21
32.7367852
0
LINE
8
0
10
222.9232025
20
32.7367852
11
219.1040044
21
50.3269451
0
LINE
8
0
10
204.7925199
20
22.1488371
11
222.2386763
21
26.5795963
0
LINE
8
0
10
222.2386763
20
26.5795963
11
226.6694355
21
9.1334399
0
LINE
8
0
10
226.6694355
20
9.1334399
11
209.2232791
21
4.7026807
0
LINE
8
0
10
209.2232791
20
4.7026807
11
204.7925199
21
22.1488371
0
LINE
8
0
10
200.1156073
20
40.5642243
11
217.5617637
21
44.9949835
0
LINE
8
0
10
217.5617637
20
44.9949835
11
221.9925229
21
27.5488271
0
LINE
8
0
10
221.9925229
20
27.5488271
11
204.5463665
21
23.1180679
0
LINE
8
0
10
204.5463665
20
23.1180679
11
200.1156073
21
40.5642243
0
LINE
8
0
10
195.4386948
20
58.9796116
11
212.8848512
21
63.4103708
0
LINE
8
0
10
212.8848512
20
63.4103708
11
217.3156104
21
45.9642144
0
LINE
8
0
10
217.3156104
20
45.9642144
11
199.869454
21
41.5334552
0
LINE
8
0
10
199.869454
20
41.5334552
11
195.4386948
21
58.9796116
0
LINE
8
0
10
184.8207702
20
21.7366857
11
202.0111292
21
27.0744341
0
LINE
8
0
10
202.0111292
20
27.0744341
11
207.3488776
21
9.8840751
0
LINE
8
0
10
207.3488776
20
9.8840751
11
190.1585186
21
4.5463267
0
LINE
8
0
10
190.1585186
20
4.5463267
11
184.8207702
21
21.7366857
0
LINE
8
0
10
179.1864802
20
39.8820646
11
196.3768392
21
45.219813
0
LINE
8
0
10
196.3768392
20
45.219813
11
201.7145876
21
28.029454
0
LINE
8
0
10
201.7145876
20
28.029454
11
184.5242286
21
22.6917056
0
LINE
8
0
10
184.5242286
20
22.6917056
11
179.1864802
21
39.8820646
0
LINE
8
0
10
173.5521903
20
58.0274435
11
190.7425493
21
63.3651919
0
LINE
8
0
10
190.7425493
20
63.3651919
11
196.0802977
21
46.1748329
0
LINE
8
0
10
196.0802977
20
46.1748329
11
178.8899387
21
40.8370845
0
LINE
8
0
10
178.8899387
20
40.8370845
11
173.5521903
21
58.0274435
0
LINE
8
0
10
168.4546407
20
10.3722761
11
185.6449997
21
15.7100245
0
LINE
8
0
10
185.6449997
20
15.7100245
11
190.9827481
21
-1.4803345
0
LINE
8
0
10
190.9827481
20
-1.4803345
11
173.7923891
21
-6.8180829
0
LINE
8
0
10
173.7923891
20
-6.8180829
11
168.4546407
21
10.3722761
0
LINE
8
0
10
162.8203507
20
28.517655
11
180.0107097
21
33.8554034
0
LINE
8
0
10
180.0107097
20
33.8554034
11
185.3484581
21
16.6650444
0
LINE
8
0
10
185.3484581
20
16.6650444
11
168.1580991
21
11.327296
0
LINE
8
0
10
168.1580991
20
11.327296
11
162.8203507
21
28.517655
0
LINE
8
0
10
157.1860608
20
46.6630339
11
174.3764198
21
52.0007823
0
LINE
8
0
10
174.3764198
20
52.0007823
11
179.7141682
21
34.8104233
0
LINE
8
0
10
179.7141682
20
34.8104233
11
162.5238092
21
29.4726749
0
LINE
8
0
10
162.5238092
20
29.4726749
11
157.1860608
21
46.6630339
0
LINE
8
0
10
150.9041647
20
1.2752896
11
167.7916087
21
7.5053966
0
LINE
8
0
10
167.7916087
20
7.5053966
11
174.0217157
21
-9.3820474
0
LINE
8
0
10
174.0217157
20
-9.3820474
11
157.1342717
21
-15.6121544
0
LINE
8
0
10
157.1342717
20
-15.6121544
11
150.9041647
21
1.2752896
0
LINE
8
0
10
144.3279406
20
19.1009249
11
161.2153846
21
25.3310319
0
LINE
8
0
10
161.2153846
20
25.3310319
11
167.4454916
21
8.4435879
0
LINE
8
0
10
167.4454916
20
8.4435879
11
150.5580476
21
2.2134809
0
LINE
8
0
10
150.5580476
20
2.2134809
11
144.3279406
21
19.1009249
0
LINE
8
0
10
137.7517165
20
36.9265602
11
154.6391605
21
43.1566672
0
LINE
8
0
10
154.6391605
20
43.1566672
11
160.8692675
21
26.2692232
0
LINE
8
0
10
160.8692675
20
26.2692232
11
143.9818235
21
20.0391162
0
LINE
8
0
10
143.9818235
20
20.0391162
11
137.7517165
21
36.9265602
0
LINE
8
0
10
158.1726229
20
-18.4267285
11
175.0600669
21
-12.1966215
0
LINE
8
0
10
175.0600669
20
-12.1966215
11
181.2901739
21
-29.0840655
0
LINE
8
0
10
181.2901739
20
-29.0840655
11
164.4027299
21
-35.3141725
0
LINE
8
0
10
164.4027299
20
-35.3141725
11
158.1726229
21
-18.4267285
0
LINE
8
0
10
137.639068
20
-34.7234729
11
151.3772524
21
-23.0932413
0
LINE
8
0
10
151.3772524
20
-23.0932413
11
163.007484
21
-36.8314257
0
LINE
8
0
10
163.007484
20
-36.8314257
11
149.2692996
21
-48.4616573
0
LINE
8
0
10
149.2692996
20
-48.4616573
11
137.639068
21
-34.7234729
0
ENDSEC
0
EOF