0
SECTION
2
HEADER
9
$INSUNITS
70
4
0
ENDSEC
0
SECTION
2
TABLES
0
TABLE
2
LTYPE
0
LTYPE
72
65
70
64
2
CONTINUOUS
3
______
73
0
40
0
0
ENDTAB
0
TABLE
2
LAYER
0
ENDTAB
0
ENDSEC
0
SECTION
2
ENTITIES
0
LINE
8
0
10
-4.7624793
20
29.0227289
11
13.0398063
21
26.3621595
0
LINE
8
0
10
13.0398063
20
26.3621595
11
10.3792369
21
8.5598739
0
LINE
8
0
10
10.3792369
20
8.5598739
11
-7.4230487
21
11.2204433
0
LINE
8
0
10
-7.4230487
20
11.2204433
11
-4.7624793
21
29.0227289
0
LINE
8
0
10
-1.9541006
20
47.8140303
11
15.848185
21
45.1534609
0
LINE
8
0
10
15.848185
20
45.1534609
11
13.1876156
21
27.3511753
0
LINE
8
0
10
13.1876156
20
27.3511753
11
-4.61467
21
30.0117447
0
LINE
8
0
10
-4.61467
20
30.0117447
11
-1.9541006
21
47.8140303
0
LINE
8
0
10
14.2179712
20
16.7657767
11
31.7387978
21
12.6401697
0
LINE
8
0
10
31.7387978
20
12.6401697
11
27.6131908
21
-4.8806569
0
LINE
8
0
10
27.6131908
20
-4.8806569
11
10.0923642
21
-0.7550499
0
LINE
8
0
10
10.0923642
20
-0.7550499
11
14.2179712
21
16.7657767
0
LINE
8
0
10
18.5727786
20
35.2599827
11
36.0936052
21
31.1343757
0
LINE
8
0
10
36.0936052
20
31.1343757
11
31.9679982
21
13.6135491
0
LINE
8
0
10
31.9679982
20
13.6135491
11
14.4471716
21
17.7391561
0
LINE
8
0
10
14.4471716
20
17.7391561
11
18.5727786
21
35.2599827
0
LINE
8
0
10
22.927586
20
53.7541887
11
40.4484126
21
49.6285817
0
LINE
8
0
10
40.4484126
20
49.6285817
11
36.3228056
21
32.1077551
0
LINE
8
0
10
36.3228056
20
32.1077551
11
18.801979
21
36.2333621
0
LINE
8
0
10
18.801979
20
36.2333621
11
22.927586
21
53.7541887
0
LINE
8
0
10
36.8997699
20
25.9395572
11
54.2659417
21
21.2049954
0
LINE
8
0
10
54.2659417
20
21.2049954
11
49.5313799
21
3.8388236
0
LINE
8
0
10
49.5313799
20
3.8388236
11
32.1652081
21
8.5733854
0
LINE
8
0
10
32.1652081
20
8.5733854
11
36.8997699
21
25.9395572
0
LINE
8
0
10
41.8973629
20
44.2705163
11
59.2635347
21
39.5359545
0
LINE
8
0
10
59.2635347
20
39.5359545
11
54.5289729
21
22.1697827
0
LINE
8
0
10
54.5289729
20
22.1697827
11
37.1628011
21
26.9043445
0
LINE
8
0
10
37.1628011
20
26.9043445
11
41.8973629
21
44.2705163
0
LINE
8
0
10
46.894956
20
62.6014755
11
64.2611278
21
57.8669137
0
LINE
8
0
10
64.2611278
20
57.8669137
11
59.526566
21
40.5007419
0
LINE
8
0
10
59.526566
20
40.5007419
11
42.1603942
21
45.2353037
0
LINE
8
0
10
42.1603942
20
45.2353037
11
46.894956
21
62.6014755
0
LINE
8
0
10
57.1328723
20
26.0813003
11
74.2274566
21
20.4443518
0
LINE
8
0
10
74.2274566
20
20.4443518
11
68.5905081
21
3.3497675
0
LINE
8
0
10
68.5905081
20
3.3497675
11
51.4959238
21
8.986716
0
LINE
8
0
10
51.4959238
20
8.986716
11
57.1328723
21
26.0813003
0
LINE
8
0
10
63.0829846
20
44.1255836
11
80.1775689
21
38.4886351
0
LINE
8
0
10
80.1775689
20
38.4886351
11
74.5406204
21
21.3940508
0
LINE
8
0
10
74.5406204
20
21.3940508
11
57.4460361
21
27.0309993
0
LINE
8
0
10
57.4460361
20
27.0309993
11
63.0829846
21
44.1255836
0
LINE
8
0
10
69.0330969
20
62.169867
11
86.1276812
21
56.5329185
0
LINE
8
0
10
86.1276812
20
56.5329185
11
80.4907327
21
39.4383342
0
LINE
8
0
10
80.4907327
20
39.4383342
11
63.3961484
21
45.0752827
0
LINE
8
0
10
63.3961484
20
45.0752827
11
69.0330969
21
62.169867
0
LINE
8
0
10
73.2981728
20
14.4329932
11
90.3927571
21
8.7960447
0
LINE
8
0
10
90.3927571
20
8.7960447
11
84.7558086
21
-8.2985396
0
LINE
8
0
10
84.7558086
20
-8.2985396
11
67.6612243
21
-2.6615911
0
LINE
8
0
10
67.6612243
20
-2.6615911
11
73.2981728
21
14.4329932
0
LINE
8
0
10
79.2482851
20
32.4772765
11
96.3428694
21
26.840328
0
LINE
8
0
10
96.3428694
20
26.840328
11
90.7059209
21
9.7457437
0
LINE
8
0
10
90.7059209
20
9.7457437
11
73.6113366
21
15.3826922
0
LINE
8
0
10
73.6113366
20
15.3826922
11
79.2482851
21
32.4772765
0
LINE
8
0
10
85.1983975
20
50.5215599
11
102.2929818
21
44.8846114
0
LINE
8
0
10
102.2929818
20
44.8846114
11
96.6560333
21
27.7900271
0
LINE
8
0
10
96.6560333
20
27.7900271
11
79.561449
21
33.4269756
0
LINE
8
0
10
79.561449
20
33.4269756
11
85.1983975
21
50.5215599
0
LINE
8
0
10
91.0056541
20
5.9180303
11
107.7817958
21
-0.6058544
0
LINE
8
0
10
107.7817958
20
-0.6058544
11
101.2579111
21
-17.3819961
0
LINE
8
0
10
101.2579111
20
-17.3819961
11
84.4817694
21
-10.8581114
0
LINE
8
0
10
84.4817694
20
-10.8581114
11
91.0056541
21
5.9180303
0
LINE
8
0
10
97.8919769
20
23.6261798
11
114.6681186
21
17.1022951
0
LINE
8
0
10
114.6681186
20
17.1022951
11
108.1442339
21
0.3261534
0
LINE
8
0
10
108.1442339
20
0.3261534
11
91.3680922
21
6.8500381
0
LINE
8
0
10
91.3680922
20
6.8500381
11
97.8919769
21
23.6261798
0
LINE
8
0
10
104.7782996
20
41.3343293
11
121.5544413
21
34.8104446
0
LINE
8
0
10
121.5544413
20
34.8104446
11
115.0305566
21
18.0343029
0
LINE
8
0
10
115.0305566
20
18.0343029
11
98.2544149
21
24.5581876
0
LINE
8
0
10
98.2544149
20
24.5581876
11
104.7782996
21
41.3343293
0
LINE
8
0
10
83.3944553
20
-13.654135
11
100.170597
21
-20.1780197
0
LINE
8
0
10
100.170597
20
-20.1780197
11
93.6467123
21
-36.9541614
0
LINE
8
0
10
93.6467123
20
-36.9541614
11
76.8705706
21
-30.4302767
0
LINE
8
0
10
76.8705706
20
-30.4302767
11
83.3944553
21
-13.654135
0
LINE
8
0
10
107.8154985
20
-25.3248553
11
121.348615
21
-37.19308
0
LINE
8
0
10
121.348615
20
-37.19308
11
109.4803903
21
-50.7261965
0
LINE
8
0
10
109.4803903
20
-50.7261965
11
95.9472738
21
-38.8579718
0
LINE
8
0
10
95.9472738
20
-38.8579718
11
107.8154985
21
-25.3248553
0
LINE
8
0
10
265.5009705
20
26.3621595
11
283.3032561
21
29.0227289
0
LINE
8
0
10
283.3032561
20
29.0227289
11
285.9638255
21
11.2204433
0
LINE
8
0
10
285.9638255
20
11.2204433
11
268.1615399
21
8.5598739
0
LINE
8
0
10
268.1615399
20
8.5598739
11
265.5009705
21
26.3621595
0
LINE
8
0
10
262.6925918
20
45.1534609
11
280.4948774
21
47.8140303
0
LINE
8
0
10
280.4948774
20
47.8140303
11
283.1554468
21
30.0117447
0
LINE
8
0
10
283.1554468
20
30.0117447
11
265.3531612
21
27.3511753
0
LINE
8
0
10
265.3531612
20
27.3511753
11
262.6925918
21
45.1534609
0
LINE
8
0
10
246.801979
20
12.6401697
11
264.3228056
21
16.7657767
0
LINE
8
0
10
264.3228056
20
16.7657767
11
268.4484126
21
-0.7550499
0
LINE
8
0
10
268.4484126
20
-0.7550499
11
250.927586
21
-4.8806569
0
LINE
8
0
10
250.927586
20
-4.8806569
11
246.801979
21
12.6401697
0
LINE
8
0
10
242.4471716
20
31.1343757
11
259.9679982
21
35.2599827
0
LINE
8
0
10
259.9679982
20
35.2599827
11
264.0936052
21
17.7391561
0
LINE
8
0
10
264.0936052
20
17.7391561
11
246.5727786
21
13.6135491
0
LINE
8
0
10
246.5727786
20
13.6135491
11
242.4471716
21
31.1343757
0
LINE
8
0
10
238.0923642
20
49.6285817
11
255.6131908
21
53.7541887
0
LINE
8
0
10
255.6131908
20
53.7541887
11
259.7387978
21
36.2333621
0
LINE
8
0
10
259.7387978
20
36.2333621
11
242.2179712
21
32.1077551
0
LINE
8
0
10
242.2179712
20
32.1077551
11
238.0923642
21
49.6285817
0
LINE
8
0
10
224.2748351
20
21.2049954
11
241.6410069
21
25.9395572
0
LINE
8
0
10
241.6410069
20
25.9395572
11
246.3755687
21
8.5733854
0
LINE
8
0
10
246.3755687
20
8.5733854
11
229.0093969
21
3.8388236
0
LINE
8
0
10
229.0093969
20
3.8388236
11
224.2748351
21
21.2049954
0
LINE
8
0
10
219.2772421
20
39.5359545
11
236.6434139
21
44.2705163
0
LINE
8
0
10
236.6434139
20
44.2705163
11
241.3779757
21
26.9043445
0
LINE
8
0
10
241.3779757
20
26.9043445
11
224.0118039
21
22.1697827
0
LINE
8
0
10
224.0118039
20
22.1697827
11
219.2772421
21
39.5359545
0
LINE
8
0
10
214.279649
20
57.8669137
11
231.6458208
21
62.6014755
0
LINE
8
0
10
231.6458208
20
62.6014755
11
236.3803826
21
45.2353037
0
LINE
8
0
10
236.3803826
20
45.2353037
11
219.0142108
21
40.5007419
0
LINE
8
0
10
219.0142108
20
40.5007419
11
214.279649
21
57.8669137
0
LINE
8
0
10
204.3133202
20
20.4443518
11
221.4079045
21
26.0813003
0
LINE
8
0
10
221.4079045
20
26.0813003
11
227.044853
21
8.986716
0
LINE
8
0
10
227.044853
20
8.986716
11
209.9502687
21
3.3497675
0
LINE
8
0
10
209.9502687
20
3.3497675
11
204.3133202
21
20.4443518
0
LINE
8
0
10
198.3632079
20
38.4886351
11
215.4577922
21
44.1255836
0
LINE
8
0
10
215.4577922
20
44.1255836
11
221.0947407
21
27.0309993
0
LINE
8
0
10
221.0947407
20
27.0309993
11
204.0001564
21
21.3940508
0
LINE
8
0
10
204.0001564
20
21.3940508
11
198.3632079
21
38.4886351
0
LINE
8
0
10
192.4130956
20
56.5329185
11
209.5076799
21
62.169867
0
LINE
8
0
10
209.5076799
20
62.169867
11
215.1446284
21
45.0752827
0
LINE
8
0
10
215.1446284
20
45.0752827
11
198.0500441
21
39.4383342
0
LINE
8
0
10
198.0500441
20
39.4383342
11
192.4130956
21
56.5329185
0
LINE
8
0
10
188.1480197
20
8.7960447
11
205.242604
21
14.4329932
0
LINE
8
0
10
205.242604
20
14.4329932
11
210.8795525
21
-2.6615911
0
LINE
8
0
10
210.8795525
20
-2.6615911
11
193.7849682
21
-8.2985396
0
LINE
8
0
10
193.7849682
20
-8.2985396
11
188.1480197
21
8.7960447
0
LINE
8
0
10
182.1979074
20
26.840328
11
199.2924917
21
32.4772765
0
LINE
8
0
10
199.2924917
20
32.4772765
11
204.9294402
21
15.3826922
0
LINE
8
0
10
204.9294402
20
15.3826922
11
187.8348559
21
9.7457437
0
LINE
8
0
10
187.8348559
20
9.7457437
11
182.1979074
21
26.840328
0
LINE
8
0
10
176.247795
20
44.8846114
11
193.3423793
21
50.5215599
0
LINE
8
0
10
193.3423793
20
50.5215599
11
198.9793278
21
33.4269756
0
LINE
8
0
10
198.9793278
20
33.4269756
11
181.8847435
21
27.7900271
0
LINE
8
0
10
181.8847435
20
27.7900271
11
176.247795
21
44.8846114
0
LINE
8
0
10
170.758981
20
-0.6058544
11
187.5351227
21
5.9180303
0
LINE
8
0
10
187.5351227
20
5.9180303
11
194.0590074
21
-10.8581114
0
LINE
8
0
10
194.0590074
20
-10.8581114
11
177.2828657
21
-17.3819961
0
LINE
8
0
10
177.2828657
20
-17.3819961
11
170.758981
21
-0.6058544
0
LINE
8
0
10
163.8726582
20
17.1022951
11
180.6487999
21
23.6261798
0
LINE
8
0
10
180.6487999
20
23.6261798
11
187.1726846
21
6.8500381
0
LINE
8
0
10
187.1726846
20
6.8500381
11
170.3965429
21
0.3261534
0
LINE
8
0
10
170.3965429
20
0.3261534
11
163.8726582
21
17.1022951
0
LINE
8
0
10
156.9863355
20
34.8104446
11
173.7624772
21
41.3343293
0
LINE
8
0
10
173.7624772
20
41.3343293
11
180.2863619
21
24.5581876
0
LINE
8
0
10
180.2863619
20
24.5581876
11
163.5102202
21
18.0343029
0
LINE
8
0
10
163.5102202
20
18.0343029
11
156.9863355
21
34.8104446
0
LINE
8
0
10
178.3701798
20
-20.1780197
11
195.1463215
21
-13.654135
0
LINE
8
0
10
195.1463215
20
-13.654135
11
201.6702062
21
-30.4302767
0
LINE
8
0
10
201.6702062
20
-30.4302767
11
184.8940645
21
-36.9541614
0
LINE
8
0
10
184.8940645
20
-36.9541614
11
178.3701798
21
-20.1780197
0
LINE
8
0
10
157.1921618
20
-37.19308
11
170.7252783
21
-25.3248553
0
LINE
8
0
10
170.7252783
20
-25.3248553
11
182.593503
21
-38.8579718
0
LINE
8
0
10
182.593503
20
-38.8579718
11
169.0603865
21
-50.7261965
0
LINE
8
0
10
169.0603865
20
-50.7261965
11
157.1921618
21
-37.19308
0
ENDSEC
0
EOF