%TF.GenerationSoftware,KiCad,Pcbnew,8.0.2-1*%
%TF.CreationDate,2024-07-02T10:22:07-04:00*%
%TF.ProjectId,thesplit,74686573-706c-4697-942e-6b696361645f,rev?*%
%TF.SameCoordinates,Original*%
%TF.FileFunction,Paste,Bot*%
%TF.FilePolarity,Positive*%
%FSLAX46Y46*%
G04 Gerber Fmt 4.6, Leading zero omitted, Abs format (unit mm)*
G04 Created by KiCad (PCBNEW 8.0.2-1) date 2024-07-02 10:22:07*
%MOMM*%
%LPD*%
G01*
G04 APERTURE LIST*
G04 Aperture macros list*
%AMRotRect*
0 Rectangle, with rotation*
0 The origin of the aperture is its center*
0 $1 length*
0 $2 width*
0 $3 Rotation angle, in degrees counterclockwise*
0 Add horizontal line*
21,1,$1,$2,0,0,$3*%
G04 Aperture macros list end*
%ADD10RotRect,2.550000X2.500000X351.500000*%
%ADD11RotRect,2.550000X2.500000X346.750000*%
%ADD12RotRect,2.550000X2.500000X344.750000*%
%ADD13RotRect,2.550000X2.500000X341.750000*%
%ADD14RotRect,2.550000X2.500000X338.750000*%
%ADD15RotRect,2.550000X2.500000X318.750000*%
%ADD16RotRect,2.550000X2.500000X8.500000*%
%ADD17RotRect,2.550000X2.500000X13.250000*%
%ADD18RotRect,2.550000X2.500000X15.250000*%
%ADD19RotRect,2.550000X2.500000X18.250000*%
%ADD20RotRect,2.550000X2.500000X21.250000*%
%ADD21RotRect,2.550000X2.500000X41.250000*%
%ADD22RotRect,0.900000X1.200000X351.500000*%
%ADD23RotRect,0.900000X1.200000X346.750000*%
%ADD24RotRect,0.900000X1.200000X344.750000*%
%ADD25RotRect,0.900000X1.200000X341.750000*%
%ADD26RotRect,0.900000X1.200000X338.750000*%
%ADD27RotRect,0.900000X1.200000X318.750000*%
%ADD28RotRect,0.900000X1.200000X8.500000*%
%ADD29RotRect,0.900000X1.200000X13.250000*%
%ADD30RotRect,0.900000X1.200000X15.250000*%
%ADD31RotRect,0.900000X1.200000X18.250000*%
%ADD32RotRect,0.900000X1.200000X21.250000*%
%ADD33RotRect,0.900000X1.200000X41.250000*%
G04 APERTURE END LIST*
D10*
%TO.C,S1*%
X217442743Y-201947851D03*
X204282298Y-202549221D03*
%TD*%
%TO.C,S2*%
X220251109Y-183156549D03*
X207090664Y-183757919D03*
%TD*%
D11*
%TO.C,S3*%
X235872041Y-215351516D03*
X222706999Y-214861021D03*
%TD*%
%TO.C,S4*%
X240226856Y-196857305D03*
X227061814Y-196366810D03*
%TD*%
%TO.C,S5*%
X244581650Y-178363103D03*
X231416608Y-177872608D03*
%TD*%
D12*
%TO.C,S6*%
X258293703Y-206646173D03*
X245153795Y-205696524D03*
%TD*%
%TO.C,S7*%
X263291309Y-188315210D03*
X250151401Y-187365561D03*
%TD*%
%TO.C,S8*%
X268288901Y-169984243D03*
X255148993Y-169034594D03*
%TD*%
D13*
%TO.C,S9*%
X278106356Y-207189335D03*
X265034166Y-205553311D03*
%TD*%
%TO.C,S10*%
X284056462Y-189145051D03*
X270984272Y-187509027D03*
%TD*%
%TO.C,S11*%
X290006579Y-171100766D03*
X276934389Y-169464742D03*
%TD*%
%TO.C,S12*%
X294271660Y-218837632D03*
X281199470Y-217201608D03*
%TD*%
%TO.C,S13*%
X300221763Y-200793367D03*
X287149573Y-199157343D03*
%TD*%
%TO.C,S14*%
X306171869Y-182749080D03*
X293099679Y-181113056D03*
%TD*%
D14*
%TO.C,S15*%
X311523407Y-228014577D03*
X298554750Y-225696639D03*
%TD*%
%TO.C,S16*%
X318409728Y-210306458D03*
X305441071Y-207988520D03*
%TD*%
%TO.C,S18*%
X303912214Y-247586756D03*
X290943557Y-245268818D03*
%TD*%
D15*
%TO.C,S19*%
X324495318Y-262957910D03*
X313101548Y-256344218D03*
%TD*%
D16*
%TO.C,S20*%
X478587794Y-200220840D03*
X466178224Y-204643674D03*
%TD*%
%TO.C,S21*%
X475779423Y-181429546D03*
X463369853Y-185852380D03*
%TD*%
D17*
%TO.C,S22*%
X459975785Y-212673521D03*
X447975082Y-218108783D03*
%TD*%
%TO.C,S23*%
X455620978Y-194179326D03*
X443620275Y-199614588D03*
%TD*%
%TO.C,S24*%
X451266162Y-175685112D03*
X439265459Y-181120374D03*
%TD*%
D18*
%TO.C,S25*%
X437453713Y-203572908D03*
X425650007Y-209423668D03*
%TD*%
%TO.C,S26*%
X432456139Y-185241955D03*
X420652433Y-191092715D03*
%TD*%
%TO.C,S27*%
X427458546Y-166910991D03*
X415654840Y-172761751D03*
%TD*%
D19*
%TO.C,S28*%
X417464805Y-203530339D03*
X405983474Y-209990850D03*
%TD*%
%TO.C,S29*%
X411514679Y-185486038D03*
X400033348Y-191946549D03*
%TD*%
%TO.C,S30*%
X405564571Y-167441763D03*
X394083240Y-173902274D03*
%TD*%
%TO.C,S31*%
X401299505Y-215178648D03*
X389818174Y-221639159D03*
%TD*%
%TO.C,S32*%
X395349373Y-197134351D03*
X383868042Y-203594862D03*
%TD*%
%TO.C,S33*%
X389399275Y-179090074D03*
X377917944Y-185550585D03*
%TD*%
D20*
%TO.C,S34*%
X383841023Y-223779853D03*
X372713550Y-230832392D03*
%TD*%
%TO.C,S35*%
X376954721Y-206071712D03*
X365827248Y-213124251D03*
%TD*%
%TO.C,S36*%
X370068378Y-188363564D03*
X358940905Y-195416103D03*
%TD*%
%TO.C,S37*%
X391452215Y-243352025D03*
X380324742Y-250404564D03*
%TD*%
D21*
%TO.C,S38*%
X368764047Y-255254105D03*
X360719750Y-265687147D03*
%TD*%
D22*
%TO.C,D1*%
X208543115Y-210809744D03*
X211806871Y-211297514D03*
%TD*%
%TO.C,D2*%
X211351468Y-192018436D03*
X214615224Y-192506206D03*
%TD*%
D23*
%TO.C,D3*%
X226269152Y-223445986D03*
X229481306Y-224202354D03*
%TD*%
%TO.C,D4*%
X230623950Y-204951791D03*
X233836104Y-205708159D03*
%TD*%
%TO.C,D5*%
X234978757Y-186457582D03*
X238190911Y-187213950D03*
%TD*%
D24*
%TO.C,D6*%
X248414163Y-214400596D03*
X251597957Y-215268600D03*
%TD*%
%TO.C,D7*%
X253411742Y-196069637D03*
X256595536Y-196937641D03*
%TD*%
%TO.C,D8*%
X258409370Y-177738669D03*
X261593164Y-178606673D03*
%TD*%
D25*
%TO.C,D9*%
X267834528Y-214416090D03*
X270968522Y-215449530D03*
%TD*%
%TO.C,D10*%
X273784650Y-196371790D03*
X276918644Y-197405230D03*
%TD*%
%TO.C,D11*%
X279734741Y-178327521D03*
X282868735Y-179360961D03*
%TD*%
%TO.C,D12*%
X283999833Y-226064396D03*
X287133827Y-227097836D03*
%TD*%
%TO.C,D13*%
X289949939Y-208020114D03*
X293083933Y-209053554D03*
%TD*%
%TO.C,D14*%
X295900050Y-189975823D03*
X299034044Y-191009263D03*
%TD*%
D26*
%TO.C,D15*%
X300887418Y-234693845D03*
X303963046Y-235889893D03*
%TD*%
%TO.C,D16*%
X307773763Y-216985694D03*
X310849391Y-218181742D03*
%TD*%
%TO.C,D17*%
X314660058Y-199277543D03*
X317735686Y-200473591D03*
%TD*%
%TO.C,D18*%
X293276235Y-254266008D03*
X296351863Y-255462056D03*
%TD*%
D27*
%TO.C,D19*%
X312216318Y-265596658D03*
X314697384Y-267772496D03*
%TD*%
D28*
%TO.C,D20*%
X472668000Y-211297504D03*
X475931754Y-210809736D03*
%TD*%
%TO.C,D21*%
X469859625Y-192506212D03*
X473123379Y-192018444D03*
%TD*%
D29*
%TO.C,D22*%
X454993537Y-224202364D03*
X458205697Y-223445998D03*
%TD*%
%TO.C,D23*%
X450638745Y-205708140D03*
X453850905Y-204951774D03*
%TD*%
%TO.C,D24*%
X446283933Y-187213951D03*
X449496093Y-186457585D03*
%TD*%
D30*
%TO.C,D25*%
X432876908Y-215268591D03*
X436060702Y-214400587D03*
%TD*%
%TO.C,D26*%
X427879303Y-196937629D03*
X431063097Y-196069625D03*
%TD*%
%TO.C,D27*%
X422881715Y-178606684D03*
X426065509Y-177738680D03*
%TD*%
D31*
%TO.C,D28*%
X413506350Y-215449516D03*
X416640346Y-214416080D03*
%TD*%
%TO.C,D29*%
X407556236Y-197405241D03*
X410690232Y-196371805D03*
%TD*%
%TO.C,D30*%
X401606116Y-179360964D03*
X404740112Y-178327528D03*
%TD*%
%TO.C,D31*%
X397341034Y-227097819D03*
X400475030Y-226064383D03*
%TD*%
%TO.C,D32*%
X391390925Y-209053548D03*
X394524921Y-208020112D03*
%TD*%
%TO.C,D33*%
X385440824Y-191009261D03*
X388574820Y-189975825D03*
%TD*%
D32*
%TO.C,D34*%
X380511804Y-235889875D03*
X383587434Y-234693827D03*
%TD*%
%TO.C,D35*%
X373625482Y-218181749D03*
X376701112Y-216985701D03*
%TD*%
%TO.C,D36*%
X366739160Y-200473584D03*
X369814790Y-199277536D03*
%TD*%
%TO.C,D37*%
X388123013Y-255462048D03*
X391198643Y-254266000D03*
%TD*%
D33*
%TO.C,D38*%
X369777460Y-267772485D03*
X372258526Y-265596651D03*
%TD*%
D14*
%TO.C,S17*%
X325296065Y-192598277D03*
X312327408Y-190280339D03*
%TD*%
M02*
