%TF.GenerationSoftware,KiCad,Pcbnew,8.0.2-1*%
%TF.CreationDate,2024-07-02T10:22:07-04:00*%
%TF.ProjectId,thesplit,74686573-706c-4697-942e-6b696361645f,rev?*%
%TF.SameCoordinates,Original*%
%TF.FileFunction,Profile,NP*%
%FSLAX46Y46*%
G04 Gerber Fmt 4.6, Leading zero omitted, Abs format (unit mm)*
G04 Created by KiCad (PCBNEW 8.0.2-1) date 2024-07-02 10:22:07*
%MOMM*%
%LPD*%
G01*
G04 APERTURE LIST*
%TA.AperFunction,Profile*%
%ADD10C,0.150000*%
%TD*%
G04 APERTURE END LIST*
D10*
X276680264Y-158838347D02*
G75*
G02*
X276993806Y-158894870I-18364J-999753D01*
G01*
X254352760Y-158474132D02*
G75*
G02*
X254654202Y-158433408I283040J-959068D01*
G01*
X349228623Y-179392266D02*
G75*
G02*
X348896701Y-179448962I-331923J943266D01*
G01*
X335578156Y-179448972D02*
G75*
G02*
X335246235Y-179392268I44J1000072D01*
G01*
X407481063Y-158894875D02*
G75*
G02*
X407794605Y-158838347I331937J-943325D01*
G01*
X429820682Y-158433423D02*
G75*
G02*
X430122127Y-158474139I18418J-999877D01*
G01*
X484165766Y-174424026D02*
G75*
G02*
X484871695Y-175235323I-283066J-959074D01*
G01*
X491354674Y-218613758D02*
G75*
G02*
X490782116Y-219670734I-988974J-147842D01*
G01*
X383648973Y-268805682D02*
G75*
G02*
X383924616Y-268618323I692127J-721818D01*
G01*
X370501781Y-281411792D02*
G75*
G02*
X369809683Y-281689980I-692081J721792D01*
G01*
X314665179Y-281689977D02*
G75*
G02*
X313973096Y-281411766I21J999977D01*
G01*
X300550266Y-268618334D02*
G75*
G02*
X300825910Y-268805689I-416466J-909166D01*
G01*
X193692751Y-219670728D02*
G75*
G02*
X193120216Y-218613766I416449J909128D01*
G01*
X199603137Y-175235343D02*
G75*
G02*
X200309095Y-174424055I989063J-147857D01*
G01*
X369809683Y-281689988D02*
X314665179Y-281689977D01*
X313973081Y-281411781D02*
X300825911Y-268805688D01*
X300550266Y-268618334D02*
X193692751Y-219670728D01*
X193120187Y-218613762D02*
X199603137Y-175235343D01*
X200309093Y-174424050D02*
X254352760Y-158474132D01*
X254654202Y-158433404D02*
X276680264Y-158838347D01*
X276993805Y-158894872D02*
X335246232Y-179392278D01*
X335578156Y-179448972D02*
X348896701Y-179448959D01*
X349228623Y-179392266D02*
X407481063Y-158894875D01*
X407794605Y-158838350D02*
X429820682Y-158433423D01*
X430122123Y-158474152D02*
X484165766Y-174424026D01*
X484871723Y-175235319D02*
X491354674Y-218613758D01*
X490782111Y-219670724D02*
X383924618Y-268618328D01*
X383648973Y-268805682D02*
X370501781Y-281411792D01*
M02*
