%TF.GenerationSoftware,KiCad,Pcbnew,8.0.2-1*%
%TF.CreationDate,2024-07-02T10:22:07-04:00*%
%TF.ProjectId,thesplit,74686573-706c-4697-942e-6b696361645f,rev?*%
%TF.SameCoordinates,Original*%
%TF.FileFunction,Copper,L2,Bot*%
%TF.FilePolarity,Positive*%
%FSLAX46Y46*%
G04 Gerber Fmt 4.6, Leading zero omitted, Abs format (unit mm)*
G04 Created by KiCad (PCBNEW 8.0.2-1) date 2024-07-02 10:22:07*
%MOMM*%
%LPD*%
G01*
G04 APERTURE LIST*
G04 Aperture macros list*
%AMRotRect*
0 Rectangle, with rotation*
0 The origin of the aperture is its center*
0 $1 length*
0 $2 width*
0 $3 Rotation angle, in degrees counterclockwise*
0 Add horizontal line*
21,1,$1,$2,0,0,$3*%
G04 Aperture macros list end*
%TA.AperFunction,SMDPad,CuDef*%
%ADD10RotRect,2.550000X2.500000X351.500000*%
%TD*%
%TA.AperFunction,SMDPad,CuDef*%
%ADD11RotRect,2.550000X2.500000X346.750000*%
%TD*%
%TA.AperFunction,SMDPad,CuDef*%
%ADD12RotRect,2.550000X2.500000X344.750000*%
%TD*%
%TA.AperFunction,SMDPad,CuDef*%
%ADD13RotRect,2.550000X2.500000X341.750000*%
%TD*%
%TA.AperFunction,SMDPad,CuDef*%
%ADD14RotRect,2.550000X2.500000X338.750000*%
%TD*%
%TA.AperFunction,SMDPad,CuDef*%
%ADD15RotRect,2.550000X2.500000X318.750000*%
%TD*%
%TA.AperFunction,SMDPad,CuDef*%
%ADD16RotRect,2.550000X2.500000X8.500000*%
%TD*%
%TA.AperFunction,SMDPad,CuDef*%
%ADD17RotRect,2.550000X2.500000X13.250000*%
%TD*%
%TA.AperFunction,SMDPad,CuDef*%
%ADD18RotRect,2.550000X2.500000X15.250000*%
%TD*%
%TA.AperFunction,SMDPad,CuDef*%
%ADD19RotRect,2.550000X2.500000X18.250000*%
%TD*%
%TA.AperFunction,SMDPad,CuDef*%
%ADD20RotRect,2.550000X2.500000X21.250000*%
%TD*%
%TA.AperFunction,SMDPad,CuDef*%
%ADD21RotRect,2.550000X2.500000X41.250000*%
%TD*%
%TA.AperFunction,ComponentPad*%
%ADD22C,1.905000*%
%TD*%
%TA.AperFunction,ComponentPad*%
%ADD23RotRect,1.778000X1.778000X351.500000*%
%TD*%
%TA.AperFunction,SMDPad,CuDef*%
%ADD24RotRect,0.900000X1.200000X351.500000*%
%TD*%
%TA.AperFunction,ComponentPad*%
%ADD25RotRect,1.778000X1.778000X346.750000*%
%TD*%
%TA.AperFunction,SMDPad,CuDef*%
%ADD26RotRect,0.900000X1.200000X346.750000*%
%TD*%
%TA.AperFunction,ComponentPad*%
%ADD27RotRect,1.778000X1.778000X344.750000*%
%TD*%
%TA.AperFunction,SMDPad,CuDef*%
%ADD28RotRect,0.900000X1.200000X344.750000*%
%TD*%
%TA.AperFunction,ComponentPad*%
%ADD29RotRect,1.778000X1.778000X341.750000*%
%TD*%
%TA.AperFunction,SMDPad,CuDef*%
%ADD30RotRect,0.900000X1.200000X341.750000*%
%TD*%
%TA.AperFunction,ComponentPad*%
%ADD31RotRect,1.778000X1.778000X338.750000*%
%TD*%
%TA.AperFunction,SMDPad,CuDef*%
%ADD32RotRect,0.900000X1.200000X338.750000*%
%TD*%
%TA.AperFunction,ComponentPad*%
%ADD33RotRect,1.778000X1.778000X318.750000*%
%TD*%
%TA.AperFunction,SMDPad,CuDef*%
%ADD34RotRect,0.900000X1.200000X318.750000*%
%TD*%
%TA.AperFunction,ComponentPad*%
%ADD35RotRect,1.778000X1.778000X8.500000*%
%TD*%
%TA.AperFunction,SMDPad,CuDef*%
%ADD36RotRect,0.900000X1.200000X8.500000*%
%TD*%
%TA.AperFunction,ComponentPad*%
%ADD37RotRect,1.778000X1.778000X13.250000*%
%TD*%
%TA.AperFunction,SMDPad,CuDef*%
%ADD38RotRect,0.900000X1.200000X13.250000*%
%TD*%
%TA.AperFunction,ComponentPad*%
%ADD39RotRect,1.778000X1.778000X15.250000*%
%TD*%
%TA.AperFunction,SMDPad,CuDef*%
%ADD40RotRect,0.900000X1.200000X15.250000*%
%TD*%
%TA.AperFunction,ComponentPad*%
%ADD41RotRect,1.778000X1.778000X18.250000*%
%TD*%
%TA.AperFunction,SMDPad,CuDef*%
%ADD42RotRect,0.900000X1.200000X18.250000*%
%TD*%
%TA.AperFunction,ComponentPad*%
%ADD43RotRect,1.778000X1.778000X21.250000*%
%TD*%
%TA.AperFunction,SMDPad,CuDef*%
%ADD44RotRect,0.900000X1.200000X21.250000*%
%TD*%
%TA.AperFunction,ComponentPad*%
%ADD45RotRect,1.778000X1.778000X41.250000*%
%TD*%
%TA.AperFunction,SMDPad,CuDef*%
%ADD46RotRect,0.900000X1.200000X41.250000*%
%TD*%
%TA.AperFunction,ComponentPad*%
%ADD47C,0.700000*%
%TD*%
%TA.AperFunction,ComponentPad*%
%ADD48C,4.400000*%
%TD*%
%TA.AperFunction,ComponentPad*%
%ADD49C,1.752600*%
%TD*%
%TA.AperFunction,ComponentPad*%
%ADD50R,1.752600X1.752600*%
%TD*%
%TA.AperFunction,ViaPad*%
%ADD51C,0.800000*%
%TD*%
%TA.AperFunction,Conductor*%
%ADD52C,0.250000*%
%TD*%
G04 APERTURE END LIST*
D10*
%TO.P,S1,2*%
%TO.N,outer_home*%
X217442743Y-201947851D03*
%TO.P,S1,1*%
%TO.N,P20*%
X204282298Y-202549221D03*
%TD*%
%TO.P,S2,2*%
%TO.N,outer_top*%
X220251109Y-183156549D03*
%TO.P,S2,1*%
%TO.N,P20*%
X207090664Y-183757919D03*
%TD*%
D11*
%TO.P,S3,2*%
%TO.N,pinky_bottom*%
X235872041Y-215351516D03*
%TO.P,S3,1*%
%TO.N,P19*%
X222706999Y-214861021D03*
%TD*%
%TO.P,S4,2*%
%TO.N,pinky_home*%
X240226856Y-196857305D03*
%TO.P,S4,1*%
%TO.N,P19*%
X227061814Y-196366810D03*
%TD*%
%TO.P,S5,2*%
%TO.N,pinky_top*%
X244581650Y-178363103D03*
%TO.P,S5,1*%
%TO.N,P19*%
X231416608Y-177872608D03*
%TD*%
D12*
%TO.P,S6,2*%
%TO.N,ring_bottom*%
X258293703Y-206646173D03*
%TO.P,S6,1*%
%TO.N,P18*%
X245153795Y-205696524D03*
%TD*%
%TO.P,S7,2*%
%TO.N,ring_home*%
X263291309Y-188315210D03*
%TO.P,S7,1*%
%TO.N,P18*%
X250151401Y-187365561D03*
%TD*%
%TO.P,S8,2*%
%TO.N,ring_top*%
X268288901Y-169984243D03*
%TO.P,S8,1*%
%TO.N,P18*%
X255148993Y-169034594D03*
%TD*%
D13*
%TO.P,S9,2*%
%TO.N,middle_bottom*%
X278106356Y-207189335D03*
%TO.P,S9,1*%
%TO.N,P14*%
X265034166Y-205553311D03*
%TD*%
%TO.P,S10,2*%
%TO.N,middle_home*%
X284056462Y-189145051D03*
%TO.P,S10,1*%
%TO.N,P14*%
X270984272Y-187509027D03*
%TD*%
%TO.P,S11,2*%
%TO.N,middle_top*%
X290006579Y-171100766D03*
%TO.P,S11,1*%
%TO.N,P14*%
X276934389Y-169464742D03*
%TD*%
%TO.P,S12,2*%
%TO.N,index_bottom*%
X294271660Y-218837632D03*
%TO.P,S12,1*%
%TO.N,P4*%
X281199470Y-217201608D03*
%TD*%
%TO.P,S13,2*%
%TO.N,index_home*%
X300221763Y-200793367D03*
%TO.P,S13,1*%
%TO.N,P4*%
X287149573Y-199157343D03*
%TD*%
%TO.P,S14,2*%
%TO.N,index_top*%
X306171869Y-182749080D03*
%TO.P,S14,1*%
%TO.N,P4*%
X293099679Y-181113056D03*
%TD*%
D14*
%TO.P,S15,2*%
%TO.N,inner_bottom*%
X311523407Y-228014577D03*
%TO.P,S15,1*%
%TO.N,P3*%
X298554750Y-225696639D03*
%TD*%
%TO.P,S16,2*%
%TO.N,inner_home*%
X318409728Y-210306458D03*
%TO.P,S16,1*%
%TO.N,P3*%
X305441071Y-207988520D03*
%TD*%
%TO.P,S18,2*%
%TO.N,near_thumb*%
X303912214Y-247586756D03*
%TO.P,S18,1*%
%TO.N,P4*%
X290943557Y-245268818D03*
%TD*%
D15*
%TO.P,S19,2*%
%TO.N,home_thumb*%
X324495318Y-262957910D03*
%TO.P,S19,1*%
%TO.N,P3*%
X313101548Y-256344218D03*
%TD*%
D16*
%TO.P,S20,2*%
%TO.N,mirror_outer_home*%
X478587794Y-200220840D03*
%TO.P,S20,1*%
%TO.N,P20*%
X466178224Y-204643674D03*
%TD*%
%TO.P,S21,2*%
%TO.N,mirror_outer_top*%
X475779423Y-181429546D03*
%TO.P,S21,1*%
%TO.N,P20*%
X463369853Y-185852380D03*
%TD*%
D17*
%TO.P,S22,2*%
%TO.N,mirror_pinky_bottom*%
X459975785Y-212673521D03*
%TO.P,S22,1*%
%TO.N,P19*%
X447975082Y-218108783D03*
%TD*%
%TO.P,S23,2*%
%TO.N,mirror_pinky_home*%
X455620978Y-194179326D03*
%TO.P,S23,1*%
%TO.N,P19*%
X443620275Y-199614588D03*
%TD*%
%TO.P,S24,2*%
%TO.N,mirror_pinky_top*%
X451266162Y-175685112D03*
%TO.P,S24,1*%
%TO.N,P19*%
X439265459Y-181120374D03*
%TD*%
D18*
%TO.P,S25,2*%
%TO.N,mirror_ring_bottom*%
X437453713Y-203572908D03*
%TO.P,S25,1*%
%TO.N,P18*%
X425650007Y-209423668D03*
%TD*%
%TO.P,S26,2*%
%TO.N,mirror_ring_home*%
X432456139Y-185241955D03*
%TO.P,S26,1*%
%TO.N,P18*%
X420652433Y-191092715D03*
%TD*%
%TO.P,S27,2*%
%TO.N,mirror_ring_top*%
X427458546Y-166910991D03*
%TO.P,S27,1*%
%TO.N,P18*%
X415654840Y-172761751D03*
%TD*%
D19*
%TO.P,S28,2*%
%TO.N,mirror_middle_bottom*%
X417464805Y-203530339D03*
%TO.P,S28,1*%
%TO.N,P14*%
X405983474Y-209990850D03*
%TD*%
%TO.P,S29,2*%
%TO.N,mirror_middle_home*%
X411514679Y-185486038D03*
%TO.P,S29,1*%
%TO.N,P14*%
X400033348Y-191946549D03*
%TD*%
%TO.P,S30,2*%
%TO.N,mirror_middle_top*%
X405564571Y-167441763D03*
%TO.P,S30,1*%
%TO.N,P14*%
X394083240Y-173902274D03*
%TD*%
%TO.P,S31,2*%
%TO.N,mirror_index_bottom*%
X401299505Y-215178648D03*
%TO.P,S31,1*%
%TO.N,P4*%
X389818174Y-221639159D03*
%TD*%
%TO.P,S32,2*%
%TO.N,mirror_index_home*%
X395349373Y-197134351D03*
%TO.P,S32,1*%
%TO.N,P4*%
X383868042Y-203594862D03*
%TD*%
%TO.P,S33,2*%
%TO.N,mirror_index_top*%
X389399275Y-179090074D03*
%TO.P,S33,1*%
%TO.N,P4*%
X377917944Y-185550585D03*
%TD*%
D20*
%TO.P,S34,2*%
%TO.N,mirror_inner_bottom*%
X383841023Y-223779853D03*
%TO.P,S34,1*%
%TO.N,P3*%
X372713550Y-230832392D03*
%TD*%
%TO.P,S35,2*%
%TO.N,mirror_inner_home*%
X376954721Y-206071712D03*
%TO.P,S35,1*%
%TO.N,P3*%
X365827248Y-213124251D03*
%TD*%
%TO.P,S36,2*%
%TO.N,mirror_inner_top*%
X370068378Y-188363564D03*
%TO.P,S36,1*%
%TO.N,P3*%
X358940905Y-195416103D03*
%TD*%
%TO.P,S37,2*%
%TO.N,mirror_near_thumb*%
X391452215Y-243352025D03*
%TO.P,S37,1*%
%TO.N,P4*%
X380324742Y-250404564D03*
%TD*%
D21*
%TO.P,S38,2*%
%TO.N,mirror_home_thumb*%
X368764047Y-255254105D03*
%TO.P,S38,1*%
%TO.N,P3*%
X360719750Y-265687147D03*
%TD*%
D22*
%TO.P,D1,2*%
%TO.N,outer_home*%
X213943144Y-211616778D03*
D23*
%TO.P,D1,1*%
%TO.N,P15*%
X206406842Y-210490480D03*
D24*
X208543115Y-210809744D03*
%TO.P,D1,2*%
%TO.N,outer_home*%
X211806871Y-211297514D03*
%TD*%
D22*
%TO.P,D2,2*%
%TO.N,outer_top*%
X216751497Y-192825470D03*
D23*
%TO.P,D2,1*%
%TO.N,P21*%
X209215195Y-191699172D03*
D24*
X211351468Y-192018436D03*
%TO.P,D2,2*%
%TO.N,outer_top*%
X214615224Y-192506206D03*
%TD*%
D22*
%TO.P,D3,2*%
%TO.N,pinky_bottom*%
X231583801Y-224697417D03*
D25*
%TO.P,D3,1*%
%TO.N,P16*%
X224166657Y-222950923D03*
D26*
X226269152Y-223445986D03*
%TO.P,D3,2*%
%TO.N,pinky_bottom*%
X229481306Y-224202354D03*
%TD*%
D22*
%TO.P,D4,2*%
%TO.N,pinky_home*%
X235938599Y-206203222D03*
D25*
%TO.P,D4,1*%
%TO.N,P15*%
X228521455Y-204456728D03*
D26*
X230623950Y-204951791D03*
%TO.P,D4,2*%
%TO.N,pinky_home*%
X233836104Y-205708159D03*
%TD*%
D22*
%TO.P,D5,2*%
%TO.N,pinky_top*%
X240293406Y-187709013D03*
D25*
%TO.P,D5,1*%
%TO.N,P21*%
X232876262Y-185962519D03*
D26*
X234978757Y-186457582D03*
%TO.P,D5,2*%
%TO.N,pinky_top*%
X238190911Y-187213950D03*
%TD*%
D22*
%TO.P,D6,2*%
%TO.N,ring_bottom*%
X253681900Y-215836750D03*
D27*
%TO.P,D6,1*%
%TO.N,P16*%
X246330220Y-213832446D03*
D28*
X248414163Y-214400596D03*
%TO.P,D6,2*%
%TO.N,ring_bottom*%
X251597957Y-215268600D03*
%TD*%
D22*
%TO.P,D7,2*%
%TO.N,ring_home*%
X258679479Y-197505791D03*
D27*
%TO.P,D7,1*%
%TO.N,P15*%
X251327799Y-195501487D03*
D28*
X253411742Y-196069637D03*
%TO.P,D7,2*%
%TO.N,ring_home*%
X256595536Y-196937641D03*
%TD*%
D22*
%TO.P,D8,2*%
%TO.N,ring_top*%
X263677107Y-179174823D03*
D27*
%TO.P,D8,1*%
%TO.N,P21*%
X256325427Y-177170519D03*
D28*
X258409370Y-177738669D03*
%TO.P,D8,2*%
%TO.N,ring_top*%
X261593164Y-178606673D03*
%TD*%
D22*
%TO.P,D9,2*%
%TO.N,middle_bottom*%
X273019881Y-216125958D03*
D29*
%TO.P,D9,1*%
%TO.N,P16*%
X265783169Y-213739662D03*
D30*
X267834528Y-214416090D03*
%TO.P,D9,2*%
%TO.N,middle_bottom*%
X270968522Y-215449530D03*
%TD*%
D22*
%TO.P,D10,2*%
%TO.N,middle_home*%
X278970003Y-198081658D03*
D29*
%TO.P,D10,1*%
%TO.N,P15*%
X271733291Y-195695362D03*
D30*
X273784650Y-196371790D03*
%TO.P,D10,2*%
%TO.N,middle_home*%
X276918644Y-197405230D03*
%TD*%
D22*
%TO.P,D11,2*%
%TO.N,middle_top*%
X284920094Y-180037389D03*
D29*
%TO.P,D11,1*%
%TO.N,P21*%
X277683382Y-177651093D03*
D30*
X279734741Y-178327521D03*
%TO.P,D11,2*%
%TO.N,middle_top*%
X282868735Y-179360961D03*
%TD*%
D22*
%TO.P,D12,2*%
%TO.N,index_bottom*%
X289185186Y-227774264D03*
D29*
%TO.P,D12,1*%
%TO.N,P16*%
X281948474Y-225387968D03*
D30*
X283999833Y-226064396D03*
%TO.P,D12,2*%
%TO.N,index_bottom*%
X287133827Y-227097836D03*
%TD*%
D22*
%TO.P,D13,2*%
%TO.N,index_home*%
X295135292Y-209729982D03*
D29*
%TO.P,D13,1*%
%TO.N,P15*%
X287898580Y-207343686D03*
D30*
X289949939Y-208020114D03*
%TO.P,D13,2*%
%TO.N,index_home*%
X293083933Y-209053554D03*
%TD*%
D22*
%TO.P,D14,2*%
%TO.N,index_top*%
X301085403Y-191685691D03*
D29*
%TO.P,D14,1*%
%TO.N,P21*%
X293848691Y-189299395D03*
D30*
X295900050Y-189975823D03*
%TO.P,D14,2*%
%TO.N,index_top*%
X299034044Y-191009263D03*
%TD*%
D22*
%TO.P,D15,2*%
%TO.N,inner_bottom*%
X305976178Y-236672759D03*
D31*
%TO.P,D15,1*%
%TO.N,P16*%
X298874286Y-233910979D03*
D32*
X300887418Y-234693845D03*
%TO.P,D15,2*%
%TO.N,inner_bottom*%
X303963046Y-235889893D03*
%TD*%
D22*
%TO.P,D16,2*%
%TO.N,inner_home*%
X312862523Y-218964608D03*
D31*
%TO.P,D16,1*%
%TO.N,P15*%
X305760631Y-216202828D03*
D32*
X307773763Y-216985694D03*
%TO.P,D16,2*%
%TO.N,inner_home*%
X310849391Y-218181742D03*
%TD*%
D22*
%TO.P,D17,2*%
%TO.N,inner_top*%
X319748818Y-201256457D03*
D31*
%TO.P,D17,1*%
%TO.N,P21*%
X312646926Y-198494677D03*
D32*
X314660058Y-199277543D03*
%TO.P,D17,2*%
%TO.N,inner_top*%
X317735686Y-200473591D03*
%TD*%
D22*
%TO.P,D18,2*%
%TO.N,near_thumb*%
X298364995Y-256244922D03*
D31*
%TO.P,D18,1*%
%TO.N,P10*%
X291263103Y-253483142D03*
D32*
X293276235Y-254266008D03*
%TO.P,D18,2*%
%TO.N,near_thumb*%
X296351863Y-255462056D03*
%TD*%
D22*
%TO.P,D19,2*%
%TO.N,home_thumb*%
X316321361Y-269196685D03*
D33*
%TO.P,D19,1*%
%TO.N,P10*%
X310592341Y-264172469D03*
D34*
X312216318Y-265596658D03*
%TO.P,D19,2*%
%TO.N,home_thumb*%
X314697384Y-267772496D03*
%TD*%
D22*
%TO.P,D20,2*%
%TO.N,mirror_outer_home*%
X478068027Y-210490464D03*
D35*
%TO.P,D20,1*%
%TO.N,P6*%
X470531727Y-211616776D03*
D36*
X472668000Y-211297504D03*
%TO.P,D20,2*%
%TO.N,mirror_outer_home*%
X475931754Y-210809736D03*
%TD*%
D22*
%TO.P,D21,2*%
%TO.N,mirror_outer_top*%
X475259652Y-191699172D03*
D35*
%TO.P,D21,1*%
%TO.N,P1*%
X467723352Y-192825484D03*
D36*
X469859625Y-192506212D03*
%TO.P,D21,2*%
%TO.N,mirror_outer_top*%
X473123379Y-192018444D03*
%TD*%
D22*
%TO.P,D22,2*%
%TO.N,mirror_pinky_bottom*%
X460308193Y-222950927D03*
D37*
%TO.P,D22,1*%
%TO.N,P8*%
X452891041Y-224697435D03*
D38*
X454993537Y-224202364D03*
%TO.P,D22,2*%
%TO.N,mirror_pinky_bottom*%
X458205697Y-223445998D03*
%TD*%
D22*
%TO.P,D23,2*%
%TO.N,mirror_pinky_home*%
X455953401Y-204456703D03*
D37*
%TO.P,D23,1*%
%TO.N,P6*%
X448536249Y-206203211D03*
D38*
X450638745Y-205708140D03*
%TO.P,D23,2*%
%TO.N,mirror_pinky_home*%
X453850905Y-204951774D03*
%TD*%
D22*
%TO.P,D24,2*%
%TO.N,mirror_pinky_top*%
X451598589Y-185962514D03*
D37*
%TO.P,D24,1*%
%TO.N,P1*%
X444181437Y-187709022D03*
D38*
X446283933Y-187213951D03*
%TO.P,D24,2*%
%TO.N,mirror_pinky_top*%
X449496093Y-186457585D03*
%TD*%
D22*
%TO.P,D25,2*%
%TO.N,mirror_ring_bottom*%
X438144645Y-213832436D03*
D39*
%TO.P,D25,1*%
%TO.N,P8*%
X430792965Y-215836742D03*
D40*
X432876908Y-215268591D03*
%TO.P,D25,2*%
%TO.N,mirror_ring_bottom*%
X436060702Y-214400587D03*
%TD*%
D22*
%TO.P,D26,2*%
%TO.N,mirror_ring_home*%
X433147040Y-195501474D03*
D39*
%TO.P,D26,1*%
%TO.N,P6*%
X425795360Y-197505780D03*
D40*
X427879303Y-196937629D03*
%TO.P,D26,2*%
%TO.N,mirror_ring_home*%
X431063097Y-196069625D03*
%TD*%
D22*
%TO.P,D27,2*%
%TO.N,mirror_ring_top*%
X428149452Y-177170529D03*
D39*
%TO.P,D27,1*%
%TO.N,P1*%
X420797772Y-179174835D03*
D40*
X422881715Y-178606684D03*
%TO.P,D27,2*%
%TO.N,mirror_ring_top*%
X426065509Y-177738680D03*
%TD*%
D22*
%TO.P,D28,2*%
%TO.N,mirror_middle_bottom*%
X418691700Y-213739654D03*
D41*
%TO.P,D28,1*%
%TO.N,P8*%
X411454996Y-216125942D03*
D42*
X413506350Y-215449516D03*
%TO.P,D28,2*%
%TO.N,mirror_middle_bottom*%
X416640346Y-214416080D03*
%TD*%
D22*
%TO.P,D29,2*%
%TO.N,mirror_middle_home*%
X412741586Y-195695379D03*
D41*
%TO.P,D29,1*%
%TO.N,P6*%
X405504882Y-198081667D03*
D42*
X407556236Y-197405241D03*
%TO.P,D29,2*%
%TO.N,mirror_middle_home*%
X410690232Y-196371805D03*
%TD*%
D22*
%TO.P,D30,2*%
%TO.N,mirror_middle_top*%
X406791466Y-177651102D03*
D41*
%TO.P,D30,1*%
%TO.N,P1*%
X399554762Y-180037390D03*
D42*
X401606116Y-179360964D03*
%TO.P,D30,2*%
%TO.N,mirror_middle_top*%
X404740112Y-178327528D03*
%TD*%
D22*
%TO.P,D31,2*%
%TO.N,mirror_index_bottom*%
X402526384Y-225387957D03*
D41*
%TO.P,D31,1*%
%TO.N,P8*%
X395289680Y-227774245D03*
D42*
X397341034Y-227097819D03*
%TO.P,D31,2*%
%TO.N,mirror_index_bottom*%
X400475030Y-226064383D03*
%TD*%
D22*
%TO.P,D32,2*%
%TO.N,mirror_index_home*%
X396576275Y-207343686D03*
D41*
%TO.P,D32,1*%
%TO.N,P6*%
X389339571Y-209729974D03*
D42*
X391390925Y-209053548D03*
%TO.P,D32,2*%
%TO.N,mirror_index_home*%
X394524921Y-208020112D03*
%TD*%
D22*
%TO.P,D33,2*%
%TO.N,mirror_index_top*%
X390626174Y-189299399D03*
D41*
%TO.P,D33,1*%
%TO.N,P1*%
X383389470Y-191685687D03*
D42*
X385440824Y-191009261D03*
%TO.P,D33,2*%
%TO.N,mirror_index_top*%
X388574820Y-189975825D03*
%TD*%
D22*
%TO.P,D34,2*%
%TO.N,mirror_inner_bottom*%
X385600568Y-233910960D03*
D43*
%TO.P,D34,1*%
%TO.N,P8*%
X378498670Y-236672742D03*
D44*
X380511804Y-235889875D03*
%TO.P,D34,2*%
%TO.N,mirror_inner_bottom*%
X383587434Y-234693827D03*
%TD*%
D22*
%TO.P,D35,2*%
%TO.N,mirror_inner_home*%
X378714246Y-216202834D03*
D43*
%TO.P,D35,1*%
%TO.N,P6*%
X371612348Y-218964616D03*
D44*
X373625482Y-218181749D03*
%TO.P,D35,2*%
%TO.N,mirror_inner_home*%
X376701112Y-216985701D03*
%TD*%
D22*
%TO.P,D36,2*%
%TO.N,mirror_inner_top*%
X371827924Y-198494669D03*
D43*
%TO.P,D36,1*%
%TO.N,P1*%
X364726026Y-201256451D03*
D44*
X366739160Y-200473584D03*
%TO.P,D36,2*%
%TO.N,mirror_inner_top*%
X369814790Y-199277536D03*
%TD*%
D22*
%TO.P,D37,2*%
%TO.N,mirror_near_thumb*%
X393211777Y-253483133D03*
D43*
%TO.P,D37,1*%
%TO.N,P9*%
X386109879Y-256244915D03*
D44*
X388123013Y-255462048D03*
%TO.P,D37,2*%
%TO.N,mirror_near_thumb*%
X391198643Y-254266000D03*
%TD*%
D22*
%TO.P,D38,2*%
%TO.N,mirror_home_thumb*%
X373882504Y-264172459D03*
D45*
%TO.P,D38,1*%
%TO.N,P9*%
X368153482Y-269196677D03*
D46*
X369777460Y-267772485D03*
%TO.P,D38,2*%
%TO.N,mirror_home_thumb*%
X372258526Y-265596651D03*
%TD*%
D47*
%TO.P,_1,1*%
%TO.N,N/C*%
X223589102Y-172715252D03*
X224977095Y-174591015D03*
X222018853Y-175328588D03*
X222363759Y-173020766D03*
X221713339Y-174103245D03*
X224671581Y-173365672D03*
X223101332Y-175979008D03*
D48*
X223345217Y-174347130D03*
D47*
X224326675Y-175673494D03*
%TD*%
%TO.P,_2,1*%
%TO.N,N/C*%
X460885763Y-172715233D03*
X462761524Y-174103226D03*
X460148193Y-175673475D03*
X459803282Y-173365656D03*
X459497770Y-174590994D03*
X462111101Y-173020745D03*
X461373531Y-175978987D03*
D48*
X461129647Y-174347110D03*
D47*
X462456012Y-175328564D03*
%TD*%
%TO.P,_3,1*%
%TO.N,N/C*%
X213749449Y-219272223D03*
X215137442Y-221147986D03*
X212179200Y-221885559D03*
X212524106Y-219577737D03*
X211873686Y-220660216D03*
X214831928Y-219922643D03*
X213261679Y-222535979D03*
D48*
X213505564Y-220904101D03*
D47*
X214487022Y-222230465D03*
%TD*%
%TO.P,_4,1*%
%TO.N,N/C*%
X470725399Y-219272228D03*
X472601160Y-220660221D03*
X469987829Y-222230470D03*
X469642918Y-219922651D03*
X469337406Y-221147989D03*
X471950737Y-219577740D03*
X471213167Y-222535982D03*
D48*
X470969283Y-220904105D03*
D47*
X472295648Y-221885559D03*
%TD*%
%TO.P,_5,1*%
%TO.N,N/C*%
X284991203Y-234393842D03*
X286041480Y-236477559D03*
X283001068Y-236703501D03*
X283731821Y-234487424D03*
X282907486Y-235444119D03*
X285947898Y-235218177D03*
X283957763Y-237527836D03*
D48*
X284474483Y-235960839D03*
D47*
X285217145Y-237434254D03*
%TD*%
%TO.P,_6,1*%
%TO.N,N/C*%
X399483663Y-234393854D03*
X401567379Y-235444134D03*
X399257721Y-237434270D03*
X398526963Y-235218192D03*
X398433383Y-236477570D03*
X400743041Y-234487434D03*
X400517099Y-237527850D03*
D48*
X400000381Y-235960852D03*
D47*
X401473799Y-236703512D03*
%TD*%
%TO.P,_7,1*%
%TO.N,N/C*%
X328199875Y-182118198D03*
X329139665Y-184254036D03*
X326091590Y-184320541D03*
X326937322Y-182145751D03*
X326064037Y-183057988D03*
X329112112Y-182991483D03*
X327003827Y-185193826D03*
D48*
X327601851Y-183656012D03*
D47*
X328266380Y-185166273D03*
%TD*%
%TO.P,_8,1*%
%TO.N,N/C*%
X356274980Y-182118174D03*
X358410819Y-183057965D03*
X356208468Y-185166246D03*
X355362747Y-182991453D03*
X355335189Y-184254013D03*
X357537540Y-182145732D03*
X357471028Y-185193804D03*
D48*
X356873004Y-183655989D03*
D47*
X358383261Y-184320525D03*
%TD*%
%TO.P,_9,1*%
%TO.N,N/C*%
X323665949Y-247839223D03*
X323818563Y-250167675D03*
X320931567Y-249187670D03*
X322470116Y-247433293D03*
X321337497Y-247991837D03*
X324224493Y-248971842D03*
X321490111Y-250320289D03*
D48*
X322578030Y-249079756D03*
D47*
X322685944Y-250726219D03*
%TD*%
%TO.P,_10,1*%
%TO.N,N/C*%
X360808925Y-247839228D03*
X363137375Y-247991844D03*
X361788926Y-250726229D03*
X360250374Y-248971845D03*
X360656309Y-250167678D03*
X362004758Y-247433293D03*
X362984759Y-250320294D03*
D48*
X361896842Y-249079761D03*
D47*
X363543310Y-249187677D03*
%TD*%
D49*
%TO.P,MCU1,24*%
%TO.N,P9*%
X349792835Y-220263233D03*
%TO.P,MCU1,23*%
%TO.N,P8*%
X349792827Y-217723234D03*
%TO.P,MCU1,22*%
%TO.N,P7*%
X349792828Y-215183233D03*
%TO.P,MCU1,21*%
%TO.N,P6*%
X349792828Y-212643233D03*
%TO.P,MCU1,20*%
%TO.N,P5*%
X349792835Y-210103237D03*
%TO.P,MCU1,19*%
%TO.N,P4*%
X349792837Y-207563228D03*
%TO.P,MCU1,18*%
%TO.N,P3*%
X349792830Y-205023233D03*
%TO.P,MCU1,17*%
%TO.N,P2*%
X349792830Y-202483236D03*
%TO.P,MCU1,16*%
%TO.N,GND*%
X349792830Y-199943232D03*
%TO.P,MCU1,15*%
X349792832Y-197403234D03*
%TO.P,MCU1,14*%
%TO.N,P0*%
X349792827Y-194863237D03*
%TO.P,MCU1,13*%
%TO.N,P1*%
X349792831Y-192323235D03*
%TO.P,MCU1,12*%
%TO.N,P10*%
X334552829Y-220263233D03*
%TO.P,MCU1,11*%
%TO.N,P16*%
X334552833Y-217723231D03*
%TO.P,MCU1,10*%
%TO.N,P14*%
X334552828Y-215183234D03*
%TO.P,MCU1,9*%
%TO.N,P15*%
X334552830Y-212643236D03*
%TO.P,MCU1,8*%
%TO.N,P18*%
X334552830Y-210103232D03*
%TO.P,MCU1,7*%
%TO.N,P19*%
X334552830Y-207563235D03*
%TO.P,MCU1,6*%
%TO.N,P20*%
X334552823Y-205023240D03*
%TO.P,MCU1,5*%
%TO.N,P21*%
X334552825Y-202483231D03*
%TO.P,MCU1,4*%
%TO.N,VCC*%
X334552832Y-199943235D03*
%TO.P,MCU1,3*%
%TO.N,RST*%
X334552832Y-197403235D03*
%TO.P,MCU1,2*%
%TO.N,GND*%
X334552833Y-194863234D03*
D50*
%TO.P,MCU1,1*%
%TO.N,RAW*%
X334552825Y-192323235D03*
%TD*%
D14*
%TO.P,S17,2*%
%TO.N,inner_top*%
X325296065Y-192598277D03*
%TO.P,S17,1*%
%TO.N,P3*%
X312327408Y-190280339D03*
%TD*%
D51*
%TO.N,P21*%
X321194321Y-195823112D03*
X323794324Y-194423113D03*
%TO.N,P15*%
X312209182Y-207591671D03*
X323777709Y-202773551D03*
%TO.N,P3*%
X360867199Y-204851086D03*
%TO.N,P4*%
X380430537Y-202696637D03*
%TO.N,P18*%
X324955895Y-200895069D03*
%TO.N,P14*%
X273884964Y-185431352D03*
%TO.N,P19*%
X226611772Y-192847469D03*
%TO.N,P20*%
X208478225Y-180852626D03*
%TD*%
D52*
%TO.N,P18*%
X237233255Y-233498015D02*
X237107425Y-233967630D01*
X237107425Y-233967630D02*
X237429227Y-234525016D01*
X237233255Y-233498015D02*
X237234452Y-233500089D01*
X244596416Y-206018334D02*
X237233255Y-233498015D01*
X245153795Y-205696525D02*
X244596416Y-206018334D01*
X250151403Y-187365559D02*
X245255341Y-205637896D01*
X245255341Y-205637896D02*
X245153795Y-205696525D01*
X255148993Y-169034596D02*
X250252935Y-187306939D01*
X250252935Y-187306939D02*
X250151403Y-187365559D01*
%TO.N,P21*%
X322594316Y-194423110D02*
X321194321Y-195823112D01*
X323794324Y-194423113D02*
X322594316Y-194423110D01*
%TO.N,P18*%
X256668564Y-166888584D02*
X255478415Y-168078741D01*
X255478415Y-168078741D02*
X255478409Y-168705168D01*
X255478409Y-168705168D02*
X255538706Y-168809596D01*
%TO.N,P15*%
X323083513Y-202520892D02*
X312209182Y-207591671D01*
X323777709Y-202773551D02*
X323083513Y-202520892D01*
%TO.N,P3*%
X360867199Y-204851086D02*
X360527510Y-204692688D01*
X357935710Y-197571756D02*
X358940904Y-195416105D01*
X360527510Y-204692688D02*
X357935710Y-197571756D01*
%TO.N,P4*%
X380430537Y-202696637D02*
X383019277Y-203903793D01*
X383019277Y-203903793D02*
X383868046Y-203594868D01*
%TO.N,P18*%
X261282738Y-164736964D02*
X256668564Y-166888584D01*
X325417724Y-187867351D02*
X324874367Y-187669590D01*
X278643556Y-163819381D02*
X275823788Y-165134257D01*
X269927906Y-167883547D02*
X266169137Y-166515470D01*
X324874367Y-187669590D02*
X309839270Y-182197271D01*
X292926883Y-169018087D02*
X278643556Y-163819381D01*
X324955895Y-200895069D02*
X327821419Y-193022108D01*
X308165797Y-178608473D02*
X295198045Y-173888593D01*
X309839270Y-182197271D02*
X308165797Y-178608473D01*
X327821419Y-193022108D02*
X325417724Y-187867351D01*
X266169137Y-166515470D02*
X261282738Y-164736964D01*
X295198045Y-173888593D02*
X292926883Y-169018087D01*
X275823788Y-165134257D02*
X269927906Y-167883547D01*
%TO.N,P14*%
X273884964Y-185431352D02*
X273372281Y-185670427D01*
X273372281Y-185670427D02*
X273054434Y-186543696D01*
X273054434Y-186543696D02*
X270984266Y-187509026D01*
%TO.N,P19*%
X227407948Y-195075017D02*
X227061811Y-196366808D01*
X226611772Y-192847469D02*
X226456484Y-193427027D01*
X226456484Y-193427027D02*
X227407948Y-195075017D01*
%TO.N,P20*%
X207479659Y-181551828D02*
X207090670Y-183757916D01*
X208478225Y-180852626D02*
X207479659Y-181551828D01*
%TO.N,P3*%
X365834223Y-272991379D02*
X365664552Y-273953639D01*
X365538470Y-274079727D02*
X365664552Y-273953639D01*
X335976658Y-274079722D02*
X365538470Y-274079727D01*
X360719759Y-265687152D02*
X365834223Y-272991379D01*
%TO.N,P4*%
X380822723Y-264305244D02*
X369578370Y-274608792D01*
X334703869Y-275451122D02*
X368736041Y-275451124D01*
X368736041Y-275451124D02*
X369578370Y-274608792D01*
X385231118Y-262249568D02*
X380822723Y-264305244D01*
X380324750Y-250404564D02*
X385231118Y-262249568D01*
X385231118Y-262249568D02*
X385248515Y-262291568D01*
X385248515Y-262291568D02*
X385328966Y-262324884D01*
%TO.N,P14*%
X316466955Y-276678550D02*
X336510272Y-276678560D01*
X336510272Y-276678560D02*
X336801952Y-276678555D01*
X336647922Y-276816213D02*
X336510272Y-276678560D01*
X363202974Y-276816209D02*
X336647922Y-276816213D01*
X368837134Y-277062199D02*
X363202974Y-276816209D01*
X381470008Y-265486295D02*
X368837134Y-277062199D01*
%TO.N,P18*%
X369473642Y-277919379D02*
X369333246Y-278048024D01*
X369333246Y-278048024D02*
X364772670Y-277848909D01*
%TO.N,P20*%
X370142609Y-279980769D02*
X340801913Y-279980759D01*
X383263571Y-267964792D02*
X370150076Y-279981104D01*
X370150076Y-279981104D02*
X370142609Y-279980769D01*
%TO.N,P14*%
X381448031Y-265546673D02*
X381470008Y-265486295D01*
X381470008Y-265486295D02*
X418029028Y-248438554D01*
X418076959Y-248346488D02*
X405983459Y-209990841D01*
X418029028Y-248438554D02*
X418076959Y-248346488D01*
%TO.N,P18*%
X338507994Y-277848907D02*
X364772670Y-277848909D01*
X381997511Y-266443369D02*
X369473642Y-277919379D01*
X382006079Y-266419829D02*
X381997511Y-266443369D01*
X434374612Y-241999979D02*
X382006079Y-266419829D01*
X434377490Y-241994984D02*
X434374612Y-241999979D01*
X434374612Y-241999979D02*
X434362387Y-242021152D01*
X425650027Y-209423668D02*
X434377490Y-241994984D01*
%TO.N,P19*%
X222707003Y-214861022D02*
X219208534Y-227917443D01*
X219208534Y-227917443D02*
X302857207Y-266923447D01*
X302857207Y-266923447D02*
X314805617Y-278871876D01*
X314805617Y-278871876D02*
X339539987Y-278871879D01*
X339539987Y-278871879D02*
X369985804Y-278871875D01*
X369985804Y-278871875D02*
X370122360Y-278735324D01*
X370122360Y-278735324D02*
X370025045Y-278824493D01*
X382563337Y-267335262D02*
X370122360Y-278735324D01*
X370025045Y-278824493D02*
X370023722Y-278854643D01*
X451020273Y-235413273D02*
X382563337Y-267335262D01*
X451511927Y-234062486D02*
X451020273Y-235413273D01*
X451511927Y-234062486D02*
X451441113Y-234173631D01*
X447975069Y-218108773D02*
X451511927Y-234062486D01*
X443620265Y-199614580D02*
X443723535Y-200080358D01*
X443723535Y-200080358D02*
X444020177Y-200269362D01*
X444020177Y-200269362D02*
X447975069Y-218108773D01*
X439265452Y-181120382D02*
X443323637Y-199425595D01*
X443323637Y-199425595D02*
X443620265Y-199614580D01*
%TO.N,P20*%
X383278412Y-267964819D02*
X383263571Y-267964792D01*
X469120318Y-227936062D02*
X383278412Y-267964819D01*
X466178229Y-204643672D02*
X468522846Y-217940683D01*
X467592207Y-219269761D02*
X469120318Y-227936062D01*
X468522846Y-217940683D02*
X467592207Y-219269761D01*
%TO.N,P3*%
X317458349Y-274079709D02*
X335976658Y-274079722D01*
X306997450Y-263618821D02*
X317458349Y-274079709D01*
X313101560Y-256344234D02*
X306997450Y-263618821D01*
%TO.N,P4*%
X317198173Y-275451117D02*
X334703869Y-275451122D01*
X305058400Y-263311354D02*
X317198173Y-275451117D01*
X305049942Y-263288103D02*
X305058400Y-263311354D01*
X286561267Y-254666691D02*
X305049942Y-263288103D01*
X286561267Y-254666691D02*
X286569735Y-254689937D01*
X290943565Y-245268822D02*
X286561267Y-254666691D01*
%TO.N,P14*%
X304254174Y-264465771D02*
X316466955Y-276678550D01*
X249474328Y-238921507D02*
X304254174Y-264465771D01*
X265034157Y-205553309D02*
X249474328Y-238921507D01*
%TO.N,P18*%
X315505629Y-277848917D02*
X338507994Y-277848907D01*
X303607892Y-265951169D02*
X315505629Y-277848917D01*
X237677603Y-235207378D02*
X303607892Y-265951169D01*
X237429227Y-234525016D02*
X237677603Y-235207378D01*
%TO.N,P20*%
X314494813Y-279980774D02*
X340801913Y-279980759D01*
X302515846Y-268001812D02*
X314494813Y-279980774D01*
X201081438Y-220702158D02*
X302515846Y-268001812D01*
X204282293Y-202549203D02*
X201081438Y-220702158D01*
%TO.N,P3*%
X362034787Y-253888544D02*
X358807358Y-260809806D01*
X372713556Y-230832401D02*
X375344708Y-238061367D01*
X369176446Y-251289187D02*
X362034787Y-253888544D01*
X375344708Y-238061367D02*
X369176446Y-251289187D01*
X358807358Y-260809806D02*
X358972578Y-260886851D01*
X358972578Y-260886851D02*
X360719750Y-265687151D01*
X365827248Y-213124248D02*
X372182325Y-230584695D01*
X372182325Y-230584695D02*
X372713556Y-230832401D01*
X358940907Y-195416093D02*
X365295972Y-212876511D01*
X365295972Y-212876511D02*
X365827248Y-213124248D01*
%TO.N,P4*%
X394081207Y-233351738D02*
X391608158Y-238655185D01*
X391608158Y-238655185D02*
X384617041Y-241199749D01*
X389818161Y-221639151D02*
X394081207Y-233351738D01*
X384617041Y-241199749D02*
X380324771Y-250404563D01*
X383868064Y-203594869D02*
X390164962Y-220895459D01*
X390164962Y-220895459D02*
X389818161Y-221639151D01*
X377917950Y-185550592D02*
X384214841Y-202851183D01*
X384214841Y-202851183D02*
X383868064Y-203594869D01*
%TO.N,P14*%
X400033361Y-191946534D02*
X406330242Y-209247159D01*
X406330242Y-209247159D02*
X405983469Y-209990841D01*
X394083238Y-173902276D02*
X400380153Y-191202864D01*
X400380153Y-191202864D02*
X400033361Y-191946534D01*
%TO.N,P18*%
X420652435Y-191092702D02*
X420687648Y-191224135D01*
X420687648Y-191224135D02*
X420789179Y-191282749D01*
X420789179Y-191282749D02*
X425650018Y-209423665D01*
X415654845Y-172761756D02*
X420550907Y-191034085D01*
X420550907Y-191034085D02*
X420652435Y-191092702D01*
%TO.N,P20*%
X463369848Y-185852381D02*
X466581652Y-204067491D01*
X466581652Y-204067491D02*
X466178221Y-204643667D01*
%TO.N,P3*%
X295473547Y-234162190D02*
X298674801Y-241027285D01*
X298554750Y-225696646D02*
X295473547Y-234162190D01*
X298674801Y-241027285D02*
X307448178Y-244220521D01*
X307448178Y-244220521D02*
X313101540Y-256344243D01*
X305441070Y-207988508D02*
X299085992Y-225448926D01*
X299085992Y-225448926D02*
X298554750Y-225696646D01*
X312327387Y-190280354D02*
X305972326Y-207740766D01*
X305972326Y-207740766D02*
X305441070Y-207988508D01*
%TO.N,P4*%
X281199450Y-217201613D02*
X278121707Y-228687923D01*
X278121707Y-228687923D02*
X278111025Y-228694102D01*
X278111025Y-228694102D02*
X287963479Y-231334062D01*
X292549161Y-239276675D02*
X290943553Y-245268823D01*
X287963479Y-231334062D02*
X292549161Y-239276675D01*
X287149577Y-199157333D02*
X282518711Y-216439955D01*
X282518711Y-216439955D02*
X281199450Y-217201613D01*
X293099665Y-181113058D02*
X288468816Y-198395674D01*
X288468816Y-198395674D02*
X287149577Y-199157333D01*
%TO.N,P14*%
X270984271Y-187509015D02*
X270772511Y-188090792D01*
X270772511Y-188090792D02*
X271119311Y-188834491D01*
X271119311Y-188834491D02*
X265034160Y-205553311D01*
X276934361Y-169464741D02*
X270637483Y-186765335D01*
X270637483Y-186765335D02*
X270984271Y-187509015D01*
%TO.N,P19*%
X227061817Y-196366811D02*
X223954861Y-213987278D01*
X223954861Y-213987278D02*
X222707007Y-214861023D01*
X231416607Y-177872605D02*
X228309658Y-195493051D01*
X228309658Y-195493051D02*
X227061817Y-196366811D01*
%TO.N,P20*%
X207090672Y-183757905D02*
X203878842Y-201973040D01*
X203878842Y-201973040D02*
X204282297Y-202549205D01*
%TO.N,mirror_outer_top*%
X475779420Y-181429549D02*
X476163079Y-181698189D01*
X477390052Y-188656667D02*
X475259670Y-191699168D01*
X476163079Y-181698189D02*
X477390052Y-188656667D01*
%TO.N,mirror_outer_home*%
X478587796Y-200220851D02*
X478971469Y-200489474D01*
X478971469Y-200489474D02*
X480198433Y-207447965D01*
X480198433Y-207447965D02*
X478068028Y-210490462D01*
%TO.N,mirror_pinky_bottom*%
X459975786Y-212673520D02*
X460848248Y-213284434D01*
X462101201Y-220390278D02*
X460308222Y-222950931D01*
X460848248Y-213284434D02*
X462101201Y-220390278D01*
%TO.N,mirror_pinky_home*%
X455620960Y-194179324D02*
X456493422Y-194790218D01*
X456493422Y-194790218D02*
X457746387Y-201896082D01*
X457746387Y-201896082D02*
X455953401Y-204456709D01*
%TO.N,mirror_pinky_top*%
X451266169Y-175685106D02*
X452138615Y-176296003D01*
X452138615Y-176296003D02*
X453391580Y-183401858D01*
X453391580Y-183401858D02*
X451598596Y-185962509D01*
%TO.N,mirror_ring_bottom*%
X437453722Y-203572914D02*
X438533328Y-204328827D01*
X438533328Y-204328827D02*
X439793778Y-211477237D01*
X439793778Y-211477237D02*
X438144646Y-213832452D01*
%TO.N,mirror_ring_home*%
X432456138Y-185241954D02*
X433535740Y-185997877D01*
X433535740Y-185997877D02*
X434796179Y-193146264D01*
X434796179Y-193146264D02*
X433147040Y-195501482D01*
%TO.N,mirror_ring_top*%
X427458543Y-166910994D02*
X428538146Y-167666926D01*
X428538146Y-167666926D02*
X429798587Y-174815310D01*
X429798587Y-174815310D02*
X428149451Y-177170503D01*
%TO.N,mirror_middle_top*%
X405564569Y-167441764D02*
X406486965Y-167974313D01*
X406486965Y-167974313D02*
X408354449Y-174943921D01*
X408354449Y-174943921D02*
X406791480Y-177651096D01*
%TO.N,mirror_middle_home*%
X411514691Y-185486044D02*
X412437062Y-186018591D01*
X412437062Y-186018591D02*
X414304573Y-192988217D01*
X414304573Y-192988217D02*
X412741580Y-195695359D01*
%TO.N,mirror_middle_bottom*%
X417464784Y-203530344D02*
X418387185Y-204062888D01*
X418387185Y-204062888D02*
X420254694Y-211032489D01*
X420254694Y-211032489D02*
X418691689Y-213739656D01*
%TO.N,mirror_index_bottom*%
X401299491Y-215178636D02*
X402221880Y-215711185D01*
X402221880Y-215711185D02*
X404089394Y-222680777D01*
X404089394Y-222680777D02*
X402526387Y-225387957D01*
%TO.N,mirror_index_home*%
X395349395Y-197134359D02*
X396271775Y-197666906D01*
X396271775Y-197666906D02*
X398139256Y-204636495D01*
X398139256Y-204636495D02*
X396576278Y-207343682D01*
%TO.N,mirror_index_top*%
X389399277Y-179090080D02*
X390321649Y-179622628D01*
X390321649Y-179622628D02*
X392189180Y-186592213D01*
X392189180Y-186592213D02*
X390626169Y-189299393D01*
%TO.N,inner_home*%
X310849378Y-218181762D02*
X312834342Y-218904212D01*
X312834342Y-218904212D02*
X312862519Y-218964601D01*
%TO.N,P15*%
X307773762Y-216985706D02*
X305788791Y-216263222D01*
X305788791Y-216263222D02*
X305760613Y-216202832D01*
%TO.N,inner_home*%
X318409727Y-210306426D02*
X318620854Y-210759217D01*
X318620854Y-210759217D02*
X316200959Y-217407877D01*
X316200959Y-217407877D02*
X312862519Y-218964601D01*
%TO.N,inner_top*%
X325296059Y-192598286D02*
X325507191Y-193051062D01*
X325507191Y-193051062D02*
X323087274Y-199699713D01*
X323087274Y-199699713D02*
X319748841Y-201256458D01*
%TO.N,mirror_outer_top*%
X473123379Y-192018421D02*
X475194148Y-191653300D01*
X475194148Y-191653300D02*
X475259665Y-191699170D01*
%TO.N,P1*%
X469859627Y-192506207D02*
X467788849Y-192871334D01*
X467788849Y-192871334D02*
X467723345Y-192825476D01*
%TO.N,mirror_outer_home*%
X475931755Y-210809746D02*
X478002535Y-210444603D01*
X478002535Y-210444603D02*
X478068028Y-210490462D01*
%TO.N,P6*%
X470531736Y-211616778D02*
X472602507Y-211251655D01*
X472602507Y-211251655D02*
X472667991Y-211297508D01*
%TO.N,mirror_pinky_bottom*%
X458205722Y-223446010D02*
X460227422Y-222904283D01*
X460227422Y-222904283D02*
X460308205Y-222950933D01*
%TO.N,P8*%
X454993558Y-224202357D02*
X452971855Y-224744079D01*
X452971855Y-224744079D02*
X452891060Y-224697429D01*
%TO.N,mirror_pinky_home*%
X453850915Y-204951796D02*
X455872616Y-204410078D01*
X455872616Y-204410078D02*
X455953402Y-204456715D01*
%TO.N,P6*%
X450638752Y-205708157D02*
X448617045Y-206249877D01*
X448617045Y-206249877D02*
X448536252Y-206203236D01*
%TO.N,mirror_pinky_top*%
X449496083Y-186457579D02*
X451517809Y-185915860D01*
X451517809Y-185915860D02*
X451598610Y-185962508D01*
%TO.N,P1*%
X446283935Y-187213951D02*
X444262242Y-187755658D01*
X444262242Y-187755658D02*
X444181447Y-187709005D01*
%TO.N,mirror_ring_top*%
X426065500Y-177738668D02*
X428142796Y-177182061D01*
X428142796Y-177182061D02*
X428149451Y-177170503D01*
%TO.N,P1*%
X422881716Y-178606669D02*
X420804441Y-179163272D01*
X420804441Y-179163272D02*
X420797765Y-179174827D01*
%TO.N,mirror_ring_home*%
X431063098Y-196069637D02*
X433140384Y-195513036D01*
X433140384Y-195513036D02*
X433147050Y-195501478D01*
%TO.N,P6*%
X427879299Y-196937616D02*
X425802020Y-197494238D01*
X425802020Y-197494238D02*
X425795361Y-197505792D01*
%TO.N,mirror_ring_bottom*%
X436060696Y-214400606D02*
X438137985Y-213843986D01*
X438137985Y-213843986D02*
X438144651Y-213832442D01*
%TO.N,P8*%
X430792957Y-215836731D02*
X432870241Y-215280124D01*
X432870241Y-215280124D02*
X432876900Y-215268586D01*
%TO.N,mirror_middle_bottom*%
X416640343Y-214416086D02*
X418607142Y-213700221D01*
X418607142Y-213700221D02*
X418691702Y-213739652D01*
%TO.N,P8*%
X413506357Y-215449525D02*
X411539543Y-216165384D01*
X411539543Y-216165384D02*
X411455003Y-216125964D01*
%TO.N,mirror_middle_home*%
X410690233Y-196371801D02*
X412657034Y-195655937D01*
X412657034Y-195655937D02*
X412741589Y-195695375D01*
%TO.N,P6*%
X407556233Y-197405248D02*
X405589428Y-198121090D01*
X405589428Y-198121090D02*
X405504884Y-198081679D01*
%TO.N,mirror_middle_top*%
X404740120Y-178327519D02*
X406706933Y-177611663D01*
X406706933Y-177611663D02*
X406791475Y-177651094D01*
%TO.N,P1*%
X399554768Y-180037390D02*
X401521572Y-179321540D01*
X401521572Y-179321540D02*
X401606112Y-179360973D01*
%TO.N,mirror_index_bottom*%
X400475041Y-226064385D02*
X402441847Y-225348546D01*
X402441847Y-225348546D02*
X402526392Y-225387958D01*
%TO.N,P8*%
X397341025Y-227097841D02*
X395374243Y-227813683D01*
X395374243Y-227813683D02*
X395289679Y-227774265D01*
%TO.N,mirror_index_home*%
X394524924Y-208020098D02*
X396491729Y-207304240D01*
X396491729Y-207304240D02*
X396576281Y-207343685D01*
%TO.N,P6*%
X391390940Y-209053547D02*
X389424124Y-209769406D01*
X389424124Y-209769406D02*
X389339572Y-209729987D01*
%TO.N,mirror_index_top*%
X388574814Y-189975830D02*
X390541616Y-189259981D01*
X390541616Y-189259981D02*
X390626170Y-189299393D01*
%TO.N,P1*%
X383389469Y-191685688D02*
X385356266Y-190969842D01*
X385356266Y-190969842D02*
X385440815Y-191009258D01*
%TO.N,mirror_inner_top*%
X369814791Y-199277540D02*
X371799772Y-198555076D01*
X371799772Y-198555076D02*
X371827931Y-198494687D01*
%TO.N,P1*%
X364726017Y-201256461D02*
X366711001Y-200533989D01*
X366711001Y-200533989D02*
X366739165Y-200473580D01*
%TO.N,mirror_inner_home*%
X376701119Y-216985697D02*
X378686093Y-216263215D01*
X378686093Y-216263215D02*
X378714251Y-216202830D01*
%TO.N,P6*%
X373625495Y-218181729D02*
X371640507Y-218904206D01*
X371640507Y-218904206D02*
X371612356Y-218964595D01*
%TO.N,mirror_inner_bottom*%
X383587435Y-234693842D02*
X385572417Y-233971371D01*
X385572417Y-233971371D02*
X385600571Y-233910984D01*
%TO.N,P8*%
X380511796Y-235889899D02*
X378526835Y-236612359D01*
X378526835Y-236612359D02*
X378498678Y-236672760D01*
%TO.N,mirror_near_thumb*%
X391198645Y-254266012D02*
X393183612Y-253543543D01*
X393183612Y-253543543D02*
X393211777Y-253483129D01*
%TO.N,P9*%
X388123016Y-255462048D02*
X386138035Y-256184529D01*
X386138035Y-256184529D02*
X386109871Y-256244929D01*
%TO.N,mirror_home_thumb*%
X372258532Y-265596647D02*
X373876695Y-264238849D01*
X373876695Y-264238849D02*
X373882520Y-264172465D01*
%TO.N,P9*%
X369777459Y-267772492D02*
X368159300Y-269130270D01*
X368159300Y-269130270D02*
X368153474Y-269196671D01*
%TO.N,home_thumb*%
X314697406Y-267772480D02*
X316315565Y-269130299D01*
X316315565Y-269130299D02*
X316321369Y-269196690D01*
%TO.N,P10*%
X312216311Y-265596661D02*
X310598175Y-264238849D01*
X310598175Y-264238849D02*
X310592347Y-264172479D01*
%TO.N,inner_top*%
X317735700Y-200473595D02*
X319720672Y-201196063D01*
X319720672Y-201196063D02*
X319748837Y-201256455D01*
%TO.N,P21*%
X314660086Y-199277554D02*
X312675102Y-198555077D01*
X312675102Y-198555077D02*
X312646942Y-198494677D01*
%TO.N,near_thumb*%
X296351857Y-255462048D02*
X298336839Y-256184512D01*
X298336839Y-256184512D02*
X298364995Y-256244912D01*
%TO.N,P10*%
X293276223Y-254266004D02*
X291291258Y-253543531D01*
X291291258Y-253543531D02*
X291263094Y-253483140D01*
%TO.N,inner_bottom*%
X303963055Y-235889891D02*
X305948032Y-236612367D01*
X305948032Y-236612367D02*
X305976176Y-236672752D01*
%TO.N,P16*%
X298874304Y-233910972D02*
X300859271Y-234633440D01*
X300859271Y-234633440D02*
X300887423Y-234693845D01*
%TO.N,index_bottom*%
X287133821Y-227097834D02*
X289100617Y-227813684D01*
X289100617Y-227813684D02*
X289185167Y-227774268D01*
%TO.N,P16*%
X283999818Y-226064386D02*
X282033014Y-225348539D01*
X282033014Y-225348539D02*
X281948476Y-225387965D01*
%TO.N,index_home*%
X293083950Y-209053548D02*
X295050745Y-209769402D01*
X295050745Y-209769402D02*
X295135285Y-209729971D01*
%TO.N,P15*%
X289949941Y-208020115D02*
X287983125Y-207304242D01*
X287983125Y-207304242D02*
X287898593Y-207343676D01*
%TO.N,index_top*%
X299034041Y-191009251D02*
X301000851Y-191725126D01*
X301000851Y-191725126D02*
X301085400Y-191685710D01*
%TO.N,P21*%
X295900033Y-189975824D02*
X293933230Y-189259960D01*
X293933230Y-189259960D02*
X293848693Y-189299404D01*
%TO.N,middle_bottom*%
X270968528Y-215449530D02*
X272935320Y-216165379D01*
X272935320Y-216165379D02*
X273019869Y-216125962D01*
%TO.N,P16*%
X267834517Y-214416070D02*
X265867707Y-213700218D01*
X265867707Y-213700218D02*
X265783153Y-213739649D01*
%TO.N,middle_home*%
X276918637Y-197405232D02*
X278885428Y-198121103D01*
X278885428Y-198121103D02*
X278969994Y-198081665D01*
%TO.N,P15*%
X273784650Y-196371797D02*
X271817838Y-195655962D01*
X271817838Y-195655962D02*
X271733294Y-195695364D01*
%TO.N,middle_top*%
X282868745Y-179360966D02*
X284835537Y-180076829D01*
X284835537Y-180076829D02*
X284920092Y-180037386D01*
%TO.N,P21*%
X279734759Y-178327516D02*
X277767947Y-177611660D01*
X277767947Y-177611660D02*
X277683399Y-177651091D01*
%TO.N,ring_top*%
X261593162Y-178606667D02*
X263670435Y-179163265D01*
X263670435Y-179163265D02*
X263677103Y-179174805D01*
%TO.N,P21*%
X258409359Y-177738671D02*
X256332076Y-177182068D01*
X256332076Y-177182068D02*
X256325406Y-177170525D01*
%TO.N,ring_bottom*%
X251597965Y-215268588D02*
X253675252Y-215825191D01*
X253675252Y-215825191D02*
X253681924Y-215836735D01*
%TO.N,P16*%
X248414175Y-214400579D02*
X246336895Y-213843983D01*
X246336895Y-213843983D02*
X246330227Y-213832425D01*
%TO.N,ring_home*%
X256595562Y-196937638D02*
X258672834Y-197494243D01*
X258672834Y-197494243D02*
X258679499Y-197505783D01*
%TO.N,P15*%
X253411754Y-196069626D02*
X251334488Y-195513019D01*
X251334488Y-195513019D02*
X251327830Y-195501495D01*
%TO.N,pinky_top*%
X238190917Y-187213953D02*
X240212618Y-187755661D01*
X240212618Y-187755661D02*
X240293418Y-187709025D01*
%TO.N,P21*%
X232876266Y-185962522D02*
X234897967Y-186504231D01*
X234897967Y-186504231D02*
X234978754Y-186457588D01*
%TO.N,pinky_home*%
X233836113Y-205708158D02*
X235857816Y-206249864D01*
X235857816Y-206249864D02*
X235938596Y-206203216D01*
%TO.N,P15*%
X228521447Y-204456717D02*
X230543167Y-204998429D01*
X230543167Y-204998429D02*
X230623971Y-204951790D01*
%TO.N,pinky_bottom*%
X229481303Y-224202365D02*
X231503021Y-224744079D01*
X231503021Y-224744079D02*
X231583804Y-224697424D01*
%TO.N,P16*%
X224166663Y-222950921D02*
X226188359Y-223492638D01*
X226188359Y-223492638D02*
X226269163Y-223445996D01*
%TO.N,outer_home*%
X211806855Y-211297508D02*
X213877633Y-211662631D01*
X213877633Y-211662631D02*
X213943124Y-211616786D01*
%TO.N,P15*%
X206406828Y-210490482D02*
X208477602Y-210855585D01*
X208477602Y-210855585D02*
X208543120Y-210809740D01*
%TO.N,P21*%
X209215209Y-191699156D02*
X211285985Y-192064287D01*
X211285985Y-192064287D02*
X211351469Y-192018438D01*
%TO.N,outer_top*%
X214615240Y-192506200D02*
X216686011Y-192871338D01*
X216686011Y-192871338D02*
X216751502Y-192825479D01*
%TO.N,mirror_inner_top*%
X370068388Y-188363560D02*
X370805248Y-188707178D01*
X370805248Y-188707178D02*
X373254273Y-195435838D01*
X373254273Y-195435838D02*
X371827920Y-198494680D01*
%TO.N,mirror_inner_home*%
X376954712Y-206071720D02*
X377691586Y-206415321D01*
X380140603Y-213143984D02*
X378714250Y-216202825D01*
X377691586Y-206415321D02*
X380140603Y-213143984D01*
%TO.N,mirror_inner_bottom*%
X383841048Y-223779866D02*
X384577899Y-224123464D01*
X384577899Y-224123464D02*
X387026922Y-230852153D01*
X387026922Y-230852153D02*
X385600569Y-233910978D01*
%TO.N,mirror_near_thumb*%
X391452252Y-243352017D02*
X392189098Y-243695624D01*
X392189098Y-243695624D02*
X394638133Y-250424308D01*
X394638133Y-250424308D02*
X393211782Y-253483138D01*
%TO.N,mirror_home_thumb*%
X368764057Y-255254133D02*
X369573988Y-255324992D01*
X374176658Y-260810260D02*
X373882512Y-264172454D01*
X369573988Y-255324992D02*
X374176658Y-260810260D01*
%TO.N,home_thumb*%
X324495316Y-262957936D02*
X324538865Y-263455584D01*
X319990908Y-268875623D02*
X316321372Y-269196680D01*
X324538865Y-263455584D02*
X319990908Y-268875623D01*
%TO.N,near_thumb*%
X303912207Y-247586749D02*
X304123350Y-248039526D01*
X304123350Y-248039526D02*
X301703431Y-254688176D01*
X301703431Y-254688176D02*
X298365008Y-256244910D01*
%TO.N,inner_bottom*%
X311523408Y-228014602D02*
X311734534Y-228467368D01*
X311734534Y-228467368D02*
X309314645Y-235116013D01*
X309314645Y-235116013D02*
X305976185Y-236672754D01*
%TO.N,index_bottom*%
X294271674Y-218837664D02*
X294641832Y-219631527D01*
X292187730Y-226374146D02*
X289185181Y-227774265D01*
X294641832Y-219631527D02*
X292187730Y-226374146D01*
%TO.N,middle_bottom*%
X278106347Y-207189328D02*
X278476555Y-207983226D01*
X278476555Y-207983226D02*
X276022438Y-214725834D01*
X276022438Y-214725834D02*
X273019877Y-216125972D01*
%TO.N,index_home*%
X300221777Y-200793360D02*
X300591954Y-201587250D01*
X298137851Y-208329869D02*
X295135299Y-209729980D01*
X300591954Y-201587250D02*
X298137851Y-208329869D01*
%TO.N,index_top*%
X306171879Y-182749080D02*
X306542072Y-183542955D01*
X306542072Y-183542955D02*
X304087966Y-190285564D01*
X304087966Y-190285564D02*
X301085409Y-191685693D01*
%TO.N,middle_top*%
X290006578Y-171100767D02*
X290376768Y-171894671D01*
X290376768Y-171894671D02*
X287922660Y-178637279D01*
X287922660Y-178637279D02*
X284920104Y-180037400D01*
%TO.N,middle_home*%
X284056469Y-189145044D02*
X284426668Y-189938929D01*
X284426668Y-189938929D02*
X281972544Y-196681552D01*
X281972544Y-196681552D02*
X278969994Y-198081665D01*
%TO.N,ring_top*%
X268288912Y-169984237D02*
X268819134Y-171121354D01*
X268819134Y-171121354D02*
X266339849Y-177933139D01*
X266339849Y-177933139D02*
X263677093Y-179174813D01*
%TO.N,ring_bottom*%
X258293708Y-206646161D02*
X258823957Y-207783281D01*
X258823957Y-207783281D02*
X256344661Y-214595077D01*
X256344661Y-214595077D02*
X253681915Y-215836742D01*
%TO.N,ring_home*%
X263291314Y-188315210D02*
X263821548Y-189452335D01*
X263821548Y-189452335D02*
X261342245Y-196264116D01*
X261342245Y-196264116D02*
X258679510Y-197505769D01*
%TO.N,pinky_top*%
X244581687Y-178363084D02*
X245218943Y-179729744D01*
X242727910Y-186573799D02*
X240293422Y-187709039D01*
X245218943Y-179729744D02*
X242727910Y-186573799D01*
%TO.N,pinky_home*%
X240226847Y-196857283D02*
X240864129Y-198223957D01*
X240864129Y-198223957D02*
X238373111Y-205068004D01*
X238373111Y-205068004D02*
X235938611Y-206203229D01*
%TO.N,pinky_bottom*%
X235872055Y-215351492D02*
X236509326Y-216718164D01*
X236509326Y-216718164D02*
X234018304Y-223562211D01*
X234018304Y-223562211D02*
X231583786Y-224697423D01*
%TO.N,outer_home*%
X217442729Y-201947836D02*
X218334463Y-203860138D01*
X218334463Y-203860138D02*
X215831819Y-210736062D01*
X215831819Y-210736062D02*
X213943139Y-211616775D01*
%TO.N,outer_top*%
X220251114Y-183156528D02*
X221142824Y-185068836D01*
X221142824Y-185068836D02*
X218640193Y-191944745D01*
X218640193Y-191944745D02*
X216751509Y-192825476D01*
%TD*%
M02*
