M48
; DRILL file {KiCad 8.0.2-1} date 2024-07-02T10:22:32-0400
; FORMAT={-:-/ absolute / inch / decimal}
; #@! TF.CreationDate,2024-07-02T10:22:32-04:00
; #@! TF.GenerationSoftware,Kicad,Pcbnew,8.0.2-1
; #@! TF.FileFunction,NonPlated,1,2,NPTH
FMAT,2
INCH
; #@! TA.AperFunction,NonPlated,NPTH,ComponentDrill
T1C0.0670
; #@! TA.AperFunction,NonPlated,NPTH,ComponentDrill
T2C0.1181
; #@! TA.AperFunction,NonPlated,NPTH,ComponentDrill
T3C0.1570
%
G90
G05
T1
X8.1059Y-8.0849
X8.2165Y-7.3451
X8.5015Y-8.1441
X8.6121Y-7.4043
X8.8219Y-8.5745
X8.9934Y-7.8464
X9.1648Y-7.1183
X9.2113Y-8.6662
X9.3827Y-7.9381
X9.5542Y-7.21
X9.7016Y-8.2155
X9.8983Y-7.4938
X10.0875Y-8.3207
X10.0951Y-6.7721
X10.2842Y-7.5991
X10.4781Y-8.2123
X10.481Y-6.8774
X10.7123Y-7.5019
X10.8579Y-8.3376
X10.9466Y-6.7915
X11.0922Y-7.6272
X11.1145Y-8.6709
X11.3265Y-6.9168
X11.3488Y-7.9605
X11.4918Y-9.7781
X11.4944Y-8.7962
X11.583Y-7.2501
X11.7286Y-8.0858
X11.7915Y-9.0075
X11.8646Y-9.923
X11.9629Y-7.3754
X12.0626Y-8.3103
X12.1643Y-9.1525
X12.3202Y-10.2195
X12.3337Y-7.6132
X12.4354Y-8.4553
X12.621Y-10.4833
X12.7065Y-7.7581
X14.2413Y-7.7581
X14.3268Y-10.4833
X14.5125Y-8.4553
X14.6141Y-7.6132
X14.6276Y-10.2195
X14.7836Y-9.1525
X14.8853Y-8.3103
X14.9849Y-7.3754
X15.0832Y-9.923
X15.1564Y-9.0075
X15.2192Y-8.0858
X15.3648Y-7.2501
X15.4535Y-8.7962
X15.456Y-9.7781
X15.5991Y-7.9605
X15.6214Y-6.9168
X15.8333Y-8.6709
X15.8556Y-7.6272
X16.0013Y-6.7915
X16.0899Y-8.3376
X16.2355Y-7.5019
X16.4668Y-6.8774
X16.4698Y-8.2123
X16.6636Y-7.5991
X16.8527Y-6.7721
X16.8603Y-8.3207
X17.0495Y-7.4938
X17.2462Y-8.2155
X17.3937Y-7.21
X17.5651Y-7.9381
X17.7366Y-8.6662
X17.783Y-7.1183
X17.9545Y-7.8464
X18.1259Y-8.5745
X18.3358Y-7.4043
X18.4463Y-8.1441
X18.7314Y-7.3451
X18.8419Y-8.0849
T2
X8.1701Y-7.9934
X8.2807Y-7.2536
X8.4322Y-7.9315
X8.5427Y-7.1917
X8.8935Y-8.4886
X9.0649Y-7.7605
X9.1598Y-8.4486
X9.2364Y-7.0324
X9.3312Y-7.7205
X9.5027Y-6.9924
X9.7761Y-8.1322
X9.9729Y-7.4105
X10.0436Y-8.1015
X10.1696Y-6.6888
X10.2404Y-7.3798
X10.4371Y-6.6581
X10.5569Y-8.133
X10.7911Y-7.4226
X10.8256Y-8.1163
X11.0254Y-6.7122
X11.0599Y-7.4059
X11.1933Y-8.5916
X11.2941Y-6.6955
X11.4276Y-7.8812
X11.462Y-8.5749
X11.5746Y-9.703
X11.6618Y-7.1708
X11.6963Y-7.8645
X11.8439Y-9.7004
X11.8743Y-8.9324
X11.9305Y-7.1541
X12.1435Y-8.9298
X12.1454Y-8.2353
X12.4147Y-8.2327
X12.4165Y-7.5381
X12.4238Y-10.1773
X12.6777Y-10.267
X12.6858Y-7.5355
X14.2517Y-7.6468
X14.2985Y-10.3751
X14.4205Y-10.1351
X14.4485Y-7.463
X14.5228Y-8.344
X14.7196Y-8.1602
X14.7939Y-9.0412
X14.9907Y-8.8573
X15.0011Y-7.2648
X15.0936Y-9.8117
X15.2072Y-7.0915
X15.2354Y-7.9752
X15.2903Y-9.6279
X15.4415Y-7.8019
X15.4696Y-8.6856
X15.6375Y-6.8062
X15.6757Y-8.5123
X15.8436Y-6.6329
X15.8718Y-7.5166
X16.0779Y-7.3433
X16.1061Y-8.227
X16.3122Y-8.0537
X16.4888Y-6.7677
X16.6855Y-7.4894
X16.7037Y-6.6055
X16.8823Y-8.2111
X16.9004Y-7.3272
X17.0972Y-8.0489
X17.4194Y-7.1012
X17.5909Y-7.8293
X17.6398Y-6.9465
X17.7623Y-8.5574
X17.8113Y-7.6747
X17.9827Y-8.4028
X18.3704Y-7.298
X18.481Y-8.0378
X18.6029Y-7.1621
X18.7135Y-7.9019
T3
X8.3037Y-8.1145
X8.4143Y-7.3747
X9.0166Y-8.6204
X9.188Y-7.8922
X9.3595Y-7.1641
X9.8945Y-8.2681
X10.0913Y-7.5464
X10.288Y-6.8248
X10.668Y-8.275
X10.9023Y-7.5646
X11.1365Y-6.8542
X11.3044Y-8.7336
X11.5387Y-8.0232
X11.6782Y-9.8506
X11.7729Y-7.3128
X11.9779Y-9.08
X12.249Y-8.3828
X12.4706Y-10.3514
X12.5201Y-7.6857
X14.4277Y-7.6857
X14.4772Y-10.3514
X14.6989Y-8.3828
X14.97Y-9.08
X15.1749Y-7.3128
X15.2696Y-9.8506
X15.4091Y-8.0232
X15.6434Y-8.7336
X15.8113Y-6.8542
X16.0456Y-7.5646
X16.2798Y-8.275
X16.6598Y-6.8248
X16.8565Y-7.5464
X17.0533Y-8.2681
X17.5883Y-7.1641
X17.7598Y-7.8922
X17.9312Y-8.6204
X18.5336Y-7.3747
X18.6441Y-8.1145
M30
