M48
; DRILL file {KiCad 8.0.2-1} date 2024-07-02T10:22:32-0400
; FORMAT={-:-/ absolute / inch / decimal}
; #@! TF.CreationDate,2024-07-02T10:22:32-04:00
; #@! TF.GenerationSoftware,Kicad,Pcbnew,8.0.2-1
; #@! TF.FileFunction,Plated,1,2,PTH
FMAT,2
INCH
; #@! TA.AperFunction,Plated,PTH,ViaDrill
T1C0.0157
; #@! TA.AperFunction,Plated,PTH,ComponentDrill
T2C0.0157
; #@! TA.AperFunction,Plated,PTH,ComponentDrill
T3C0.0390
; #@! TA.AperFunction,Plated,PTH,ComponentDrill
T4C0.0430
; #@! TA.AperFunction,Plated,PTH,ComponentDrill
T5C0.0866
%
G90
G05
T1
X8.2078Y-7.1202
X8.9217Y-7.5924
X10.7829Y-7.3004
X12.2917Y-8.1729
X12.6454Y-7.7096
X12.7472Y-7.9832
X12.7478Y-7.6545
X12.7935Y-7.9093
X14.2074Y-8.065
X14.9776Y-7.9802
T2
X8.3415Y-8.6874
X8.3535Y-8.7357
X8.3671Y-8.6448
X8.3961Y-8.7613
X8.4153Y-8.6328
X8.4444Y-8.7492
X8.4579Y-8.6584
X8.47Y-8.7066
X8.7289Y-6.8545
X8.7409Y-6.9027
X8.7545Y-6.8118
X8.7835Y-6.9283
X8.8027Y-6.7998
X8.8318Y-6.9163
X8.8453Y-6.8254
X8.8574Y-6.8737
X11.1381Y-9.2695
X11.1418Y-9.319
X11.1705Y-9.2318
X11.1794Y-9.3515
X11.2201Y-9.2281
X11.229Y-9.3478
X11.2578Y-9.2606
X11.2615Y-9.3101
X12.6351Y-9.8105
X12.6511Y-9.7635
X12.6571Y-9.8551
X12.6957Y-9.7415
X12.7042Y-9.8711
X12.7428Y-9.7574
X12.7488Y-9.8491
X12.7647Y-9.802
X12.8372Y-7.207
X12.8383Y-7.2567
X12.8715Y-7.1711
X12.8742Y-7.2911
X12.9213Y-7.17
X12.9239Y-7.29
X12.9572Y-7.2044
X12.9583Y-7.2541
X13.9896Y-7.2541
X13.9907Y-7.2044
X14.024Y-7.29
X14.0266Y-7.17
X14.0737Y-7.2911
X14.0763Y-7.1711
X14.1096Y-7.2567
X14.1107Y-7.207
X14.1831Y-9.802
X14.1991Y-9.8491
X14.2051Y-9.7574
X14.2437Y-9.8711
X14.2522Y-9.7415
X14.2907Y-9.8551
X14.2967Y-9.7635
X14.3127Y-9.8105
X15.6864Y-9.3101
X15.69Y-9.2606
X15.7188Y-9.3478
X15.7277Y-9.2281
X15.7684Y-9.3515
X15.7773Y-9.2318
X15.8061Y-9.319
X15.8097Y-9.2695
X18.0905Y-6.8737
X18.1025Y-6.8254
X18.1161Y-6.9163
X18.1451Y-6.7998
X18.1643Y-6.9283
X18.1934Y-6.8118
X18.2069Y-6.9027
X18.219Y-6.8545
X18.4779Y-8.7066
X18.4899Y-8.6584
X18.5035Y-8.7492
X18.5325Y-8.6328
X18.5517Y-8.7613
X18.5807Y-8.6448
X18.5943Y-8.7357
X18.6063Y-8.6874
T3
X8.1263Y-8.287
X8.2368Y-7.5472
X8.423Y-8.3314
X8.5335Y-7.5916
X8.8255Y-8.7776
X8.9969Y-8.0495
X9.1175Y-8.8464
X9.1684Y-7.3214
X9.2889Y-8.1182
X9.4604Y-7.3901
X9.698Y-8.4186
X9.8948Y-7.6969
X9.9875Y-8.4975
X10.0916Y-6.9752
X10.1842Y-7.7758
X10.381Y-7.0541
X10.4639Y-8.4149
X10.6982Y-7.7045
X10.7488Y-8.5089
X10.9324Y-6.9941
X10.9831Y-7.7985
X11.1003Y-8.8735
X11.2173Y-7.0881
X11.3346Y-8.1631
X11.3852Y-8.9675
X11.4671Y-9.9797
X11.5688Y-7.4527
X11.6195Y-8.2571
X11.7467Y-10.0884
X11.7667Y-9.2091
X11.8538Y-7.5467
X12.0378Y-8.5119
X12.0463Y-9.3178
X12.228Y-10.4005
X12.3089Y-7.8148
X12.3174Y-8.6207
X12.4536Y-10.5983
X12.5885Y-7.9235
X14.3593Y-7.9235
X14.4942Y-10.5983
X14.6304Y-8.6207
X14.6389Y-7.8148
X14.7198Y-10.4005
X14.9015Y-9.3178
X14.91Y-8.5119
X15.0941Y-7.5467
X15.1811Y-9.2091
X15.2012Y-10.0884
X15.3283Y-8.2571
X15.379Y-7.4527
X15.4808Y-9.9797
X15.5626Y-8.9675
X15.6132Y-8.1631
X15.7305Y-7.0881
X15.8475Y-8.8735
X15.9648Y-7.7985
X16.0154Y-6.9941
X16.199Y-8.5089
X16.2497Y-7.7045
X16.4839Y-8.4149
X16.5668Y-7.0541
X16.7636Y-7.7758
X16.8563Y-6.9752
X16.9604Y-8.4975
X17.053Y-7.6969
X17.2498Y-8.4186
X17.4875Y-7.3901
X17.6589Y-8.1182
X17.7795Y-7.3214
X17.8304Y-8.8464
X17.9509Y-8.0495
X18.1224Y-8.7776
X18.4143Y-7.5916
X18.5249Y-8.3314
X18.711Y-7.5472
X18.8216Y-8.287
T4
X13.1714Y-8.0718
X13.1714Y-7.5718
X13.1714Y-7.9718
X13.1714Y-8.4718
X13.1714Y-8.6718
X13.1714Y-8.1718
X13.1714Y-8.2718
X13.1714Y-8.3718
X13.1714Y-7.7718
X13.1714Y-7.8718
X13.1714Y-7.6718
X13.1714Y-8.5718
X13.7714Y-7.6718
X13.7714Y-8.5718
X13.7714Y-8.3718
X13.7714Y-8.4718
X13.7714Y-7.8718
X13.7714Y-7.9718
X13.7714Y-8.0718
X13.7714Y-7.5718
X13.7714Y-7.7718
X13.7714Y-8.2718
X13.7714Y-8.6718
X13.7714Y-8.1718
T5
X8.4057Y-8.697
X8.7931Y-6.8641
X11.1998Y-9.2898
X12.6999Y-9.8063
X12.8977Y-7.2306
X14.0501Y-7.2306
X14.2479Y-9.8063
X15.748Y-9.2898
X18.1547Y-6.8641
X18.5421Y-8.697
M30
