%TF.GenerationSoftware,KiCad,Pcbnew,8.0.2-1*%
%TF.CreationDate,2024-07-02T10:22:07-04:00*%
%TF.ProjectId,thesplit,74686573-706c-4697-942e-6b696361645f,rev?*%
%TF.SameCoordinates,Original*%
%TF.FileFunction,Soldermask,Top*%
%TF.FilePolarity,Negative*%
%FSLAX46Y46*%
G04 Gerber Fmt 4.6, Leading zero omitted, Abs format (unit mm)*
G04 Created by KiCad (PCBNEW 8.0.2-1) date 2024-07-02 10:22:07*
%MOMM*%
%LPD*%
G01*
G04 APERTURE LIST*
G04 Aperture macros list*
%AMRoundRect*
0 Rectangle with rounded corners*
0 $1 Rounding radius*
0 $2 $3 $4 $5 $6 $7 $8 $9 X,Y pos of 4 corners*
0 Add a 4 corners polygon primitive as box body*
4,1,4,$2,$3,$4,$5,$6,$7,$8,$9,$2,$3,0*
0 Add four circle primitives for the rounded corners*
1,1,$1+$1,$2,$3*
1,1,$1+$1,$4,$5*
1,1,$1+$1,$6,$7*
1,1,$1+$1,$8,$9*
0 Add four rect primitives between the rounded corners*
20,1,$1+$1,$2,$3,$4,$5,0*
20,1,$1+$1,$4,$5,$6,$7,0*
20,1,$1+$1,$6,$7,$8,$9,0*
20,1,$1+$1,$8,$9,$2,$3,0*%
G04 Aperture macros list end*
%ADD10C,3.100000*%
%ADD11C,1.801800*%
%ADD12C,4.087800*%
%ADD13C,2.005000*%
%ADD14RoundRect,0.050000X-1.010638X-0.747833X0.747833X-1.010638X1.010638X0.747833X-0.747833X1.010638X0*%
%ADD15RoundRect,0.050000X-0.533743X-0.526895X0.356371X-0.659924X0.533743X0.526895X-0.356371X0.659924X0*%
%ADD16RoundRect,0.050000X-1.069093X-0.661575X0.661575X-1.069093X1.069093X0.661575X-0.661575X1.069093X0*%
%ADD17RoundRect,0.050000X-0.575541X-0.480887X0.300500X-0.687168X0.575541X0.480887X-0.300500X0.687168X0*%
%ADD18RoundRect,0.050000X-1.091531X-0.623861X0.623861X-1.091531X1.091531X0.623861X-0.623861X1.091531X0*%
%ADD19RoundRect,0.050000X-0.591973X-0.460508X0.276336X-0.697236X0.591973X0.460508X-0.276336X0.697236X0*%
%ADD20RoundRect,0.050000X-1.122685X-0.565880X0.565880X-1.122685X1.122685X0.565880X-0.565880X1.122685X0*%
%ADD21RoundRect,0.050000X-0.615263X-0.428896X0.239466X-0.710743X0.615263X0.428896X-0.239466X0.710743X0*%
%ADD22RoundRect,0.050000X-1.150762X-0.506348X0.506348X-1.150762X1.150762X0.506348X-0.506348X1.150762X0*%
%ADD23RoundRect,0.050000X-0.636866X-0.396108X0.201941X-0.722302X0.636866X0.396108X-0.201941X0.722302X0*%
%ADD24RoundRect,0.050000X-1.254544X-0.082227X0.082227X-1.254544X1.254544X0.082227X-0.082227X1.254544X0*%
%ADD25RoundRect,0.050000X-0.733935X-0.154398X-0.057280X-0.747810X0.733935X0.154398X0.057280X0.747810X0*%
%ADD26RoundRect,0.050000X-0.747833X-1.010638X1.010638X-0.747833X0.747833X1.010638X-1.010638X0.747833X0*%
%ADD27RoundRect,0.050000X-0.356371X-0.659924X0.533743X-0.526895X0.356371X0.659924X-0.533743X0.526895X0*%
%ADD28RoundRect,0.050000X-0.661575X-1.069093X1.069093X-0.661575X0.661575X1.069093X-1.069093X0.661575X0*%
%ADD29RoundRect,0.050000X-0.300500X-0.687168X0.575541X-0.480887X0.300500X0.687168X-0.575541X0.480887X0*%
%ADD30RoundRect,0.050000X-0.623861X-1.091531X1.091531X-0.623861X0.623861X1.091531X-1.091531X0.623861X0*%
%ADD31RoundRect,0.050000X-0.276336X-0.697236X0.591973X-0.460508X0.276336X0.697236X-0.591973X0.460508X0*%
%ADD32RoundRect,0.050000X-0.565880X-1.122685X1.122685X-0.565880X0.565880X1.122685X-1.122685X0.565880X0*%
%ADD33RoundRect,0.050000X-0.239466X-0.710743X0.615263X-0.428896X0.239466X0.710743X-0.615263X0.428896X0*%
%ADD34RoundRect,0.050000X-0.506348X-1.150762X1.150762X-0.506348X0.506348X1.150762X-1.150762X0.506348X0*%
%ADD35RoundRect,0.050000X-0.201941X-0.722302X0.636866X-0.396108X0.201941X0.722302X-0.636866X0.396108X0*%
%ADD36RoundRect,0.050000X-0.082227X-1.254544X1.254544X-0.082227X0.082227X1.254544X-1.254544X0.082227X0*%
%ADD37RoundRect,0.050000X0.057280X-0.747810X0.733935X-0.154398X-0.057280X0.747810X-0.733935X0.154398X0*%
%ADD38RoundRect,0.050000X-0.550000X0.900000X-0.550000X-0.900000X0.550000X-0.900000X0.550000X0.900000X0*%
%ADD39C,0.800000*%
%ADD40C,4.500000*%
%ADD41C,1.852600*%
%ADD42RoundRect,0.050000X-0.876300X0.876300X-0.876300X-0.876300X0.876300X-0.876300X0.876300X0.876300X0*%
G04 APERTURE END LIST*
D10*
%TO.C,S1*%
X207521324Y-203033298D03*
X214177011Y-201459791D03*
D11*
X205889835Y-205357680D03*
X215938247Y-206859418D03*
D12*
X210914041Y-206108549D03*
%TD*%
D10*
%TO.C,S2*%
X210329690Y-184241996D03*
X216985377Y-182668489D03*
D11*
X208698201Y-186566378D03*
X218746613Y-188068116D03*
D12*
X213722407Y-187317247D03*
%TD*%
D10*
%TO.C,S3*%
X225894817Y-215611645D03*
X232657939Y-214594695D03*
D11*
X224076456Y-217792949D03*
X233965992Y-220121625D03*
D12*
X229021224Y-218957287D03*
%TD*%
D10*
%TO.C,S4*%
X230249632Y-197117434D03*
X237012754Y-196100484D03*
D11*
X228431271Y-199298738D03*
X238320807Y-201627414D03*
D12*
X233376039Y-200463076D03*
%TD*%
D10*
%TO.C,S5*%
X234604426Y-178623232D03*
X241367548Y-177606282D03*
D11*
X232786065Y-180804536D03*
X242675601Y-183133212D03*
D12*
X237730833Y-181968874D03*
%TD*%
D10*
%TO.C,S6*%
X248313475Y-206557952D03*
X255107965Y-205777643D03*
D11*
X246420096Y-208674461D03*
X256222334Y-211346863D03*
D12*
X251321215Y-210010662D03*
%TD*%
D10*
%TO.C,S7*%
X253311081Y-188226989D03*
X260105571Y-187446680D03*
D11*
X251417702Y-190343498D03*
X261219940Y-193015900D03*
D12*
X256318821Y-191679699D03*
%TD*%
D10*
%TO.C,S8*%
X258308673Y-169896022D03*
X265103163Y-169115713D03*
D11*
X256415294Y-172012531D03*
X266217532Y-174684933D03*
D12*
X261316413Y-173348732D03*
%TD*%
D10*
%TO.C,S9*%
X268144433Y-206578916D03*
X274970455Y-206155277D03*
D11*
X266142877Y-208593441D03*
X275791817Y-211775181D03*
D12*
X270967347Y-210184311D03*
%TD*%
D10*
%TO.C,S10*%
X274094539Y-188534632D03*
X280920561Y-188110993D03*
D11*
X272092983Y-190549157D03*
X281741923Y-193730897D03*
D12*
X276917453Y-192140027D03*
%TD*%
D10*
%TO.C,S11*%
X280044656Y-170490347D03*
X286870678Y-170066708D03*
D11*
X278043100Y-172504872D03*
X287692040Y-175686612D03*
D12*
X282867570Y-174095742D03*
%TD*%
D10*
%TO.C,S12*%
X284309737Y-218227213D03*
X291135759Y-217803574D03*
D11*
X282308181Y-220241738D03*
X291957121Y-223423478D03*
D12*
X287132651Y-221832608D03*
%TD*%
D10*
%TO.C,S13*%
X290259840Y-200182948D03*
X297085862Y-199759309D03*
D11*
X288258284Y-202197473D03*
X297907224Y-205379213D03*
D12*
X293082754Y-203788343D03*
%TD*%
D10*
%TO.C,S14*%
X296209946Y-182138661D03*
X303035968Y-181715022D03*
D11*
X294208390Y-184153186D03*
X303857330Y-187334926D03*
D12*
X299032860Y-185744056D03*
%TD*%
D10*
%TO.C,S15*%
X301607079Y-226883628D03*
X308445914Y-226817804D03*
D11*
X299502842Y-228790629D03*
X308972028Y-232473001D03*
D12*
X304237435Y-230631815D03*
%TD*%
D10*
%TO.C,S16*%
X308493400Y-209175509D03*
X315332235Y-209109685D03*
D11*
X306389163Y-211082510D03*
X315858349Y-214764882D03*
D12*
X311123756Y-212923696D03*
%TD*%
D10*
%TO.C,S18*%
X293995886Y-246455807D03*
X300834721Y-246389983D03*
D11*
X291891649Y-248362808D03*
X301360835Y-252045180D03*
D12*
X296626242Y-250203994D03*
%TD*%
D10*
%TO.C,S19*%
X315563813Y-258503574D03*
X322012740Y-260780746D03*
D11*
X312934250Y-259575877D03*
X320572930Y-266274831D03*
D12*
X316753590Y-262925354D03*
%TD*%
D10*
%TO.C,S20*%
X469417246Y-204159602D03*
X475322061Y-200708910D03*
D11*
X468536636Y-206859416D03*
X478585036Y-205357674D03*
D12*
X473560836Y-206108545D03*
%TD*%
D10*
%TO.C,S21*%
X466608875Y-185368308D03*
X472513690Y-181917616D03*
D11*
X465728265Y-188068122D03*
X475776665Y-186566380D03*
D12*
X470752465Y-187317251D03*
%TD*%
D10*
%TO.C,S22*%
X451162890Y-217358146D03*
X456761681Y-213430346D03*
D11*
X450508874Y-220121617D03*
X460398404Y-217792941D03*
D12*
X455453639Y-218957279D03*
%TD*%
D10*
%TO.C,S23*%
X446808083Y-198863951D03*
X452406874Y-194936151D03*
D11*
X446154067Y-201627422D03*
X456043597Y-199298746D03*
D12*
X451098832Y-200463084D03*
%TD*%
D10*
%TO.C,S24*%
X442453267Y-180369737D03*
X448052058Y-176441937D03*
D11*
X441799251Y-183133208D03*
X451688781Y-180804532D03*
D12*
X446744016Y-181968870D03*
%TD*%
D10*
%TO.C,S25*%
X428809684Y-208562242D03*
X434267984Y-204441435D03*
D11*
X428252504Y-211346849D03*
X438054744Y-208674459D03*
D12*
X433153624Y-210010654D03*
%TD*%
D10*
%TO.C,S26*%
X423812110Y-190231289D03*
X429270410Y-186110482D03*
D11*
X423254930Y-193015896D03*
X433057170Y-190343506D03*
D12*
X428156050Y-191679701D03*
%TD*%
D10*
%TO.C,S27*%
X418814517Y-171900325D03*
X424272817Y-167779518D03*
D11*
X418257337Y-174684932D03*
X428059577Y-172012542D03*
D12*
X423158457Y-173348737D03*
%TD*%
D10*
%TO.C,S28*%
X409093739Y-208965236D03*
X414328890Y-204564408D03*
D11*
X408683053Y-211775190D03*
X418332005Y-208593452D03*
D12*
X413507529Y-210184321D03*
%TD*%
D10*
%TO.C,S29*%
X403143613Y-190920935D03*
X408378764Y-186520107D03*
D11*
X402732927Y-193730889D03*
X412381879Y-190549151D03*
D12*
X407557403Y-192140020D03*
%TD*%
D10*
%TO.C,S30*%
X397193505Y-172876660D03*
X402428656Y-168475832D03*
D11*
X396782819Y-175686614D03*
X406431771Y-172504876D03*
D12*
X401607295Y-174095745D03*
%TD*%
D10*
%TO.C,S31*%
X392928439Y-220613545D03*
X398163590Y-216212717D03*
D11*
X392517753Y-223423499D03*
X402166705Y-220241761D03*
D12*
X397342229Y-221832630D03*
%TD*%
D10*
%TO.C,S32*%
X386978307Y-202569248D03*
X392213458Y-198168420D03*
D11*
X386567621Y-205379202D03*
X396216573Y-202197464D03*
D12*
X391392097Y-203788333D03*
%TD*%
D10*
%TO.C,S33*%
X381028209Y-184524971D03*
X386263360Y-180124143D03*
D11*
X380617523Y-187334925D03*
X390266475Y-184153187D03*
D12*
X385441999Y-185744056D03*
%TD*%
D10*
%TO.C,S34*%
X375765880Y-229645412D03*
X380763539Y-224976626D03*
D11*
X375502822Y-232473005D03*
X384972016Y-228790633D03*
D12*
X380237419Y-230631819D03*
%TD*%
D10*
%TO.C,S35*%
X368879578Y-211937271D03*
X373877237Y-207268485D03*
D11*
X368616520Y-214764864D03*
X378085714Y-211082492D03*
D12*
X373351117Y-212923678D03*
%TD*%
D10*
%TO.C,S36*%
X361993235Y-194229123D03*
X366990894Y-189560337D03*
D11*
X361730177Y-197056716D03*
X371199371Y-193374344D03*
D12*
X366464774Y-195215530D03*
%TD*%
D10*
%TO.C,S37*%
X383377072Y-249217584D03*
X388374731Y-244548798D03*
D11*
X383114014Y-252045177D03*
X392583208Y-248362805D03*
D12*
X387848611Y-250203991D03*
%TD*%
D10*
%TO.C,S38*%
X363182024Y-263527795D03*
X366281468Y-257431268D03*
D11*
X363901923Y-266274835D03*
X371540617Y-259575883D03*
D12*
X367721270Y-262925359D03*
%TD*%
D13*
%TO.C,D1*%
X213943144Y-211616778D03*
D14*
X206406842Y-210490480D03*
D15*
X211806871Y-211297514D03*
X208543115Y-210809744D03*
%TD*%
D13*
%TO.C,D2*%
X216751497Y-192825470D03*
D14*
X209215195Y-191699172D03*
D15*
X214615224Y-192506206D03*
X211351468Y-192018436D03*
%TD*%
D13*
%TO.C,D3*%
X231583801Y-224697417D03*
D16*
X224166657Y-222950923D03*
D17*
X229481306Y-224202354D03*
X226269152Y-223445986D03*
%TD*%
D13*
%TO.C,D4*%
X235938599Y-206203222D03*
D16*
X228521455Y-204456728D03*
D17*
X233836104Y-205708159D03*
X230623950Y-204951791D03*
%TD*%
D13*
%TO.C,D5*%
X240293406Y-187709013D03*
D16*
X232876262Y-185962519D03*
D17*
X238190911Y-187213950D03*
X234978757Y-186457582D03*
%TD*%
D13*
%TO.C,D6*%
X253681900Y-215836750D03*
D18*
X246330220Y-213832446D03*
D19*
X251597957Y-215268600D03*
X248414163Y-214400596D03*
%TD*%
D13*
%TO.C,D7*%
X258679479Y-197505791D03*
D18*
X251327799Y-195501487D03*
D19*
X256595536Y-196937641D03*
X253411742Y-196069637D03*
%TD*%
D13*
%TO.C,D8*%
X263677107Y-179174823D03*
D18*
X256325427Y-177170519D03*
D19*
X261593164Y-178606673D03*
X258409370Y-177738669D03*
%TD*%
D13*
%TO.C,D9*%
X273019881Y-216125958D03*
D20*
X265783169Y-213739662D03*
D21*
X270968522Y-215449530D03*
X267834528Y-214416090D03*
%TD*%
D13*
%TO.C,D10*%
X278970003Y-198081658D03*
D20*
X271733291Y-195695362D03*
D21*
X276918644Y-197405230D03*
X273784650Y-196371790D03*
%TD*%
D13*
%TO.C,D11*%
X284920094Y-180037389D03*
D20*
X277683382Y-177651093D03*
D21*
X282868735Y-179360961D03*
X279734741Y-178327521D03*
%TD*%
D13*
%TO.C,D12*%
X289185186Y-227774264D03*
D20*
X281948474Y-225387968D03*
D21*
X287133827Y-227097836D03*
X283999833Y-226064396D03*
%TD*%
D13*
%TO.C,D13*%
X295135292Y-209729982D03*
D20*
X287898580Y-207343686D03*
D21*
X293083933Y-209053554D03*
X289949939Y-208020114D03*
%TD*%
D13*
%TO.C,D14*%
X301085403Y-191685691D03*
D20*
X293848691Y-189299395D03*
D21*
X299034044Y-191009263D03*
X295900050Y-189975823D03*
%TD*%
D13*
%TO.C,D15*%
X305976178Y-236672759D03*
D22*
X298874286Y-233910979D03*
D23*
X303963046Y-235889893D03*
X300887418Y-234693845D03*
%TD*%
D13*
%TO.C,D16*%
X312862523Y-218964608D03*
D22*
X305760631Y-216202828D03*
D23*
X310849391Y-218181742D03*
X307773763Y-216985694D03*
%TD*%
D13*
%TO.C,D17*%
X319748818Y-201256457D03*
D22*
X312646926Y-198494677D03*
D23*
X317735686Y-200473591D03*
X314660058Y-199277543D03*
%TD*%
D13*
%TO.C,D18*%
X298364995Y-256244922D03*
D22*
X291263103Y-253483142D03*
D23*
X296351863Y-255462056D03*
X293276235Y-254266008D03*
%TD*%
D13*
%TO.C,D19*%
X316321361Y-269196685D03*
D24*
X310592341Y-264172469D03*
D25*
X314697384Y-267772496D03*
X312216318Y-265596658D03*
%TD*%
D13*
%TO.C,D20*%
X478068027Y-210490464D03*
D26*
X470531727Y-211616776D03*
D27*
X475931754Y-210809736D03*
X472668000Y-211297504D03*
%TD*%
D13*
%TO.C,D21*%
X475259652Y-191699172D03*
D26*
X467723352Y-192825484D03*
D27*
X473123379Y-192018444D03*
X469859625Y-192506212D03*
%TD*%
D13*
%TO.C,D22*%
X460308193Y-222950927D03*
D28*
X452891041Y-224697435D03*
D29*
X458205697Y-223445998D03*
X454993537Y-224202364D03*
%TD*%
D13*
%TO.C,D23*%
X455953401Y-204456703D03*
D28*
X448536249Y-206203211D03*
D29*
X453850905Y-204951774D03*
X450638745Y-205708140D03*
%TD*%
D13*
%TO.C,D24*%
X451598589Y-185962514D03*
D28*
X444181437Y-187709022D03*
D29*
X449496093Y-186457585D03*
X446283933Y-187213951D03*
%TD*%
D13*
%TO.C,D25*%
X438144645Y-213832436D03*
D30*
X430792965Y-215836742D03*
D31*
X436060702Y-214400587D03*
X432876908Y-215268591D03*
%TD*%
D13*
%TO.C,D26*%
X433147040Y-195501474D03*
D30*
X425795360Y-197505780D03*
D31*
X431063097Y-196069625D03*
X427879303Y-196937629D03*
%TD*%
D13*
%TO.C,D27*%
X428149452Y-177170529D03*
D30*
X420797772Y-179174835D03*
D31*
X426065509Y-177738680D03*
X422881715Y-178606684D03*
%TD*%
D13*
%TO.C,D28*%
X418691700Y-213739654D03*
D32*
X411454996Y-216125942D03*
D33*
X416640346Y-214416080D03*
X413506350Y-215449516D03*
%TD*%
D13*
%TO.C,D29*%
X412741586Y-195695379D03*
D32*
X405504882Y-198081667D03*
D33*
X410690232Y-196371805D03*
X407556236Y-197405241D03*
%TD*%
D13*
%TO.C,D30*%
X406791466Y-177651102D03*
D32*
X399554762Y-180037390D03*
D33*
X404740112Y-178327528D03*
X401606116Y-179360964D03*
%TD*%
D13*
%TO.C,D31*%
X402526384Y-225387957D03*
D32*
X395289680Y-227774245D03*
D33*
X400475030Y-226064383D03*
X397341034Y-227097819D03*
%TD*%
D13*
%TO.C,D32*%
X396576275Y-207343686D03*
D32*
X389339571Y-209729974D03*
D33*
X394524921Y-208020112D03*
X391390925Y-209053548D03*
%TD*%
D13*
%TO.C,D33*%
X390626174Y-189299399D03*
D32*
X383389470Y-191685687D03*
D33*
X388574820Y-189975825D03*
X385440824Y-191009261D03*
%TD*%
D13*
%TO.C,D34*%
X385600568Y-233910960D03*
D34*
X378498670Y-236672742D03*
D35*
X383587434Y-234693827D03*
X380511804Y-235889875D03*
%TD*%
D13*
%TO.C,D35*%
X378714246Y-216202834D03*
D34*
X371612348Y-218964616D03*
D35*
X376701112Y-216985701D03*
X373625482Y-218181749D03*
%TD*%
D13*
%TO.C,D36*%
X371827924Y-198494669D03*
D34*
X364726026Y-201256451D03*
D35*
X369814790Y-199277536D03*
X366739160Y-200473584D03*
%TD*%
D13*
%TO.C,D37*%
X393211777Y-253483133D03*
D34*
X386109879Y-256244915D03*
D35*
X391198643Y-254266000D03*
X388123013Y-255462048D03*
%TD*%
D13*
%TO.C,D38*%
X373882504Y-264172459D03*
D36*
X368153482Y-269196677D03*
D37*
X372258526Y-265596651D03*
X369777460Y-267772485D03*
%TD*%
D38*
%TO.C,B1*%
X340253219Y-230563125D03*
X340253215Y-224363118D03*
X343953219Y-230563120D03*
X343953215Y-224363113D03*
%TD*%
D39*
%TO.C,_1*%
X223589102Y-172715252D03*
X224977095Y-174591015D03*
X222018853Y-175328588D03*
X222363759Y-173020766D03*
X221713339Y-174103245D03*
X224671581Y-173365672D03*
X223101332Y-175979008D03*
D40*
X223345217Y-174347130D03*
D39*
X224326675Y-175673494D03*
%TD*%
%TO.C,_2*%
X460885763Y-172715233D03*
X462761524Y-174103226D03*
X460148193Y-175673475D03*
X459803282Y-173365656D03*
X459497770Y-174590994D03*
X462111101Y-173020745D03*
X461373531Y-175978987D03*
D40*
X461129647Y-174347110D03*
D39*
X462456012Y-175328564D03*
%TD*%
%TO.C,_3*%
X213749449Y-219272223D03*
X215137442Y-221147986D03*
X212179200Y-221885559D03*
X212524106Y-219577737D03*
X211873686Y-220660216D03*
X214831928Y-219922643D03*
X213261679Y-222535979D03*
D40*
X213505564Y-220904101D03*
D39*
X214487022Y-222230465D03*
%TD*%
%TO.C,_4*%
X470725399Y-219272228D03*
X472601160Y-220660221D03*
X469987829Y-222230470D03*
X469642918Y-219922651D03*
X469337406Y-221147989D03*
X471950737Y-219577740D03*
X471213167Y-222535982D03*
D40*
X470969283Y-220904105D03*
D39*
X472295648Y-221885559D03*
%TD*%
%TO.C,_5*%
X284991203Y-234393842D03*
X286041480Y-236477559D03*
X283001068Y-236703501D03*
X283731821Y-234487424D03*
X282907486Y-235444119D03*
X285947898Y-235218177D03*
X283957763Y-237527836D03*
D40*
X284474483Y-235960839D03*
D39*
X285217145Y-237434254D03*
%TD*%
%TO.C,_6*%
X399483663Y-234393854D03*
X401567379Y-235444134D03*
X399257721Y-237434270D03*
X398526963Y-235218192D03*
X398433383Y-236477570D03*
X400743041Y-234487434D03*
X400517099Y-237527850D03*
D40*
X400000381Y-235960852D03*
D39*
X401473799Y-236703512D03*
%TD*%
%TO.C,_7*%
X328199875Y-182118198D03*
X329139665Y-184254036D03*
X326091590Y-184320541D03*
X326937322Y-182145751D03*
X326064037Y-183057988D03*
X329112112Y-182991483D03*
X327003827Y-185193826D03*
D40*
X327601851Y-183656012D03*
D39*
X328266380Y-185166273D03*
%TD*%
%TO.C,_8*%
X356274980Y-182118174D03*
X358410819Y-183057965D03*
X356208468Y-185166246D03*
X355362747Y-182991453D03*
X355335189Y-184254013D03*
X357537540Y-182145732D03*
X357471028Y-185193804D03*
D40*
X356873004Y-183655989D03*
D39*
X358383261Y-184320525D03*
%TD*%
%TO.C,_9*%
X323665949Y-247839223D03*
X323818563Y-250167675D03*
X320931567Y-249187670D03*
X322470116Y-247433293D03*
X321337497Y-247991837D03*
X324224493Y-248971842D03*
X321490111Y-250320289D03*
D40*
X322578030Y-249079756D03*
D39*
X322685944Y-250726219D03*
%TD*%
%TO.C,_10*%
X360808925Y-247839228D03*
X363137375Y-247991844D03*
X361788926Y-250726229D03*
X360250374Y-248971845D03*
X360656309Y-250167678D03*
X362004758Y-247433293D03*
X362984759Y-250320294D03*
D40*
X361896842Y-249079761D03*
D39*
X363543310Y-249187677D03*
%TD*%
D41*
%TO.C,MCU1*%
X349792835Y-220263233D03*
X349792827Y-217723234D03*
X349792828Y-215183233D03*
X349792828Y-212643233D03*
X349792835Y-210103237D03*
X349792837Y-207563228D03*
X349792830Y-205023233D03*
X349792830Y-202483236D03*
X349792830Y-199943232D03*
X349792832Y-197403234D03*
X349792827Y-194863237D03*
X349792831Y-192323235D03*
X334552829Y-220263233D03*
X334552833Y-217723231D03*
X334552828Y-215183234D03*
X334552830Y-212643236D03*
X334552830Y-210103232D03*
X334552830Y-207563235D03*
X334552823Y-205023240D03*
X334552825Y-202483231D03*
X334552832Y-199943235D03*
X334552832Y-197403235D03*
X334552833Y-194863234D03*
D42*
X334552825Y-192323235D03*
%TD*%
D10*
%TO.C,S17*%
X315379737Y-191467328D03*
X322218572Y-191401504D03*
D11*
X313275500Y-193374329D03*
X322744686Y-197056701D03*
D12*
X318010093Y-195215515D03*
%TD*%
M02*
