%TF.GenerationSoftware,KiCad,Pcbnew,8.0.2-1*%
%TF.CreationDate,2024-07-02T10:22:07-04:00*%
%TF.ProjectId,thesplit,74686573-706c-4697-942e-6b696361645f,rev?*%
%TF.SameCoordinates,Original*%
%TF.FileFunction,Copper,L1,Top*%
%TF.FilePolarity,Positive*%
%FSLAX46Y46*%
G04 Gerber Fmt 4.6, Leading zero omitted, Abs format (unit mm)*
G04 Created by KiCad (PCBNEW 8.0.2-1) date 2024-07-02 10:22:07*
%MOMM*%
%LPD*%
G01*
G04 APERTURE LIST*
G04 Aperture macros list*
%AMRotRect*
0 Rectangle, with rotation*
0 The origin of the aperture is its center*
0 $1 length*
0 $2 width*
0 $3 Rotation angle, in degrees counterclockwise*
0 Add horizontal line*
21,1,$1,$2,0,0,$3*%
G04 Aperture macros list end*
%TA.AperFunction,ComponentPad*%
%ADD10C,1.905000*%
%TD*%
%TA.AperFunction,ComponentPad*%
%ADD11RotRect,1.778000X1.778000X351.500000*%
%TD*%
%TA.AperFunction,SMDPad,CuDef*%
%ADD12RotRect,0.900000X1.200000X351.500000*%
%TD*%
%TA.AperFunction,ComponentPad*%
%ADD13RotRect,1.778000X1.778000X346.750000*%
%TD*%
%TA.AperFunction,SMDPad,CuDef*%
%ADD14RotRect,0.900000X1.200000X346.750000*%
%TD*%
%TA.AperFunction,ComponentPad*%
%ADD15RotRect,1.778000X1.778000X344.750000*%
%TD*%
%TA.AperFunction,SMDPad,CuDef*%
%ADD16RotRect,0.900000X1.200000X344.750000*%
%TD*%
%TA.AperFunction,ComponentPad*%
%ADD17RotRect,1.778000X1.778000X341.750000*%
%TD*%
%TA.AperFunction,SMDPad,CuDef*%
%ADD18RotRect,0.900000X1.200000X341.750000*%
%TD*%
%TA.AperFunction,ComponentPad*%
%ADD19RotRect,1.778000X1.778000X338.750000*%
%TD*%
%TA.AperFunction,SMDPad,CuDef*%
%ADD20RotRect,0.900000X1.200000X338.750000*%
%TD*%
%TA.AperFunction,ComponentPad*%
%ADD21RotRect,1.778000X1.778000X318.750000*%
%TD*%
%TA.AperFunction,SMDPad,CuDef*%
%ADD22RotRect,0.900000X1.200000X318.750000*%
%TD*%
%TA.AperFunction,ComponentPad*%
%ADD23RotRect,1.778000X1.778000X8.500000*%
%TD*%
%TA.AperFunction,SMDPad,CuDef*%
%ADD24RotRect,0.900000X1.200000X8.500000*%
%TD*%
%TA.AperFunction,ComponentPad*%
%ADD25RotRect,1.778000X1.778000X13.250000*%
%TD*%
%TA.AperFunction,SMDPad,CuDef*%
%ADD26RotRect,0.900000X1.200000X13.250000*%
%TD*%
%TA.AperFunction,ComponentPad*%
%ADD27RotRect,1.778000X1.778000X15.250000*%
%TD*%
%TA.AperFunction,SMDPad,CuDef*%
%ADD28RotRect,0.900000X1.200000X15.250000*%
%TD*%
%TA.AperFunction,ComponentPad*%
%ADD29RotRect,1.778000X1.778000X18.250000*%
%TD*%
%TA.AperFunction,SMDPad,CuDef*%
%ADD30RotRect,0.900000X1.200000X18.250000*%
%TD*%
%TA.AperFunction,ComponentPad*%
%ADD31RotRect,1.778000X1.778000X21.250000*%
%TD*%
%TA.AperFunction,SMDPad,CuDef*%
%ADD32RotRect,0.900000X1.200000X21.250000*%
%TD*%
%TA.AperFunction,ComponentPad*%
%ADD33RotRect,1.778000X1.778000X41.250000*%
%TD*%
%TA.AperFunction,SMDPad,CuDef*%
%ADD34RotRect,0.900000X1.200000X41.250000*%
%TD*%
%TA.AperFunction,SMDPad,CuDef*%
%ADD35R,1.100000X1.800000*%
%TD*%
%TA.AperFunction,ComponentPad*%
%ADD36C,0.700000*%
%TD*%
%TA.AperFunction,ComponentPad*%
%ADD37C,4.400000*%
%TD*%
%TA.AperFunction,ComponentPad*%
%ADD38C,1.752600*%
%TD*%
%TA.AperFunction,ComponentPad*%
%ADD39R,1.752600X1.752600*%
%TD*%
%TA.AperFunction,ViaPad*%
%ADD40C,0.800000*%
%TD*%
%TA.AperFunction,Conductor*%
%ADD41C,0.250000*%
%TD*%
G04 APERTURE END LIST*
D10*
%TO.P,D1,2*%
%TO.N,outer_home*%
X213943144Y-211616778D03*
D11*
%TO.P,D1,1*%
%TO.N,P15*%
X206406842Y-210490480D03*
D12*
%TO.P,D1,2*%
%TO.N,outer_home*%
X211806871Y-211297514D03*
%TO.P,D1,1*%
%TO.N,P15*%
X208543115Y-210809744D03*
%TD*%
D10*
%TO.P,D2,2*%
%TO.N,outer_top*%
X216751497Y-192825470D03*
D11*
%TO.P,D2,1*%
%TO.N,P21*%
X209215195Y-191699172D03*
D12*
%TO.P,D2,2*%
%TO.N,outer_top*%
X214615224Y-192506206D03*
%TO.P,D2,1*%
%TO.N,P21*%
X211351468Y-192018436D03*
%TD*%
D10*
%TO.P,D3,2*%
%TO.N,pinky_bottom*%
X231583801Y-224697417D03*
D13*
%TO.P,D3,1*%
%TO.N,P16*%
X224166657Y-222950923D03*
D14*
%TO.P,D3,2*%
%TO.N,pinky_bottom*%
X229481306Y-224202354D03*
%TO.P,D3,1*%
%TO.N,P16*%
X226269152Y-223445986D03*
%TD*%
D10*
%TO.P,D4,2*%
%TO.N,pinky_home*%
X235938599Y-206203222D03*
D13*
%TO.P,D4,1*%
%TO.N,P15*%
X228521455Y-204456728D03*
D14*
%TO.P,D4,2*%
%TO.N,pinky_home*%
X233836104Y-205708159D03*
%TO.P,D4,1*%
%TO.N,P15*%
X230623950Y-204951791D03*
%TD*%
D10*
%TO.P,D5,2*%
%TO.N,pinky_top*%
X240293406Y-187709013D03*
D13*
%TO.P,D5,1*%
%TO.N,P21*%
X232876262Y-185962519D03*
D14*
%TO.P,D5,2*%
%TO.N,pinky_top*%
X238190911Y-187213950D03*
%TO.P,D5,1*%
%TO.N,P21*%
X234978757Y-186457582D03*
%TD*%
D10*
%TO.P,D6,2*%
%TO.N,ring_bottom*%
X253681900Y-215836750D03*
D15*
%TO.P,D6,1*%
%TO.N,P16*%
X246330220Y-213832446D03*
D16*
%TO.P,D6,2*%
%TO.N,ring_bottom*%
X251597957Y-215268600D03*
%TO.P,D6,1*%
%TO.N,P16*%
X248414163Y-214400596D03*
%TD*%
D10*
%TO.P,D7,2*%
%TO.N,ring_home*%
X258679479Y-197505791D03*
D15*
%TO.P,D7,1*%
%TO.N,P15*%
X251327799Y-195501487D03*
D16*
%TO.P,D7,2*%
%TO.N,ring_home*%
X256595536Y-196937641D03*
%TO.P,D7,1*%
%TO.N,P15*%
X253411742Y-196069637D03*
%TD*%
D10*
%TO.P,D8,2*%
%TO.N,ring_top*%
X263677107Y-179174823D03*
D15*
%TO.P,D8,1*%
%TO.N,P21*%
X256325427Y-177170519D03*
D16*
%TO.P,D8,2*%
%TO.N,ring_top*%
X261593164Y-178606673D03*
%TO.P,D8,1*%
%TO.N,P21*%
X258409370Y-177738669D03*
%TD*%
D10*
%TO.P,D9,2*%
%TO.N,middle_bottom*%
X273019881Y-216125958D03*
D17*
%TO.P,D9,1*%
%TO.N,P16*%
X265783169Y-213739662D03*
D18*
%TO.P,D9,2*%
%TO.N,middle_bottom*%
X270968522Y-215449530D03*
%TO.P,D9,1*%
%TO.N,P16*%
X267834528Y-214416090D03*
%TD*%
D10*
%TO.P,D10,2*%
%TO.N,middle_home*%
X278970003Y-198081658D03*
D17*
%TO.P,D10,1*%
%TO.N,P15*%
X271733291Y-195695362D03*
D18*
%TO.P,D10,2*%
%TO.N,middle_home*%
X276918644Y-197405230D03*
%TO.P,D10,1*%
%TO.N,P15*%
X273784650Y-196371790D03*
%TD*%
D10*
%TO.P,D11,2*%
%TO.N,middle_top*%
X284920094Y-180037389D03*
D17*
%TO.P,D11,1*%
%TO.N,P21*%
X277683382Y-177651093D03*
D18*
%TO.P,D11,2*%
%TO.N,middle_top*%
X282868735Y-179360961D03*
%TO.P,D11,1*%
%TO.N,P21*%
X279734741Y-178327521D03*
%TD*%
D10*
%TO.P,D12,2*%
%TO.N,index_bottom*%
X289185186Y-227774264D03*
D17*
%TO.P,D12,1*%
%TO.N,P16*%
X281948474Y-225387968D03*
D18*
%TO.P,D12,2*%
%TO.N,index_bottom*%
X287133827Y-227097836D03*
%TO.P,D12,1*%
%TO.N,P16*%
X283999833Y-226064396D03*
%TD*%
D10*
%TO.P,D13,2*%
%TO.N,index_home*%
X295135292Y-209729982D03*
D17*
%TO.P,D13,1*%
%TO.N,P15*%
X287898580Y-207343686D03*
D18*
%TO.P,D13,2*%
%TO.N,index_home*%
X293083933Y-209053554D03*
%TO.P,D13,1*%
%TO.N,P15*%
X289949939Y-208020114D03*
%TD*%
D10*
%TO.P,D14,2*%
%TO.N,index_top*%
X301085403Y-191685691D03*
D17*
%TO.P,D14,1*%
%TO.N,P21*%
X293848691Y-189299395D03*
D18*
%TO.P,D14,2*%
%TO.N,index_top*%
X299034044Y-191009263D03*
%TO.P,D14,1*%
%TO.N,P21*%
X295900050Y-189975823D03*
%TD*%
D10*
%TO.P,D15,2*%
%TO.N,inner_bottom*%
X305976178Y-236672759D03*
D19*
%TO.P,D15,1*%
%TO.N,P16*%
X298874286Y-233910979D03*
D20*
%TO.P,D15,2*%
%TO.N,inner_bottom*%
X303963046Y-235889893D03*
%TO.P,D15,1*%
%TO.N,P16*%
X300887418Y-234693845D03*
%TD*%
D10*
%TO.P,D16,2*%
%TO.N,inner_home*%
X312862523Y-218964608D03*
D19*
%TO.P,D16,1*%
%TO.N,P15*%
X305760631Y-216202828D03*
D20*
%TO.P,D16,2*%
%TO.N,inner_home*%
X310849391Y-218181742D03*
%TO.P,D16,1*%
%TO.N,P15*%
X307773763Y-216985694D03*
%TD*%
D10*
%TO.P,D17,2*%
%TO.N,inner_top*%
X319748818Y-201256457D03*
D19*
%TO.P,D17,1*%
%TO.N,P21*%
X312646926Y-198494677D03*
D20*
%TO.P,D17,2*%
%TO.N,inner_top*%
X317735686Y-200473591D03*
%TO.P,D17,1*%
%TO.N,P21*%
X314660058Y-199277543D03*
%TD*%
D10*
%TO.P,D18,2*%
%TO.N,near_thumb*%
X298364995Y-256244922D03*
D19*
%TO.P,D18,1*%
%TO.N,P10*%
X291263103Y-253483142D03*
D20*
%TO.P,D18,2*%
%TO.N,near_thumb*%
X296351863Y-255462056D03*
%TO.P,D18,1*%
%TO.N,P10*%
X293276235Y-254266008D03*
%TD*%
D10*
%TO.P,D19,2*%
%TO.N,home_thumb*%
X316321361Y-269196685D03*
D21*
%TO.P,D19,1*%
%TO.N,P10*%
X310592341Y-264172469D03*
D22*
%TO.P,D19,2*%
%TO.N,home_thumb*%
X314697384Y-267772496D03*
%TO.P,D19,1*%
%TO.N,P10*%
X312216318Y-265596658D03*
%TD*%
D10*
%TO.P,D20,2*%
%TO.N,mirror_outer_home*%
X478068027Y-210490464D03*
D23*
%TO.P,D20,1*%
%TO.N,P6*%
X470531727Y-211616776D03*
D24*
%TO.P,D20,2*%
%TO.N,mirror_outer_home*%
X475931754Y-210809736D03*
%TO.P,D20,1*%
%TO.N,P6*%
X472668000Y-211297504D03*
%TD*%
D10*
%TO.P,D21,2*%
%TO.N,mirror_outer_top*%
X475259652Y-191699172D03*
D23*
%TO.P,D21,1*%
%TO.N,P1*%
X467723352Y-192825484D03*
D24*
%TO.P,D21,2*%
%TO.N,mirror_outer_top*%
X473123379Y-192018444D03*
%TO.P,D21,1*%
%TO.N,P1*%
X469859625Y-192506212D03*
%TD*%
D10*
%TO.P,D22,2*%
%TO.N,mirror_pinky_bottom*%
X460308193Y-222950927D03*
D25*
%TO.P,D22,1*%
%TO.N,P8*%
X452891041Y-224697435D03*
D26*
%TO.P,D22,2*%
%TO.N,mirror_pinky_bottom*%
X458205697Y-223445998D03*
%TO.P,D22,1*%
%TO.N,P8*%
X454993537Y-224202364D03*
%TD*%
D10*
%TO.P,D23,2*%
%TO.N,mirror_pinky_home*%
X455953401Y-204456703D03*
D25*
%TO.P,D23,1*%
%TO.N,P6*%
X448536249Y-206203211D03*
D26*
%TO.P,D23,2*%
%TO.N,mirror_pinky_home*%
X453850905Y-204951774D03*
%TO.P,D23,1*%
%TO.N,P6*%
X450638745Y-205708140D03*
%TD*%
D10*
%TO.P,D24,2*%
%TO.N,mirror_pinky_top*%
X451598589Y-185962514D03*
D25*
%TO.P,D24,1*%
%TO.N,P1*%
X444181437Y-187709022D03*
D26*
%TO.P,D24,2*%
%TO.N,mirror_pinky_top*%
X449496093Y-186457585D03*
%TO.P,D24,1*%
%TO.N,P1*%
X446283933Y-187213951D03*
%TD*%
D10*
%TO.P,D25,2*%
%TO.N,mirror_ring_bottom*%
X438144645Y-213832436D03*
D27*
%TO.P,D25,1*%
%TO.N,P8*%
X430792965Y-215836742D03*
D28*
%TO.P,D25,2*%
%TO.N,mirror_ring_bottom*%
X436060702Y-214400587D03*
%TO.P,D25,1*%
%TO.N,P8*%
X432876908Y-215268591D03*
%TD*%
D10*
%TO.P,D26,2*%
%TO.N,mirror_ring_home*%
X433147040Y-195501474D03*
D27*
%TO.P,D26,1*%
%TO.N,P6*%
X425795360Y-197505780D03*
D28*
%TO.P,D26,2*%
%TO.N,mirror_ring_home*%
X431063097Y-196069625D03*
%TO.P,D26,1*%
%TO.N,P6*%
X427879303Y-196937629D03*
%TD*%
D10*
%TO.P,D27,2*%
%TO.N,mirror_ring_top*%
X428149452Y-177170529D03*
D27*
%TO.P,D27,1*%
%TO.N,P1*%
X420797772Y-179174835D03*
D28*
%TO.P,D27,2*%
%TO.N,mirror_ring_top*%
X426065509Y-177738680D03*
%TO.P,D27,1*%
%TO.N,P1*%
X422881715Y-178606684D03*
%TD*%
D10*
%TO.P,D28,2*%
%TO.N,mirror_middle_bottom*%
X418691700Y-213739654D03*
D29*
%TO.P,D28,1*%
%TO.N,P8*%
X411454996Y-216125942D03*
D30*
%TO.P,D28,2*%
%TO.N,mirror_middle_bottom*%
X416640346Y-214416080D03*
%TO.P,D28,1*%
%TO.N,P8*%
X413506350Y-215449516D03*
%TD*%
D10*
%TO.P,D29,2*%
%TO.N,mirror_middle_home*%
X412741586Y-195695379D03*
D29*
%TO.P,D29,1*%
%TO.N,P6*%
X405504882Y-198081667D03*
D30*
%TO.P,D29,2*%
%TO.N,mirror_middle_home*%
X410690232Y-196371805D03*
%TO.P,D29,1*%
%TO.N,P6*%
X407556236Y-197405241D03*
%TD*%
D10*
%TO.P,D30,2*%
%TO.N,mirror_middle_top*%
X406791466Y-177651102D03*
D29*
%TO.P,D30,1*%
%TO.N,P1*%
X399554762Y-180037390D03*
D30*
%TO.P,D30,2*%
%TO.N,mirror_middle_top*%
X404740112Y-178327528D03*
%TO.P,D30,1*%
%TO.N,P1*%
X401606116Y-179360964D03*
%TD*%
D10*
%TO.P,D31,2*%
%TO.N,mirror_index_bottom*%
X402526384Y-225387957D03*
D29*
%TO.P,D31,1*%
%TO.N,P8*%
X395289680Y-227774245D03*
D30*
%TO.P,D31,2*%
%TO.N,mirror_index_bottom*%
X400475030Y-226064383D03*
%TO.P,D31,1*%
%TO.N,P8*%
X397341034Y-227097819D03*
%TD*%
D10*
%TO.P,D32,2*%
%TO.N,mirror_index_home*%
X396576275Y-207343686D03*
D29*
%TO.P,D32,1*%
%TO.N,P6*%
X389339571Y-209729974D03*
D30*
%TO.P,D32,2*%
%TO.N,mirror_index_home*%
X394524921Y-208020112D03*
%TO.P,D32,1*%
%TO.N,P6*%
X391390925Y-209053548D03*
%TD*%
D10*
%TO.P,D33,2*%
%TO.N,mirror_index_top*%
X390626174Y-189299399D03*
D29*
%TO.P,D33,1*%
%TO.N,P1*%
X383389470Y-191685687D03*
D30*
%TO.P,D33,2*%
%TO.N,mirror_index_top*%
X388574820Y-189975825D03*
%TO.P,D33,1*%
%TO.N,P1*%
X385440824Y-191009261D03*
%TD*%
D10*
%TO.P,D34,2*%
%TO.N,mirror_inner_bottom*%
X385600568Y-233910960D03*
D31*
%TO.P,D34,1*%
%TO.N,P8*%
X378498670Y-236672742D03*
D32*
%TO.P,D34,2*%
%TO.N,mirror_inner_bottom*%
X383587434Y-234693827D03*
%TO.P,D34,1*%
%TO.N,P8*%
X380511804Y-235889875D03*
%TD*%
D10*
%TO.P,D35,2*%
%TO.N,mirror_inner_home*%
X378714246Y-216202834D03*
D31*
%TO.P,D35,1*%
%TO.N,P6*%
X371612348Y-218964616D03*
D32*
%TO.P,D35,2*%
%TO.N,mirror_inner_home*%
X376701112Y-216985701D03*
%TO.P,D35,1*%
%TO.N,P6*%
X373625482Y-218181749D03*
%TD*%
D10*
%TO.P,D36,2*%
%TO.N,mirror_inner_top*%
X371827924Y-198494669D03*
D31*
%TO.P,D36,1*%
%TO.N,P1*%
X364726026Y-201256451D03*
D32*
%TO.P,D36,2*%
%TO.N,mirror_inner_top*%
X369814790Y-199277536D03*
%TO.P,D36,1*%
%TO.N,P1*%
X366739160Y-200473584D03*
%TD*%
D10*
%TO.P,D37,2*%
%TO.N,mirror_near_thumb*%
X393211777Y-253483133D03*
D31*
%TO.P,D37,1*%
%TO.N,P9*%
X386109879Y-256244915D03*
D32*
%TO.P,D37,2*%
%TO.N,mirror_near_thumb*%
X391198643Y-254266000D03*
%TO.P,D37,1*%
%TO.N,P9*%
X388123013Y-255462048D03*
%TD*%
D10*
%TO.P,D38,2*%
%TO.N,mirror_home_thumb*%
X373882504Y-264172459D03*
D33*
%TO.P,D38,1*%
%TO.N,P9*%
X368153482Y-269196677D03*
D34*
%TO.P,D38,2*%
%TO.N,mirror_home_thumb*%
X372258526Y-265596651D03*
%TO.P,D38,1*%
%TO.N,P9*%
X369777460Y-267772485D03*
%TD*%
D35*
%TO.P,B1,2*%
%TO.N,RST*%
X340253219Y-230563125D03*
X340253215Y-224363118D03*
%TO.P,B1,1*%
%TO.N,GND*%
X343953219Y-230563120D03*
X343953215Y-224363113D03*
%TD*%
D36*
%TO.P,_1,1*%
%TO.N,N/C*%
X223589102Y-172715252D03*
X224977095Y-174591015D03*
X222018853Y-175328588D03*
X222363759Y-173020766D03*
X221713339Y-174103245D03*
X224671581Y-173365672D03*
X223101332Y-175979008D03*
D37*
X223345217Y-174347130D03*
D36*
X224326675Y-175673494D03*
%TD*%
%TO.P,_2,1*%
%TO.N,N/C*%
X460885763Y-172715233D03*
X462761524Y-174103226D03*
X460148193Y-175673475D03*
X459803282Y-173365656D03*
X459497770Y-174590994D03*
X462111101Y-173020745D03*
X461373531Y-175978987D03*
D37*
X461129647Y-174347110D03*
D36*
X462456012Y-175328564D03*
%TD*%
%TO.P,_3,1*%
%TO.N,N/C*%
X213749449Y-219272223D03*
X215137442Y-221147986D03*
X212179200Y-221885559D03*
X212524106Y-219577737D03*
X211873686Y-220660216D03*
X214831928Y-219922643D03*
X213261679Y-222535979D03*
D37*
X213505564Y-220904101D03*
D36*
X214487022Y-222230465D03*
%TD*%
%TO.P,_4,1*%
%TO.N,N/C*%
X470725399Y-219272228D03*
X472601160Y-220660221D03*
X469987829Y-222230470D03*
X469642918Y-219922651D03*
X469337406Y-221147989D03*
X471950737Y-219577740D03*
X471213167Y-222535982D03*
D37*
X470969283Y-220904105D03*
D36*
X472295648Y-221885559D03*
%TD*%
%TO.P,_5,1*%
%TO.N,N/C*%
X284991203Y-234393842D03*
X286041480Y-236477559D03*
X283001068Y-236703501D03*
X283731821Y-234487424D03*
X282907486Y-235444119D03*
X285947898Y-235218177D03*
X283957763Y-237527836D03*
D37*
X284474483Y-235960839D03*
D36*
X285217145Y-237434254D03*
%TD*%
%TO.P,_6,1*%
%TO.N,N/C*%
X399483663Y-234393854D03*
X401567379Y-235444134D03*
X399257721Y-237434270D03*
X398526963Y-235218192D03*
X398433383Y-236477570D03*
X400743041Y-234487434D03*
X400517099Y-237527850D03*
D37*
X400000381Y-235960852D03*
D36*
X401473799Y-236703512D03*
%TD*%
%TO.P,_7,1*%
%TO.N,N/C*%
X328199875Y-182118198D03*
X329139665Y-184254036D03*
X326091590Y-184320541D03*
X326937322Y-182145751D03*
X326064037Y-183057988D03*
X329112112Y-182991483D03*
X327003827Y-185193826D03*
D37*
X327601851Y-183656012D03*
D36*
X328266380Y-185166273D03*
%TD*%
%TO.P,_8,1*%
%TO.N,N/C*%
X356274980Y-182118174D03*
X358410819Y-183057965D03*
X356208468Y-185166246D03*
X355362747Y-182991453D03*
X355335189Y-184254013D03*
X357537540Y-182145732D03*
X357471028Y-185193804D03*
D37*
X356873004Y-183655989D03*
D36*
X358383261Y-184320525D03*
%TD*%
%TO.P,_9,1*%
%TO.N,N/C*%
X323665949Y-247839223D03*
X323818563Y-250167675D03*
X320931567Y-249187670D03*
X322470116Y-247433293D03*
X321337497Y-247991837D03*
X324224493Y-248971842D03*
X321490111Y-250320289D03*
D37*
X322578030Y-249079756D03*
D36*
X322685944Y-250726219D03*
%TD*%
%TO.P,_10,1*%
%TO.N,N/C*%
X360808925Y-247839228D03*
X363137375Y-247991844D03*
X361788926Y-250726229D03*
X360250374Y-248971845D03*
X360656309Y-250167678D03*
X362004758Y-247433293D03*
X362984759Y-250320294D03*
D37*
X361896842Y-249079761D03*
D36*
X363543310Y-249187677D03*
%TD*%
D38*
%TO.P,MCU1,24*%
%TO.N,P9*%
X349792835Y-220263233D03*
%TO.P,MCU1,23*%
%TO.N,P8*%
X349792827Y-217723234D03*
%TO.P,MCU1,22*%
%TO.N,P7*%
X349792828Y-215183233D03*
%TO.P,MCU1,21*%
%TO.N,P6*%
X349792828Y-212643233D03*
%TO.P,MCU1,20*%
%TO.N,P5*%
X349792835Y-210103237D03*
%TO.P,MCU1,19*%
%TO.N,P4*%
X349792837Y-207563228D03*
%TO.P,MCU1,18*%
%TO.N,P3*%
X349792830Y-205023233D03*
%TO.P,MCU1,17*%
%TO.N,P2*%
X349792830Y-202483236D03*
%TO.P,MCU1,16*%
%TO.N,GND*%
X349792830Y-199943232D03*
%TO.P,MCU1,15*%
X349792832Y-197403234D03*
%TO.P,MCU1,14*%
%TO.N,P0*%
X349792827Y-194863237D03*
%TO.P,MCU1,13*%
%TO.N,P1*%
X349792831Y-192323235D03*
%TO.P,MCU1,12*%
%TO.N,P10*%
X334552829Y-220263233D03*
%TO.P,MCU1,11*%
%TO.N,P16*%
X334552833Y-217723231D03*
%TO.P,MCU1,10*%
%TO.N,P14*%
X334552828Y-215183234D03*
%TO.P,MCU1,9*%
%TO.N,P15*%
X334552830Y-212643236D03*
%TO.P,MCU1,8*%
%TO.N,P18*%
X334552830Y-210103232D03*
%TO.P,MCU1,7*%
%TO.N,P19*%
X334552830Y-207563235D03*
%TO.P,MCU1,6*%
%TO.N,P20*%
X334552823Y-205023240D03*
%TO.P,MCU1,5*%
%TO.N,P21*%
X334552825Y-202483231D03*
%TO.P,MCU1,4*%
%TO.N,VCC*%
X334552832Y-199943235D03*
%TO.P,MCU1,3*%
%TO.N,RST*%
X334552832Y-197403235D03*
%TO.P,MCU1,2*%
%TO.N,GND*%
X334552833Y-194863234D03*
D39*
%TO.P,MCU1,1*%
%TO.N,RAW*%
X334552825Y-192323235D03*
%TD*%
D40*
%TO.N,P21*%
X321194321Y-195823112D03*
X323794324Y-194423113D03*
%TO.N,P15*%
X312209182Y-207591671D03*
X323777709Y-202773551D03*
%TO.N,P3*%
X360867199Y-204851086D03*
%TO.N,P4*%
X380430537Y-202696637D03*
%TO.N,P18*%
X324955895Y-200895069D03*
%TO.N,P14*%
X273884964Y-185431352D03*
%TO.N,P19*%
X226611772Y-192847469D03*
%TO.N,P20*%
X208478225Y-180852626D03*
%TD*%
D41*
%TO.N,GND*%
X349792829Y-197403233D02*
X349792832Y-199943231D01*
X349792832Y-199943231D02*
X349792828Y-199943233D01*
X334552835Y-194863236D02*
X337092830Y-197403233D01*
X337092830Y-197403233D02*
X349792829Y-197403233D01*
%TO.N,P16*%
X325141650Y-208312050D02*
X325141650Y-208312050D01*
X325141650Y-208312050D02*
X334552833Y-217723233D01*
X322941777Y-207511360D02*
X321877607Y-207511359D01*
X321877607Y-207511359D02*
X321326345Y-208062619D01*
%TO.N,P14*%
X326619774Y-207179286D02*
X326619774Y-207250180D01*
X326619774Y-207250180D02*
X334552825Y-215183233D01*
%TO.N,P15*%
X324683150Y-202773556D02*
X324683152Y-202773558D01*
X324683152Y-202773558D02*
X334552830Y-212643236D01*
%TO.N,GND*%
X347678620Y-199943238D02*
X348348806Y-199556308D01*
X348348806Y-199556308D02*
X349792830Y-199943231D01*
%TO.N,P19*%
X239035252Y-192656396D02*
X231548648Y-190650368D01*
X288096345Y-192337761D02*
X285668452Y-187131144D01*
X334552837Y-207563231D02*
X331043666Y-204054065D01*
X331043666Y-204054065D02*
X331043666Y-198132014D01*
X247160811Y-188426503D02*
X239035252Y-192656396D01*
X331043661Y-198032012D02*
X330943659Y-197932027D01*
X330943659Y-197932027D02*
X326343667Y-197932019D01*
X331043666Y-198132014D02*
X331043661Y-198032012D01*
X326343667Y-197932019D02*
X321662794Y-201209588D01*
X321662794Y-201209588D02*
X320458647Y-204116684D01*
X320458647Y-204116684D02*
X288096345Y-192337761D01*
X285668452Y-187131144D02*
X274016264Y-182890092D01*
X274016264Y-182890092D02*
X269914786Y-184802646D01*
X254514655Y-183759610D02*
X253037171Y-183293761D01*
X269914786Y-184802646D02*
X266267053Y-186908660D01*
X266267053Y-186908660D02*
X254514655Y-183759610D01*
X253037171Y-183293761D02*
X249122433Y-185331642D01*
X249122433Y-185331642D02*
X247857309Y-186217495D01*
X247857309Y-186217495D02*
X247160811Y-188426503D01*
%TO.N,P21*%
X331943664Y-197032019D02*
X329334752Y-194423115D01*
X318522750Y-198494678D02*
X312646929Y-198494675D01*
X329334752Y-194423115D02*
X323794324Y-194423113D01*
X321194321Y-195823112D02*
X318522750Y-198494678D01*
%TO.N,P6*%
X364944948Y-217078239D02*
X367717368Y-217078241D01*
X367717368Y-217078241D02*
X370139730Y-219500604D01*
%TO.N,P1*%
X349792825Y-192323235D02*
X355421358Y-194371849D01*
X355421358Y-194371849D02*
X359331723Y-202757652D01*
%TO.N,P6*%
X349792826Y-212643234D02*
X351093490Y-212036723D01*
X351093490Y-212036723D02*
X364944948Y-217078239D01*
%TO.N,P9*%
X349792833Y-220263231D02*
X367724718Y-226789904D01*
X367724718Y-226789904D02*
X373217044Y-238568235D01*
%TO.N,P8*%
X368541141Y-224547063D02*
X368625979Y-224507498D01*
X368625979Y-224507498D02*
X373440193Y-234831608D01*
X349792827Y-217723233D02*
X368541141Y-224547063D01*
X373440193Y-234831608D02*
X378498665Y-236672741D01*
%TO.N,P10*%
X299437903Y-241466541D02*
X298324553Y-241061313D01*
X311761820Y-235719801D02*
X299437903Y-241466541D01*
X311961832Y-235170264D02*
X311761820Y-235719801D01*
X320020774Y-214973998D02*
X319981689Y-214890179D01*
X334552825Y-220263229D02*
X320020774Y-214973998D01*
X319981689Y-214890179D02*
X319195053Y-215256992D01*
X319195053Y-215256992D02*
X311953622Y-235152656D01*
X311953622Y-235152656D02*
X311961832Y-235170264D01*
X298324553Y-241061313D02*
X295809628Y-247970992D01*
X295809628Y-247970992D02*
X292750089Y-249397682D01*
X292750089Y-249397682D02*
X291263105Y-253483142D01*
%TO.N,P15*%
X312209182Y-207591671D02*
X311239469Y-210255950D01*
X311239469Y-210255950D02*
X307247614Y-212117379D01*
X307247614Y-212117379D02*
X305760636Y-216202834D01*
X324683150Y-202773556D02*
X323777709Y-202773551D01*
%TO.N,P18*%
X334552826Y-210103230D02*
X325344663Y-200895069D01*
X325344663Y-200895069D02*
X324955895Y-200895069D01*
%TO.N,P16*%
X321326345Y-208062619D02*
X315854018Y-223097707D01*
X303634628Y-226795097D02*
X303011505Y-228507143D01*
X325141650Y-208312050D02*
X322941777Y-207511360D01*
X315854018Y-223097707D02*
X313444471Y-222220704D01*
X313444471Y-222220704D02*
X303634628Y-226795097D01*
X303011505Y-228507143D02*
X300397455Y-229726093D01*
X300397455Y-229726093D02*
X298874286Y-233910974D01*
%TO.N,P3*%
X360695072Y-205023232D02*
X360867199Y-204851086D01*
X349792838Y-205023234D02*
X360695072Y-205023232D01*
%TO.N,P4*%
X378232576Y-201671716D02*
X380430537Y-202696637D01*
X362045775Y-207563229D02*
X378232576Y-201671716D01*
X349792839Y-207563221D02*
X362045775Y-207563229D01*
%TO.N,P20*%
X326343661Y-197482018D02*
X325346807Y-197482016D01*
X322850116Y-194382064D02*
X324047354Y-196949575D01*
X325346807Y-197482016D02*
X324080765Y-197021210D01*
X324080765Y-197021210D02*
X324047354Y-196949575D01*
X301829931Y-189591293D02*
X302347618Y-190701473D01*
X302347618Y-190701473D02*
X313432786Y-194736150D01*
X317987535Y-192612235D02*
X322850116Y-194382064D01*
X313432786Y-194736150D02*
X317987535Y-192612235D01*
%TO.N,P14*%
X276822891Y-189054699D02*
X326619774Y-207179286D01*
X273884964Y-185431352D02*
X275388469Y-185978591D01*
X275388469Y-185978591D02*
X276822891Y-189054699D01*
%TO.N,P19*%
X230775915Y-190443318D02*
X226611772Y-192847469D01*
X231548648Y-190650368D02*
X230775915Y-190443318D01*
%TO.N,P20*%
X211705043Y-178593186D02*
X208478225Y-180852626D01*
X222540518Y-180503766D02*
X211705043Y-178593186D01*
X223431941Y-181903037D02*
X222540518Y-180503766D01*
X229927915Y-183343143D02*
X223431941Y-181903037D01*
X243072474Y-186257229D02*
X229927915Y-183343143D01*
X244570141Y-181507239D02*
X243072474Y-186257229D01*
X256691168Y-175197437D02*
X244570141Y-181507239D01*
X267898050Y-178730955D02*
X256691168Y-175197437D01*
X275844663Y-175025384D02*
X267898050Y-178730955D01*
X285241590Y-178445578D02*
X275844663Y-175025384D01*
X292433000Y-186171093D02*
X291715792Y-184633038D01*
X301829931Y-189591293D02*
X292433000Y-186171093D01*
X289564176Y-180018880D02*
X285241590Y-178445578D01*
X291715792Y-184633038D02*
X289564176Y-180018880D01*
%TO.N,P21*%
X334552833Y-202483228D02*
X332794868Y-202483226D01*
X332794868Y-202483226D02*
X331943661Y-201632017D01*
X331943661Y-201632017D02*
X331943664Y-197032019D01*
%TO.N,GND*%
X347678620Y-199943238D02*
X343953216Y-203668635D01*
X343953216Y-203668635D02*
X343953218Y-224363117D01*
%TO.N,RST*%
X334552834Y-197403241D02*
X340266775Y-203117171D01*
X340253214Y-221568635D02*
X340253209Y-224363122D01*
X340266775Y-203117171D02*
X340266773Y-221555079D01*
X340266773Y-221555079D02*
X340253214Y-221568635D01*
%TO.N,P9*%
X377389694Y-250032483D02*
X373217044Y-238568235D01*
X368153489Y-269196677D02*
X370627773Y-263890531D01*
X374520865Y-256184702D02*
X377389694Y-250032483D01*
X370627773Y-263890531D02*
X370988865Y-263759109D01*
X370988865Y-263759109D02*
X374520865Y-256184702D01*
%TO.N,P6*%
X371612352Y-218964620D02*
X370139730Y-219500604D01*
%TO.N,P1*%
X359888363Y-203017219D02*
X359331723Y-202757652D01*
X364726030Y-201256452D02*
X359888363Y-203017219D01*
%TO.N,GND*%
X343953233Y-230563117D02*
X343953220Y-224363114D01*
X343953220Y-224363114D02*
X343953216Y-224363112D01*
%TO.N,RST*%
X340253230Y-230563122D02*
X340253223Y-224363127D01*
X340253223Y-224363127D02*
X340253217Y-224363126D01*
%TO.N,P9*%
X386109862Y-256244923D02*
X386420991Y-257406050D01*
X373759898Y-269153395D02*
X369879439Y-270193153D01*
X386420991Y-257406050D02*
X384674356Y-260431326D01*
X384674356Y-260431326D02*
X377719690Y-262294817D01*
X377719690Y-262294817D02*
X373759898Y-269153395D01*
X369879439Y-270193153D02*
X368153497Y-269196676D01*
%TO.N,P8*%
X393832056Y-228164845D02*
X389591644Y-235509442D01*
X395289697Y-227774279D02*
X393832056Y-228164845D01*
X380638791Y-237908350D02*
X378498671Y-236672747D01*
X389591644Y-235509442D02*
X380638791Y-237908350D01*
X411454987Y-216125959D02*
X408156781Y-221838604D01*
X407315642Y-222063993D02*
X407677979Y-223416286D01*
X408156781Y-221838604D02*
X407315642Y-222063993D01*
X407677979Y-223416286D02*
X405415244Y-227335477D01*
X405415244Y-227335477D02*
X397980263Y-229327664D01*
X397980263Y-229327664D02*
X395289697Y-227774279D01*
X426322866Y-217034493D02*
X424533159Y-216001198D01*
X430792957Y-215836731D02*
X426322866Y-217034493D01*
X424533159Y-216001198D02*
X415453014Y-218434205D01*
X415453014Y-218434205D02*
X411454987Y-216125959D01*
X452891063Y-224697438D02*
X446104866Y-220779432D01*
X446104866Y-220779432D02*
X445225260Y-217496634D01*
X442530823Y-215940992D02*
X433837481Y-218270379D01*
X445225260Y-217496634D02*
X442530823Y-215940992D01*
X433837481Y-218270379D02*
X431007206Y-216636307D01*
X431007206Y-216636307D02*
X430792957Y-215836731D01*
%TO.N,P6*%
X389633997Y-210828770D02*
X385512466Y-217967494D01*
X389339568Y-209729991D02*
X389633997Y-210828770D01*
X374838922Y-220827457D02*
X371612359Y-218964597D01*
X385512466Y-217967494D02*
X374838922Y-220827457D01*
X405912725Y-199603777D02*
X400497677Y-208982874D01*
X405504881Y-198081679D02*
X405912725Y-199603777D01*
X400497677Y-208982874D02*
X391992737Y-211261773D01*
X391992737Y-211261773D02*
X389339568Y-209729991D01*
X425795357Y-197505778D02*
X411255409Y-201401749D01*
X411255409Y-201401749D02*
X405504881Y-198081679D01*
X448536253Y-206203210D02*
X447982994Y-206351460D01*
X447982994Y-206351460D02*
X437023542Y-200024033D01*
X431614376Y-201473427D02*
X425988098Y-198225096D01*
X425988098Y-198225096D02*
X425795357Y-197505778D01*
X437023542Y-200024033D02*
X431614376Y-201473427D01*
X467546090Y-212143235D02*
X460785011Y-207409078D01*
X470531733Y-211616781D02*
X467546090Y-212143235D01*
X460785011Y-207409078D02*
X452375960Y-208891815D01*
X452375960Y-208891815D02*
X448536253Y-206203210D01*
%TO.N,P1*%
X383759052Y-193064994D02*
X380031029Y-199522086D01*
X380031029Y-199522086D02*
X367525749Y-202872873D01*
X383389459Y-191685695D02*
X383759052Y-193064994D01*
X367525749Y-202872873D02*
X364726022Y-201256460D01*
X399554768Y-180037400D02*
X399986017Y-181646790D01*
X399986017Y-181646790D02*
X394115976Y-191813996D01*
X394115976Y-191813996D02*
X386941429Y-193736436D01*
X386941429Y-193736436D02*
X383389459Y-191685695D01*
X413894639Y-181024496D02*
X411081091Y-179400125D01*
X420797774Y-179174821D02*
X413894639Y-181024496D01*
X411081091Y-179400125D02*
X402454553Y-181711581D01*
X402454553Y-181711581D02*
X399554768Y-180037400D01*
X443766892Y-187820104D02*
X431038360Y-180471294D01*
X444181439Y-187709015D02*
X443766892Y-187820104D01*
X431038360Y-180471294D02*
X425577646Y-181934477D01*
X425577646Y-181934477D02*
X420797774Y-179174821D01*
X463172647Y-193627900D02*
X454732255Y-187717852D01*
X454732255Y-187717852D02*
X446313968Y-189202228D01*
X467723349Y-192825485D02*
X463172647Y-193627900D01*
X446313968Y-189202228D02*
X444181442Y-187709019D01*
%TO.N,P10*%
X291263095Y-253483143D02*
X290616729Y-255259012D01*
X290616729Y-255259012D02*
X291539454Y-257237779D01*
X291539454Y-257237779D02*
X310592344Y-264172455D01*
%TO.N,P16*%
X281948481Y-225387964D02*
X281489182Y-226649850D01*
X282013445Y-227774125D02*
X298874299Y-233910966D01*
X281489182Y-226649850D02*
X282013445Y-227774125D01*
X265783166Y-213739663D02*
X265309311Y-215041578D01*
X265309311Y-215041578D02*
X266290631Y-217146005D01*
X266290631Y-217146005D02*
X280520268Y-222325170D01*
X280520268Y-222325170D02*
X281948481Y-225387964D01*
X246330221Y-213832426D02*
X245989247Y-214769256D01*
X246879759Y-216678929D02*
X255149054Y-219688718D01*
X245989247Y-214769256D02*
X246879759Y-216678929D01*
X265349051Y-214932367D02*
X265783166Y-213739663D01*
X255149054Y-219688718D02*
X265349051Y-214932367D01*
X224166655Y-222950934D02*
X223982061Y-223458107D01*
X224937249Y-225506523D02*
X229635709Y-227216614D01*
X223982061Y-223458107D02*
X224937249Y-225506523D01*
X229635709Y-227216614D02*
X237582331Y-223511049D01*
X237582331Y-223511049D02*
X240181679Y-216369382D01*
X240181679Y-216369382D02*
X245932564Y-213687706D01*
X245932564Y-213687706D02*
X246330221Y-213832426D01*
%TO.N,P15*%
X287898571Y-207343672D02*
X289222844Y-210183567D01*
X289222844Y-210183567D02*
X305760615Y-216202831D01*
X271733283Y-195695361D02*
X271255687Y-197007543D01*
X271255687Y-197007543D02*
X271986100Y-198573936D01*
X271986100Y-198573936D02*
X284577990Y-203157020D01*
X284577990Y-203157020D02*
X286250569Y-206743848D01*
X286250569Y-206743848D02*
X287898571Y-207343672D01*
X250890798Y-197132443D02*
X251652207Y-198451250D01*
X251652207Y-198451250D02*
X262107592Y-201252770D01*
X251327819Y-195501465D02*
X250890798Y-197132443D01*
X262107592Y-201252770D02*
X271733290Y-195695363D01*
X228521455Y-204456716D02*
X228256369Y-205446035D01*
X250595746Y-195305325D02*
X251327819Y-195501465D01*
X228256369Y-205446035D02*
X229238040Y-207146315D01*
X229238040Y-207146315D02*
X235033597Y-208699226D01*
X245984218Y-197967793D02*
X250595746Y-195305325D01*
X235033597Y-208699226D02*
X244586594Y-203183796D01*
X244586594Y-203183796D02*
X245984218Y-197967793D01*
X206918845Y-212979440D02*
X214403398Y-214299166D01*
X206406835Y-210490483D02*
X206159247Y-211894618D01*
X228472249Y-204448040D02*
X228521441Y-204456713D01*
X206159247Y-211894618D02*
X206918845Y-212979440D01*
X214403398Y-214299166D02*
X228472249Y-204448040D01*
%TO.N,P21*%
X293848685Y-189299386D02*
X295170356Y-192133720D01*
X295170356Y-192133720D02*
X312646942Y-198494677D01*
X277671930Y-180913000D02*
X291015587Y-185769679D01*
X277683382Y-177651085D02*
X277011590Y-179496869D01*
X277011590Y-179496869D02*
X277671930Y-180913000D01*
X291015587Y-185769679D02*
X292418839Y-188778971D01*
X292418839Y-188778971D02*
X293848685Y-189299386D01*
X255918743Y-179476922D02*
X256824444Y-180770436D01*
X256325425Y-177170519D02*
X255918743Y-179476922D01*
X256824444Y-180770436D02*
X269928602Y-183081050D01*
X269928602Y-183081050D02*
X277683385Y-177651096D01*
X232876259Y-185962512D02*
X232625272Y-187386045D01*
X233665787Y-188872061D02*
X241347301Y-190226507D01*
X232625272Y-187386045D02*
X233665787Y-188872061D01*
X241347301Y-190226507D02*
X255808786Y-180100460D01*
X255808786Y-180100460D02*
X256325425Y-177170519D01*
X209215218Y-191699159D02*
X210813250Y-193981366D01*
X210813250Y-193981366D02*
X219289620Y-195475991D01*
X219289620Y-195475991D02*
X232876259Y-185962512D01*
%TO.N,P6*%
X472668006Y-211297515D02*
X470597244Y-211662642D01*
X470597244Y-211662642D02*
X470531731Y-211616769D01*
%TO.N,mirror_outer_home*%
X475931761Y-210809749D02*
X478002535Y-210444603D01*
X478002535Y-210444603D02*
X478068035Y-210490466D01*
%TO.N,mirror_outer_top*%
X473123390Y-192018437D02*
X475194157Y-191653302D01*
X475194157Y-191653302D02*
X475259671Y-191699169D01*
%TO.N,P1*%
X469859610Y-192506213D02*
X467788858Y-192871333D01*
X467788858Y-192871333D02*
X467723345Y-192825470D01*
%TO.N,mirror_pinky_top*%
X449496107Y-186457585D02*
X451517792Y-185915869D01*
X451517792Y-185915869D02*
X451598599Y-185962517D01*
%TO.N,P1*%
X446283936Y-187213952D02*
X444262236Y-187755669D01*
X444262236Y-187755669D02*
X444181440Y-187709013D01*
%TO.N,mirror_pinky_home*%
X453850899Y-204951803D02*
X455872613Y-204410082D01*
X455872613Y-204410082D02*
X455953403Y-204456732D01*
%TO.N,P6*%
X450638737Y-205708158D02*
X448617034Y-206249872D01*
X448617034Y-206249872D02*
X448536256Y-206203239D01*
%TO.N,mirror_pinky_bottom*%
X458205728Y-223446010D02*
X460227421Y-222904291D01*
X460227421Y-222904291D02*
X460308225Y-222950935D01*
%TO.N,P8*%
X454993560Y-224202354D02*
X452971849Y-224744075D01*
X452971849Y-224744075D02*
X452891066Y-224697423D01*
%TO.N,mirror_ring_bottom*%
X436060700Y-214400594D02*
X438137981Y-213843974D01*
X438137981Y-213843974D02*
X438144634Y-213832431D01*
%TO.N,P8*%
X432876899Y-215268596D02*
X430799631Y-215825179D01*
X430799631Y-215825179D02*
X430792949Y-215836734D01*
%TO.N,mirror_ring_home*%
X431063088Y-196069642D02*
X433140370Y-195513020D01*
X433140370Y-195513020D02*
X433147042Y-195501491D01*
%TO.N,P6*%
X427879294Y-196937622D02*
X425802018Y-197494247D01*
X425802018Y-197494247D02*
X425795365Y-197505787D01*
%TO.N,mirror_ring_top*%
X426065507Y-177738673D02*
X428142797Y-177182045D01*
X428142797Y-177182045D02*
X428149448Y-177170522D01*
%TO.N,P1*%
X422881714Y-178606683D02*
X420804452Y-179163269D01*
X420804452Y-179163269D02*
X420797775Y-179174820D01*
%TO.N,mirror_middle_top*%
X404740128Y-178327522D02*
X406706933Y-177611659D01*
X406706933Y-177611659D02*
X406791479Y-177651085D01*
%TO.N,P1*%
X401606120Y-179360953D02*
X399639315Y-180076825D01*
X399639315Y-180076825D02*
X399554756Y-180037380D01*
%TO.N,mirror_middle_home*%
X410690221Y-196371821D02*
X412657046Y-195655943D01*
X412657046Y-195655943D02*
X412741586Y-195695364D01*
%TO.N,P6*%
X407556234Y-197405233D02*
X405589415Y-198121111D01*
X405589415Y-198121111D02*
X405504887Y-198081685D01*
%TO.N,mirror_middle_bottom*%
X416640338Y-214416082D02*
X418607149Y-213700223D01*
X418607149Y-213700223D02*
X418691689Y-213739656D01*
%TO.N,P8*%
X413506342Y-215449525D02*
X411539538Y-216165383D01*
X411539538Y-216165383D02*
X411454998Y-216125964D01*
%TO.N,mirror_index_bottom*%
X400475039Y-226064383D02*
X402441865Y-225348540D01*
X402441865Y-225348540D02*
X402526401Y-225387964D01*
%TO.N,P8*%
X397341035Y-227097831D02*
X395374226Y-227813703D01*
X395374226Y-227813703D02*
X395289684Y-227774267D01*
%TO.N,mirror_index_home*%
X394524923Y-208020102D02*
X396491742Y-207304252D01*
X396491742Y-207304252D02*
X396576287Y-207343672D01*
%TO.N,P6*%
X391390925Y-209053552D02*
X389424133Y-209769399D01*
X389424133Y-209769399D02*
X389339581Y-209729995D01*
%TO.N,mirror_index_top*%
X388574825Y-189975822D02*
X390541626Y-189259978D01*
X390541626Y-189259978D02*
X390626170Y-189299409D01*
%TO.N,P1*%
X385440818Y-191009268D02*
X383474012Y-191725124D01*
X383474012Y-191725124D02*
X383389491Y-191685703D01*
%TO.N,mirror_near_thumb*%
X391198632Y-254266006D02*
X393183606Y-253543539D01*
X393183606Y-253543539D02*
X393211777Y-253483129D01*
%TO.N,P9*%
X388123015Y-255462053D02*
X386138039Y-256184531D01*
X386138039Y-256184531D02*
X386109867Y-256244923D01*
%TO.N,mirror_inner_bottom*%
X383587435Y-234693842D02*
X385572417Y-233971371D01*
X385572417Y-233971371D02*
X385600571Y-233910984D01*
%TO.N,P8*%
X380511796Y-235889899D02*
X378526831Y-236612358D01*
X378526831Y-236612358D02*
X378498672Y-236672755D01*
%TO.N,mirror_inner_home*%
X376701123Y-216985708D02*
X378686093Y-216263217D01*
X378686093Y-216263217D02*
X378714251Y-216202835D01*
%TO.N,P6*%
X373625496Y-218181723D02*
X371640518Y-218904214D01*
X371640518Y-218904214D02*
X371612346Y-218964604D01*
%TO.N,mirror_inner_top*%
X369814802Y-199277549D02*
X371799764Y-198555066D01*
X371799764Y-198555066D02*
X371827920Y-198494680D01*
%TO.N,P1*%
X366739160Y-200473597D02*
X364754199Y-201196063D01*
X364754199Y-201196063D02*
X364726026Y-201256469D01*
%TO.N,mirror_home_thumb*%
X372258536Y-265596646D02*
X373876709Y-264238842D01*
X373876709Y-264238842D02*
X373882517Y-264172461D01*
%TO.N,P9*%
X369777444Y-267772490D02*
X368159314Y-269130284D01*
X368159314Y-269130284D02*
X368153489Y-269196664D01*
%TO.N,home_thumb*%
X314697394Y-267772508D02*
X316315568Y-269130291D01*
X316315568Y-269130291D02*
X316321369Y-269196690D01*
%TO.N,P10*%
X312216333Y-265596656D02*
X310598164Y-264238851D01*
X310598164Y-264238851D02*
X310592355Y-264172456D01*
%TO.N,near_thumb*%
X296351853Y-255462052D02*
X298336821Y-256184527D01*
X298336821Y-256184527D02*
X298364994Y-256244925D01*
%TO.N,P10*%
X293276237Y-254266004D02*
X291291248Y-253543535D01*
X291291248Y-253543535D02*
X291263099Y-253483135D01*
%TO.N,inner_bottom*%
X303963042Y-235889884D02*
X305948031Y-236612354D01*
X305948031Y-236612354D02*
X305976189Y-236672756D01*
%TO.N,P16*%
X300887417Y-234693846D02*
X298902451Y-233971359D01*
X298902451Y-233971359D02*
X298874298Y-233910969D01*
%TO.N,inner_home*%
X310849382Y-218181738D02*
X312834342Y-218904212D01*
X312834342Y-218904212D02*
X312862534Y-218964593D01*
%TO.N,P15*%
X307773753Y-216985708D02*
X305788782Y-216263213D01*
X305788782Y-216263213D02*
X305760613Y-216202832D01*
%TO.N,inner_top*%
X317735704Y-200473589D02*
X319720671Y-201196063D01*
X319720671Y-201196063D02*
X319748843Y-201256454D01*
%TO.N,P21*%
X314660061Y-199277557D02*
X312675106Y-198555062D01*
X312675106Y-198555062D02*
X312646937Y-198494672D01*
%TO.N,index_top*%
X299034046Y-191009264D02*
X301000869Y-191725121D01*
X301000869Y-191725121D02*
X301085403Y-191685705D01*
%TO.N,P21*%
X295900045Y-189975832D02*
X293933247Y-189259977D01*
X293933247Y-189259977D02*
X293848699Y-189299380D01*
%TO.N,index_home*%
X293083942Y-209053545D02*
X295050748Y-209769411D01*
X295050748Y-209769411D02*
X295135299Y-209729980D01*
%TO.N,P15*%
X289949936Y-208020129D02*
X287983124Y-207304261D01*
X287983124Y-207304261D02*
X287898583Y-207343691D01*
%TO.N,index_bottom*%
X287133816Y-227097816D02*
X289100633Y-227813704D01*
X289100633Y-227813704D02*
X289185170Y-227774257D01*
%TO.N,P16*%
X283999818Y-226064389D02*
X282033024Y-225348538D01*
X282033024Y-225348538D02*
X281948468Y-225387955D01*
%TO.N,middle_bottom*%
X270968515Y-215449528D02*
X272935327Y-216165386D01*
X272935327Y-216165386D02*
X273019869Y-216125962D01*
%TO.N,P16*%
X267834517Y-214416074D02*
X265867704Y-213700234D01*
X265867704Y-213700234D02*
X265783153Y-213739649D01*
%TO.N,middle_home*%
X276918654Y-197405250D02*
X278885432Y-198121101D01*
X278885432Y-198121101D02*
X278970010Y-198081683D01*
%TO.N,P15*%
X273784642Y-196371805D02*
X271817825Y-195655940D01*
X271817825Y-195655940D02*
X271733277Y-195695375D01*
%TO.N,middle_top*%
X282868744Y-179360961D02*
X284835557Y-180076818D01*
X284835557Y-180076818D02*
X284920086Y-180037394D01*
%TO.N,P21*%
X279734751Y-178327510D02*
X277767943Y-177611663D01*
X277767943Y-177611663D02*
X277683399Y-177651091D01*
%TO.N,ring_top*%
X261593154Y-178606664D02*
X263447850Y-179281724D01*
X263447850Y-179281724D02*
X263677093Y-179174813D01*
%TO.N,P21*%
X258409359Y-177738671D02*
X256554667Y-177063628D01*
X256554667Y-177063628D02*
X256325425Y-177170513D01*
%TO.N,ring_home*%
X256595562Y-196937638D02*
X258450242Y-197612677D01*
X258450242Y-197612677D02*
X258679499Y-197505783D01*
%TO.N,P15*%
X253411744Y-196069620D02*
X251557078Y-195394579D01*
X251557078Y-195394579D02*
X251327819Y-195501477D01*
%TO.N,ring_bottom*%
X251597973Y-215268592D02*
X253452644Y-215943631D01*
X253452644Y-215943631D02*
X253681902Y-215836743D01*
%TO.N,P16*%
X248414159Y-214400579D02*
X246559480Y-213725531D01*
X246559480Y-213725531D02*
X246330222Y-213832456D01*
%TO.N,pinky_bottom*%
X229481298Y-224202359D02*
X231484475Y-224555572D01*
X231484475Y-224555572D02*
X231583817Y-224697438D01*
%TO.N,P16*%
X226269156Y-223445986D02*
X224266003Y-223092773D01*
X224266003Y-223092773D02*
X224166643Y-222950933D01*
%TO.N,pinky_home*%
X233836113Y-205708158D02*
X235839292Y-206061377D01*
X235839292Y-206061377D02*
X235938610Y-206203220D01*
%TO.N,P15*%
X230623950Y-204951785D02*
X228620788Y-204598585D01*
X228620788Y-204598585D02*
X228521447Y-204456717D01*
%TO.N,pinky_top*%
X238190917Y-187213953D02*
X240194083Y-187567157D01*
X240194083Y-187567157D02*
X240293421Y-187709042D01*
%TO.N,P21*%
X234978765Y-186457590D02*
X232975597Y-186104372D01*
X232975597Y-186104372D02*
X232876259Y-185962512D01*
%TO.N,outer_home*%
X211806860Y-211297518D02*
X213877635Y-211662645D01*
X213877635Y-211662645D02*
X213943138Y-211616772D01*
%TO.N,P15*%
X208543108Y-210809730D02*
X206472331Y-210444597D01*
X206472331Y-210444597D02*
X206406822Y-210490457D01*
%TO.N,outer_top*%
X214615240Y-192506200D02*
X216686027Y-192871335D01*
X216686027Y-192871335D02*
X216751509Y-192825476D01*
%TO.N,P21*%
X211351481Y-192018426D02*
X209280711Y-191653284D01*
X209280711Y-191653284D02*
X209215222Y-191699165D01*
%TO.N,P20*%
X331493658Y-200832014D02*
X331493666Y-197582018D01*
X331393656Y-197482018D02*
X331343663Y-197482018D01*
X331493659Y-201964066D02*
X331493658Y-200832014D01*
X331493666Y-197582018D02*
X331393656Y-197482018D01*
X334552830Y-205023228D02*
X331493659Y-201964066D01*
X331343663Y-197482018D02*
X326343661Y-197482018D01*
%TD*%
M02*
