0
SECTION
2
HEADER
9
$INSUNITS
70
4
0
ENDSEC
0
SECTION
2
TABLES
0
TABLE
2
LTYPE
0
LTYPE
72
65
70
64
2
CONTINUOUS
3
______
73
0
40
0
0
ENDTAB
0
TABLE
2
LAYER
0
ENDTAB
0
ENDSEC
0
SECTION
2
ENTITIES
0
LINE
8
0
10
162.1059994
20
-56.7901339
11
106.1575658
21
-56.7901339
0
LINE
8
0
10
106.1575658
20
-56.7901339
11
92.5982673
21
-43.7888715
0
LINE
8
0
10
92.5982673
20
-43.7888715
11
-15.0966193
21
5.5422998
0
LINE
8
0
10
-15.0966193
20
5.5422998
11
-8.4082435
21
50.2952676
0
LINE
8
0
10
-8.4082435
20
50.2952676
11
46.3946874
21
66.4692567
0
LINE
8
0
10
46.3946874
20
66.4692567
11
68.7359379
21
66.0585296
0
LINE
8
0
10
68.7359379
20
66.0585296
11
127.3017095
21
45.450882
0
LINE
8
0
10
127.3017095
20
45.450882
11
140.9618557
21
45.450882
0
LINE
8
0
10
140.9618557
20
45.450882
11
199.5276273
21
66.0585296
0
LINE
8
0
10
199.5276273
20
66.0585296
11
221.8688778
21
66.4692567
0
LINE
8
0
10
221.8688778
20
66.4692567
11
276.6718087
21
50.2952676
0
LINE
8
0
10
276.6718087
20
50.2952676
11
283.3601845
21
5.5422998
0
LINE
8
0
10
283.3601845
20
5.5422998
11
175.6652979
21
-43.7888715
0
LINE
8
0
10
175.6652979
20
-43.7888715
11
162.1059994
21
-56.7901339
0
LINE
8
0
10
-7.707255
20
11.0101417
11
10.5895385
21
8.2756676
0
LINE
8
0
10
10.5895385
20
8.2756676
11
13.3240126
21
26.5724611
0
LINE
8
0
10
13.3240126
20
26.5724611
11
-4.9727809
21
29.3069352
0
LINE
8
0
10
-4.9727809
20
29.3069352
11
-7.707255
21
11.0101417
0
LINE
8
0
10
-4.8988763
20
29.8014431
11
13.3979172
21
27.066969
0
LINE
8
0
10
13.3979172
20
27.066969
11
16.1323913
21
45.3637625
0
LINE
8
0
10
16.1323913
20
45.3637625
11
-2.1644022
21
48.0982366
0
LINE
8
0
10
-2.1644022
20
48.0982366
11
-4.8988763
21
29.8014431
0
LINE
8
0
10
9.7917192
20
-0.9410946
11
27.7992355
21
-5.1813019
0
LINE
8
0
10
27.7992355
20
-5.1813019
11
32.0394428
21
12.8262144
0
LINE
8
0
10
32.0394428
20
12.8262144
11
14.0319265
21
17.0664217
0
LINE
8
0
10
14.0319265
20
17.0664217
11
9.7917192
21
-0.9410946
0
LINE
8
0
10
14.1465266
20
17.5531114
11
32.1540429
21
13.3129041
0
LINE
8
0
10
32.1540429
20
13.3129041
11
36.3942502
21
31.3204204
0
LINE
8
0
10
36.3942502
20
31.3204204
11
18.3867339
21
35.5606277
0
LINE
8
0
10
18.3867339
20
35.5606277
11
14.1465266
21
17.5531114
0
LINE
8
0
10
18.501334
20
36.0473174
11
36.5088503
21
31.8071101
0
LINE
8
0
10
36.5088503
20
31.8071101
11
40.7490576
21
49.8146264
0
LINE
8
0
10
40.7490576
20
49.8146264
11
22.7415413
21
54.0548337
0
LINE
8
0
10
22.7415413
20
54.0548337
11
18.501334
21
36.0473174
0
LINE
8
0
10
31.8582534
20
8.3979464
11
49.7068189
21
3.5318689
0
LINE
8
0
10
49.7068189
20
3.5318689
11
54.5728964
21
21.3804344
0
LINE
8
0
10
54.5728964
20
21.3804344
11
36.7243309
21
26.2465119
0
LINE
8
0
10
36.7243309
20
26.2465119
11
31.8582534
21
8.3979464
0
LINE
8
0
10
36.8558464
20
26.7289055
11
54.7044119
21
21.862828
0
LINE
8
0
10
54.7044119
20
21.862828
11
59.5704894
21
39.7113935
0
LINE
8
0
10
59.5704894
20
39.7113935
11
41.7219239
21
44.577471
0
LINE
8
0
10
41.7219239
20
44.577471
11
36.8558464
21
26.7289055
0
LINE
8
0
10
41.8534395
20
45.0598647
11
59.702005
21
40.1937872
0
LINE
8
0
10
59.702005
20
40.1937872
11
64.5680825
21
58.0423527
0
LINE
8
0
10
64.5680825
20
58.0423527
11
46.719517
21
62.9084302
0
LINE
8
0
10
46.719517
20
62.9084302
11
41.8534395
21
45.0598647
0
LINE
8
0
10
51.1802081
20
8.8275822
11
68.7496419
21
3.0340518
0
LINE
8
0
10
68.7496419
20
3.0340518
11
74.5431723
21
20.6034856
0
LINE
8
0
10
74.5431723
20
20.6034856
11
56.9737385
21
26.397016
0
LINE
8
0
10
56.9737385
20
26.397016
11
51.1802081
21
8.8275822
0
LINE
8
0
10
57.1303204
20
26.8718655
11
74.6997542
21
21.0783351
0
LINE
8
0
10
74.6997542
20
21.0783351
11
80.4932846
21
38.6477689
0
LINE
8
0
10
80.4932846
20
38.6477689
11
62.9238508
21
44.4412993
0
LINE
8
0
10
62.9238508
20
44.4412993
11
57.1303204
21
26.8718655
0
LINE
8
0
10
63.0804327
20
44.9161489
11
80.6498665
21
39.1226185
0
LINE
8
0
10
80.6498665
20
39.1226185
11
86.4433969
21
56.6920523
0
LINE
8
0
10
86.4433969
20
56.6920523
11
68.8739631
21
62.4855827
0
LINE
8
0
10
68.8739631
20
62.4855827
11
63.0804327
21
44.9161489
0
LINE
8
0
10
67.3455086
20
-2.8207249
11
84.9149424
21
-8.6142553
0
LINE
8
0
10
84.9149424
20
-8.6142553
11
90.7084728
21
8.9551785
0
LINE
8
0
10
90.7084728
20
8.9551785
11
73.139039
21
14.7487089
0
LINE
8
0
10
73.139039
20
14.7487089
11
67.3455086
21
-2.8207249
0
LINE
8
0
10
73.2956209
20
15.2235584
11
90.8650547
21
9.430028
0
LINE
8
0
10
90.8650547
20
9.430028
11
96.6585851
21
26.9994618
0
LINE
8
0
10
96.6585851
20
26.9994618
11
79.0891513
21
32.7929922
0
LINE
8
0
10
79.0891513
20
32.7929922
11
73.2956209
21
15.2235584
0
LINE
8
0
10
79.2457333
20
33.2678418
11
96.8151671
21
27.4743114
0
LINE
8
0
10
96.8151671
20
27.4743114
11
102.6086975
21
45.0437452
0
LINE
8
0
10
102.6086975
20
45.0437452
11
85.0392637
21
50.8372756
0
LINE
8
0
10
85.0392637
20
50.8372756
11
79.2457333
21
33.2678418
0
LINE
8
0
10
84.158158
20
-11.0005038
11
101.4003035
21
-17.7056075
0
LINE
8
0
10
101.4003035
20
-17.7056075
11
108.1054072
21
-0.463462
0
LINE
8
0
10
108.1054072
20
-0.463462
11
90.8632617
21
6.2416417
0
LINE
8
0
10
90.8632617
20
6.2416417
11
84.158158
21
-11.0005038
0
LINE
8
0
10
91.0444808
20
6.7076457
11
108.2866263
21
0.002542
0
LINE
8
0
10
108.2866263
20
0.002542
11
114.99173
21
17.2446875
0
LINE
8
0
10
114.99173
20
17.2446875
11
97.7495845
21
23.9497912
0
LINE
8
0
10
97.7495845
20
23.9497912
11
91.0444808
21
6.7076457
0
LINE
8
0
10
97.9308035
20
24.4157952
11
115.172949
21
17.7106915
0
LINE
8
0
10
115.172949
20
17.7106915
11
121.8780527
21
34.952837
0
LINE
8
0
10
121.8780527
20
34.952837
11
104.6359072
21
41.6579407
0
LINE
8
0
10
104.6359072
20
41.6579407
11
97.9308035
21
24.4157952
0
LINE
8
0
10
76.5469592
20
-30.5726691
11
93.7891047
21
-37.2777728
0
LINE
8
0
10
93.7891047
20
-37.2777728
11
100.4942084
21
-20.0356273
0
LINE
8
0
10
100.4942084
20
-20.0356273
11
83.2520629
21
-13.3305236
0
LINE
8
0
10
83.2520629
20
-13.3305236
11
76.5469592
21
-30.5726691
0
LINE
8
0
10
95.5944774
20
-38.8810953
11
109.5035138
21
-51.0789929
0
LINE
8
0
10
109.5035138
20
-51.0789929
11
121.7014114
21
-37.1699565
0
LINE
8
0
10
121.7014114
20
-37.1699565
11
107.792375
21
-24.9720589
0
LINE
8
0
10
107.792375
20
-24.9720589
11
95.5944774
21
-38.8810953
0
LINE
8
0
10
257.6740267
20
8.2756676
11
275.9708202
21
11.0101417
0
LINE
8
0
10
275.9708202
20
11.0101417
11
273.2363461
21
29.3069352
0
LINE
8
0
10
273.2363461
20
29.3069352
11
254.9395526
21
26.5724611
0
LINE
8
0
10
254.9395526
20
26.5724611
11
257.6740267
21
8.2756676
0
LINE
8
0
10
254.865648
20
27.066969
11
273.1624415
21
29.8014431
0
LINE
8
0
10
273.1624415
20
29.8014431
11
270.4279674
21
48.0982366
0
LINE
8
0
10
270.4279674
20
48.0982366
11
252.1311739
21
45.3637625
0
LINE
8
0
10
252.1311739
20
45.3637625
11
254.865648
21
27.066969
0
LINE
8
0
10
240.4643297
20
-5.1813019
11
258.471846
21
-0.9410946
0
LINE
8
0
10
258.471846
20
-0.9410946
11
254.2316387
21
17.0664217
0
LINE
8
0
10
254.2316387
20
17.0664217
11
236.2241224
21
12.8262144
0
LINE
8
0
10
236.2241224
20
12.8262144
11
240.4643297
21
-5.1813019
0
LINE
8
0
10
236.1095223
20
13.3129041
11
254.1170386
21
17.5531114
0
LINE
8
0
10
254.1170386
20
17.5531114
11
249.8768313
21
35.5606277
0
LINE
8
0
10
249.8768313
20
35.5606277
11
231.869315
21
31.3204204
0
LINE
8
0
10
231.869315
20
31.3204204
11
236.1095223
21
13.3129041
0
LINE
8
0
10
231.7547149
20
31.8071101
11
249.7622312
21
36.0473174
0
LINE
8
0
10
249.7622312
20
36.0473174
11
245.5220239
21
54.0548337
0
LINE
8
0
10
245.5220239
20
54.0548337
11
227.5145076
21
49.8146264
0
LINE
8
0
10
227.5145076
20
49.8146264
11
231.7547149
21
31.8071101
0
LINE
8
0
10
218.5567463
20
3.5318689
11
236.4053118
21
8.3979464
0
LINE
8
0
10
236.4053118
20
8.3979464
11
231.5392343
21
26.2465119
0
LINE
8
0
10
231.5392343
20
26.2465119
11
213.6906688
21
21.3804344
0
LINE
8
0
10
213.6906688
20
21.3804344
11
218.5567463
21
3.5318689
0
LINE
8
0
10
213.5591533
20
21.862828
11
231.4077188
21
26.7289055
0
LINE
8
0
10
231.4077188
20
26.7289055
11
226.5416413
21
44.577471
0
LINE
8
0
10
226.5416413
20
44.577471
11
208.6930758
21
39.7113935
0
LINE
8
0
10
208.6930758
20
39.7113935
11
213.5591533
21
21.862828
0
LINE
8
0
10
208.5615602
20
40.1937872
11
226.4101257
21
45.0598647
0
LINE
8
0
10
226.4101257
20
45.0598647
11
221.5440482
21
62.9084302
0
LINE
8
0
10
221.5440482
20
62.9084302
11
203.6954827
21
58.0423527
0
LINE
8
0
10
203.6954827
20
58.0423527
11
208.5615602
21
40.1937872
0
LINE
8
0
10
199.5139233
20
3.0340518
11
217.0833571
21
8.8275822
0
LINE
8
0
10
217.0833571
20
8.8275822
11
211.2898267
21
26.397016
0
LINE
8
0
10
211.2898267
20
26.397016
11
193.7203929
21
20.6034856
0
LINE
8
0
10
193.7203929
20
20.6034856
11
199.5139233
21
3.0340518
0
LINE
8
0
10
193.563811
20
21.0783351
11
211.1332448
21
26.8718655
0
LINE
8
0
10
211.1332448
20
26.8718655
11
205.3397144
21
44.4412993
0
LINE
8
0
10
205.3397144
20
44.4412993
11
187.7702806
21
38.6477689
0
LINE
8
0
10
187.7702806
20
38.6477689
11
193.563811
21
21.0783351
0
LINE
8
0
10
187.6136987
20
39.1226185
11
205.1831325
21
44.9161489
0
LINE
8
0
10
205.1831325
20
44.9161489
11
199.3896021
21
62.4855827
0
LINE
8
0
10
199.3896021
20
62.4855827
11
181.8201683
21
56.6920523
0
LINE
8
0
10
181.8201683
20
56.6920523
11
187.6136987
21
39.1226185
0
LINE
8
0
10
183.3486228
20
-8.6142553
11
200.9180566
21
-2.8207249
0
LINE
8
0
10
200.9180566
20
-2.8207249
11
195.1245262
21
14.7487089
0
LINE
8
0
10
195.1245262
20
14.7487089
11
177.5550924
21
8.9551785
0
LINE
8
0
10
177.5550924
20
8.9551785
11
183.3486228
21
-8.6142553
0
LINE
8
0
10
177.3985105
20
9.430028
11
194.9679443
21
15.2235584
0
LINE
8
0
10
194.9679443
20
15.2235584
11
189.1744139
21
32.7929922
0
LINE
8
0
10
189.1744139
20
32.7929922
11
171.6049801
21
26.9994618
0
LINE
8
0
10
171.6049801
20
26.9994618
11
177.3985105
21
9.430028
0
LINE
8
0
10
171.4483981
20
27.4743114
11
189.0178319
21
33.2678418
0
LINE
8
0
10
189.0178319
20
33.2678418
11
183.2243015
21
50.8372756
0
LINE
8
0
10
183.2243015
20
50.8372756
11
165.6548677
21
45.0437452
0
LINE
8
0
10
165.6548677
20
45.0437452
11
171.4483981
21
27.4743114
0
LINE
8
0
10
166.8632617
20
-17.7056075
11
184.1054072
21
-11.0005038
0
LINE
8
0
10
184.1054072
20
-11.0005038
11
177.4003035
21
6.2416417
0
LINE
8
0
10
177.4003035
20
6.2416417
11
160.158158
21
-0.463462
0
LINE
8
0
10
160.158158
20
-0.463462
11
166.8632617
21
-17.7056075
0
LINE
8
0
10
159.9769389
20
0.002542
11
177.2190844
21
6.7076457
0
LINE
8
0
10
177.2190844
20
6.7076457
11
170.5139807
21
23.9497912
0
LINE
8
0
10
170.5139807
20
23.9497912
11
153.2718352
21
17.2446875
0
LINE
8
0
10
153.2718352
20
17.2446875
11
159.9769389
21
0.002542
0
LINE
8
0
10
153.0906162
20
17.7106915
11
170.3327617
21
24.4157952
0
LINE
8
0
10
170.3327617
20
24.4157952
11
163.627658
21
41.6579407
0
LINE
8
0
10
163.627658
20
41.6579407
11
146.3855125
21
34.952837
0
LINE
8
0
10
146.3855125
20
34.952837
11
153.0906162
21
17.7106915
0
LINE
8
0
10
174.4744605
20
-37.2777728
11
191.716606
21
-30.5726691
0
LINE
8
0
10
191.716606
20
-30.5726691
11
185.0115023
21
-13.3305236
0
LINE
8
0
10
185.0115023
20
-13.3305236
11
167.7693568
21
-20.0356273
0
LINE
8
0
10
167.7693568
20
-20.0356273
11
174.4744605
21
-37.2777728
0
LINE
8
0
10
158.7600514
20
-51.0789929
11
172.6690878
21
-38.8810953
0
LINE
8
0
10
172.6690878
20
-38.8810953
11
160.4711902
21
-24.9720589
0
LINE
8
0
10
160.4711902
20
-24.9720589
11
146.5621538
21
-37.1699565
0
LINE
8
0
10
146.5621538
20
-37.1699565
11
158.7600514
21
-51.0789929
0
ENDSEC
0
EOF