0
SECTION
2
HEADER
9
$INSUNITS
70
4
0
ENDSEC
0
SECTION
2
TABLES
0
TABLE
2
LTYPE
0
LTYPE
72
65
70
64
2
CONTINUOUS
3
______
73
0
40
0
0
ENDTAB
0
TABLE
2
LAYER
0
ENDTAB
0
ENDSEC
0
SECTION
2
ENTITIES
0
LINE
8
0
10
162.137049
20
-53.6871761
11
106.2973074
21
-53.6871761
0
LINE
8
0
10
106.2973074
20
-53.6871761
11
93.1388775
21
-41.2894376
0
LINE
8
0
10
93.1388775
20
-41.2894376
11
-14.3495682
21
5.9236723
0
LINE
8
0
10
-14.3495682
20
5.9236723
11
-8.6064158
21
49.5472462
0
LINE
8
0
10
-8.6064158
20
49.5472462
11
45.5644962
21
66.5642168
0
LINE
8
0
10
45.5644962
20
66.5642168
11
67.8721739
21
66.5267933
0
LINE
8
0
10
67.8721739
20
66.5267933
11
125.6738809
21
46.9005478
0
LINE
8
0
10
125.6738809
20
46.9005478
11
142.7604755
21
46.9005478
0
LINE
8
0
10
142.7604755
20
46.9005478
11
200.5621825
21
66.5267933
0
LINE
8
0
10
200.5621825
20
66.5267933
11
222.8698602
21
66.5642168
0
LINE
8
0
10
222.8698602
20
66.5642168
11
277.0407722
21
49.5472462
0
LINE
8
0
10
277.0407722
20
49.5472462
11
282.7839246
21
5.9236723
0
LINE
8
0
10
282.7839246
20
5.9236723
11
175.2954789
21
-41.2894376
0
LINE
8
0
10
175.2954789
20
-41.2894376
11
162.137049
21
-53.6871761
0
LINE
8
0
10
-7.8982346
20
10.8739546
11
10.4434953
21
8.4592201
0
LINE
8
0
10
10.4434953
20
8.4592201
11
12.8582298
21
26.80095
0
LINE
8
0
10
12.8582298
20
26.80095
11
-5.4835001
21
29.2156845
0
LINE
8
0
10
-5.4835001
20
29.2156845
11
-7.8982346
21
10.8739546
0
LINE
8
0
10
-5.418237
20
29.711407
11
12.9234929
21
27.2966725
0
LINE
8
0
10
12.9234929
20
27.2966725
11
15.3382274
21
45.6384024
0
LINE
8
0
10
15.3382274
20
45.6384024
11
-3.0035025
21
48.0531369
0
LINE
8
0
10
-3.0035025
20
48.0531369
11
-5.418237
21
29.711407
0
LINE
8
0
10
9.8066523
20
-0.7700622
11
27.8854278
21
-4.6953491
0
LINE
8
0
10
27.8854278
20
-4.6953491
11
31.8107147
21
13.3834264
0
LINE
8
0
10
31.8107147
20
13.3834264
11
13.7319392
21
17.3087133
0
LINE
8
0
10
13.7319392
20
17.3087133
11
9.8066523
21
-0.7700622
0
LINE
8
0
10
13.838028
20
17.7973288
11
31.9168035
21
13.8720419
0
LINE
8
0
10
31.9168035
20
13.8720419
11
35.8420904
21
31.9508174
0
LINE
8
0
10
35.8420904
20
31.9508174
11
17.7633149
21
35.8761043
0
LINE
8
0
10
17.7633149
20
35.8761043
11
13.838028
21
17.7973288
0
LINE
8
0
10
17.8694038
20
36.3647199
11
35.9481793
21
32.439433
0
LINE
8
0
10
35.9481793
20
32.439433
11
39.8734662
21
50.5182085
0
LINE
8
0
10
39.8734662
20
50.5182085
11
21.7946907
21
54.4434954
0
LINE
8
0
10
21.7946907
20
54.4434954
11
17.8694038
21
36.3647199
0
LINE
8
0
10
31.7068368
20
8.9526705
11
49.6376087
21
4.3988346
0
LINE
8
0
10
49.6376087
20
4.3988346
11
54.1914446
21
22.3296065
0
LINE
8
0
10
54.1914446
20
22.3296065
11
36.2606727
21
26.8834424
0
LINE
8
0
10
36.2606727
20
26.8834424
11
31.7068368
21
8.9526705
0
LINE
8
0
10
36.3837494
20
27.3680577
11
54.3145213
21
22.8142218
0
LINE
8
0
10
54.3145213
20
22.8142218
11
58.8683572
21
40.7449937
0
LINE
8
0
10
58.8683572
20
40.7449937
11
40.9375853
21
45.2988296
0
LINE
8
0
10
40.9375853
20
45.2988296
11
36.3837494
21
27.3680577
0
LINE
8
0
10
41.0606619
20
45.783445
11
58.9914338
21
41.2296091
0
LINE
8
0
10
58.9914338
20
41.2296091
11
63.5452697
21
59.160381
0
LINE
8
0
10
63.5452697
20
59.160381
11
45.6144978
21
63.7142169
0
LINE
8
0
10
45.6144978
20
63.7142169
11
41.0606619
21
45.783445
0
LINE
8
0
10
51.0183504
20
9.7194555
11
68.6862194
21
4.2334363
0
LINE
8
0
10
68.6862194
20
4.2334363
11
74.1722386
21
21.9013053
0
LINE
8
0
10
74.1722386
20
21.9013053
11
56.5043696
21
27.3873245
0
LINE
8
0
10
56.5043696
20
27.3873245
11
51.0183504
21
9.7194555
0
LINE
8
0
10
56.6526404
20
27.8648344
11
74.3205094
21
22.3788152
0
LINE
8
0
10
74.3205094
20
22.3788152
11
79.8065286
21
40.0466842
0
LINE
8
0
10
79.8065286
20
40.0466842
11
62.1386596
21
45.5327034
0
LINE
8
0
10
62.1386596
20
45.5327034
11
56.6526404
21
27.8648344
0
LINE
8
0
10
62.2869303
20
46.0102133
11
79.9547993
21
40.5241941
0
LINE
8
0
10
79.9547993
20
40.5241941
11
85.4408185
21
58.1920631
0
LINE
8
0
10
85.4408185
20
58.1920631
11
67.7729495
21
63.6780823
0
LINE
8
0
10
67.7729495
20
63.6780823
11
62.2869303
21
46.0102133
0
LINE
8
0
10
67.3844799
20
-1.6449541
11
85.0523489
21
-7.1309733
0
LINE
8
0
10
85.0523489
20
-7.1309733
11
90.5383681
21
10.5368957
0
LINE
8
0
10
90.5383681
20
10.5368957
11
72.8704991
21
16.0229149
0
LINE
8
0
10
72.8704991
20
16.0229149
11
67.3844799
21
-1.6449541
0
LINE
8
0
10
73.0187699
20
16.5004248
11
90.6866389
21
11.0144056
0
LINE
8
0
10
90.6866389
20
11.0144056
11
96.1726581
21
28.6822746
0
LINE
8
0
10
96.1726581
20
28.6822746
11
78.5047891
21
34.1682938
0
LINE
8
0
10
78.5047891
20
34.1682938
11
73.0187699
21
16.5004248
0
LINE
8
0
10
78.6530598
20
34.6458037
11
96.3209288
21
29.1597845
0
LINE
8
0
10
96.3209288
20
29.1597845
11
101.806948
21
46.8276535
0
LINE
8
0
10
101.806948
20
46.8276535
11
84.139079
21
52.3136727
0
LINE
8
0
10
84.139079
20
52.3136727
11
78.6530598
21
34.6458037
0
LINE
8
0
10
84.3373256
20
-9.530066
11
101.6938653
21
-15.9332315
0
LINE
8
0
10
101.6938653
20
-15.9332315
11
108.0970308
21
1.4233082
0
LINE
8
0
10
108.0970308
20
1.4233082
11
90.7404911
21
7.8264737
0
LINE
8
0
10
90.7404911
20
7.8264737
11
84.3373256
21
-9.530066
0
LINE
8
0
10
90.9135497
20
8.2955693
11
108.2700894
21
1.8924038
0
LINE
8
0
10
108.2700894
20
1.8924038
11
114.6732549
21
19.2489435
0
LINE
8
0
10
114.6732549
20
19.2489435
11
97.3167152
21
25.652109
0
LINE
8
0
10
97.3167152
20
25.652109
11
90.9135497
21
8.2955693
0
LINE
8
0
10
97.4897738
20
26.1212046
11
114.8463135
21
19.7180391
0
LINE
8
0
10
114.8463135
20
19.7180391
11
121.249479
21
37.0745788
0
LINE
8
0
10
121.249479
20
37.0745788
11
103.8929393
21
43.4777443
0
LINE
8
0
10
103.8929393
20
43.4777443
11
97.4897738
21
26.1212046
0
LINE
8
0
10
77.0688674
20
-29.2320841
11
94.4254071
21
-35.6352496
0
LINE
8
0
10
94.4254071
20
-35.6352496
11
100.8285726
21
-18.2787099
0
LINE
8
0
10
100.8285726
20
-18.2787099
11
83.4720329
21
-11.8755444
0
LINE
8
0
10
83.4720329
20
-11.8755444
11
77.0688674
21
-29.2320841
0
LINE
8
0
10
95.3202952
20
-36.8607028
11
109.4400959
21
-48.8139965
0
LINE
8
0
10
109.4400959
20
-48.8139965
11
121.3933896
21
-34.6941958
0
LINE
8
0
10
121.3933896
20
-34.6941958
11
107.2735889
21
-22.7409021
0
LINE
8
0
10
107.2735889
20
-22.7409021
11
95.3202952
21
-36.8607028
0
LINE
8
0
10
257.9908611
20
8.4592201
11
276.332591
21
10.8739546
0
LINE
8
0
10
276.332591
20
10.8739546
11
273.9178565
21
29.2156845
0
LINE
8
0
10
273.9178565
20
29.2156845
11
255.5761266
21
26.80095
0
LINE
8
0
10
255.5761266
20
26.80095
11
257.9908611
21
8.4592201
0
LINE
8
0
10
255.5108635
20
27.2966725
11
273.8525934
21
29.711407
0
LINE
8
0
10
273.8525934
20
29.711407
11
271.4378589
21
48.0531369
0
LINE
8
0
10
271.4378589
20
48.0531369
11
253.096129
21
45.6384024
0
LINE
8
0
10
253.096129
20
45.6384024
11
255.5108635
21
27.2966725
0
LINE
8
0
10
240.5489286
20
-4.6953491
11
258.6277041
21
-0.7700622
0
LINE
8
0
10
258.6277041
20
-0.7700622
11
254.7024172
21
17.3087133
0
LINE
8
0
10
254.7024172
20
17.3087133
11
236.6236417
21
13.3834264
0
LINE
8
0
10
236.6236417
20
13.3834264
11
240.5489286
21
-4.6953491
0
LINE
8
0
10
236.5175529
20
13.8720419
11
254.5963284
21
17.7973288
0
LINE
8
0
10
254.5963284
20
17.7973288
11
250.6710415
21
35.8761043
0
LINE
8
0
10
250.6710415
20
35.8761043
11
232.592266
21
31.9508174
0
LINE
8
0
10
232.592266
20
31.9508174
11
236.5175529
21
13.8720419
0
LINE
8
0
10
232.4861771
20
32.439433
11
250.5649526
21
36.3647199
0
LINE
8
0
10
250.5649526
20
36.3647199
11
246.6396657
21
54.4434954
0
LINE
8
0
10
246.6396657
20
54.4434954
11
228.5608902
21
50.5182085
0
LINE
8
0
10
228.5608902
20
50.5182085
11
232.4861771
21
32.439433
0
LINE
8
0
10
218.7967477
20
4.3988346
11
236.7275196
21
8.9526705
0
LINE
8
0
10
236.7275196
20
8.9526705
11
232.1736837
21
26.8834424
0
LINE
8
0
10
232.1736837
20
26.8834424
11
214.2429118
21
22.3296065
0
LINE
8
0
10
214.2429118
20
22.3296065
11
218.7967477
21
4.3988346
0
LINE
8
0
10
214.1198351
20
22.8142218
11
232.050607
21
27.3680577
0
LINE
8
0
10
232.050607
20
27.3680577
11
227.4967711
21
45.2988296
0
LINE
8
0
10
227.4967711
20
45.2988296
11
209.5659992
21
40.7449937
0
LINE
8
0
10
209.5659992
20
40.7449937
11
214.1198351
21
22.8142218
0
LINE
8
0
10
209.4429226
20
41.2296091
11
227.3736945
21
45.783445
0
LINE
8
0
10
227.3736945
20
45.783445
11
222.8198586
21
63.7142169
0
LINE
8
0
10
222.8198586
20
63.7142169
11
204.8890867
21
59.160381
0
LINE
8
0
10
204.8890867
20
59.160381
11
209.4429226
21
41.2296091
0
LINE
8
0
10
199.748137
20
4.2334363
11
217.416006
21
9.7194555
0
LINE
8
0
10
217.416006
20
9.7194555
11
211.9299868
21
27.3873245
0
LINE
8
0
10
211.9299868
20
27.3873245
11
194.2621178
21
21.9013053
0
LINE
8
0
10
194.2621178
20
21.9013053
11
199.748137
21
4.2334363
0
LINE
8
0
10
194.113847
20
22.3788152
11
211.781716
21
27.8648344
0
LINE
8
0
10
211.781716
20
27.8648344
11
206.2956968
21
45.5327034
0
LINE
8
0
10
206.2956968
20
45.5327034
11
188.6278278
21
40.0466842
0
LINE
8
0
10
188.6278278
20
40.0466842
11
194.113847
21
22.3788152
0
LINE
8
0
10
188.4795571
20
40.5241941
11
206.1474261
21
46.0102133
0
LINE
8
0
10
206.1474261
20
46.0102133
11
200.6614069
21
63.6780823
0
LINE
8
0
10
200.6614069
20
63.6780823
11
182.9935379
21
58.1920631
0
LINE
8
0
10
182.9935379
20
58.1920631
11
188.4795571
21
40.5241941
0
LINE
8
0
10
183.3820075
20
-7.1309733
11
201.0498765
21
-1.6449541
0
LINE
8
0
10
201.0498765
20
-1.6449541
11
195.5638573
21
16.0229149
0
LINE
8
0
10
195.5638573
20
16.0229149
11
177.8959883
21
10.5368957
0
LINE
8
0
10
177.8959883
20
10.5368957
11
183.3820075
21
-7.1309733
0
LINE
8
0
10
177.7477175
20
11.0144056
11
195.4155865
21
16.5004248
0
LINE
8
0
10
195.4155865
20
16.5004248
11
189.9295673
21
34.1682938
0
LINE
8
0
10
189.9295673
20
34.1682938
11
172.2616983
21
28.6822746
0
LINE
8
0
10
172.2616983
20
28.6822746
11
177.7477175
21
11.0144056
0
LINE
8
0
10
172.1134276
20
29.1597845
11
189.7812966
21
34.6458037
0
LINE
8
0
10
189.7812966
20
34.6458037
11
184.2952774
21
52.3136727
0
LINE
8
0
10
184.2952774
20
52.3136727
11
166.6274084
21
46.8276535
0
LINE
8
0
10
166.6274084
20
46.8276535
11
172.1134276
21
29.1597845
0
LINE
8
0
10
166.7404911
20
-15.9332315
11
184.0970308
21
-9.530066
0
LINE
8
0
10
184.0970308
20
-9.530066
11
177.6938653
21
7.8264737
0
LINE
8
0
10
177.6938653
20
7.8264737
11
160.3373256
21
1.4233082
0
LINE
8
0
10
160.3373256
20
1.4233082
11
166.7404911
21
-15.9332315
0
LINE
8
0
10
160.164267
20
1.8924038
11
177.5208067
21
8.2955693
0
LINE
8
0
10
177.5208067
20
8.2955693
11
171.1176412
21
25.652109
0
LINE
8
0
10
171.1176412
20
25.652109
11
153.7611015
21
19.2489435
0
LINE
8
0
10
153.7611015
20
19.2489435
11
160.164267
21
1.8924038
0
LINE
8
0
10
153.5880429
20
19.7180391
11
170.9445826
21
26.1212046
0
LINE
8
0
10
170.9445826
20
26.1212046
11
164.5414171
21
43.4777443
0
LINE
8
0
10
164.5414171
20
43.4777443
11
147.1848774
21
37.0745788
0
LINE
8
0
10
147.1848774
20
37.0745788
11
153.5880429
21
19.7180391
0
LINE
8
0
10
174.0089493
20
-35.6352496
11
191.365489
21
-29.2320841
0
LINE
8
0
10
191.365489
20
-29.2320841
11
184.9623235
21
-11.8755444
0
LINE
8
0
10
184.9623235
20
-11.8755444
11
167.6057838
21
-18.2787099
0
LINE
8
0
10
167.6057838
20
-18.2787099
11
174.0089493
21
-35.6352496
0
LINE
8
0
10
158.9942605
20
-48.8139965
11
173.1140612
21
-36.8607028
0
LINE
8
0
10
173.1140612
20
-36.8607028
11
161.1607675
21
-22.7409021
0
LINE
8
0
10
161.1607675
20
-22.7409021
11
147.0409668
21
-34.6941958
0
LINE
8
0
10
147.0409668
20
-34.6941958
11
158.9942605
21
-48.8139965
0
ENDSEC
0
EOF