0
SECTION
2
HEADER
9
$INSUNITS
70
4
0
ENDSEC
0
SECTION
2
TABLES
0
TABLE
2
LTYPE
0
LTYPE
72
65
70
64
2
CONTINUOUS
3
______
73
0
40
0
0
ENDTAB
0
TABLE
2
LAYER
0
ENDTAB
0
ENDSEC
0
SECTION
2
ENTITIES
0
LINE
8
0
10
-8.1787274
20
10.6587249
11
10.658725
21
8.1787273
0
LINE
8
0
10
10.658725
20
8.1787273
11
15.6187202
21
45.8536321
0
LINE
8
0
10
-8.1787274
20
10.6587249
11
-3.2187322
21
48.3336297
0
LINE
8
0
10
15.6187202
20
45.8536321
11
-3.2187322
21
48.3336297
0
LINE
8
0
10
9.5093001
20
-0.9613255
11
28.0766911
21
-4.9927013
0
LINE
8
0
10
28.0766911
20
-4.9927013
11
36.1394426
21
32.1420807
0
LINE
8
0
10
9.5093001
20
-0.9613255
11
17.5720516
21
36.1734565
0
LINE
8
0
10
36.1394426
20
32.1420808
11
40.1708184
21
50.7094718
0
LINE
8
0
10
40.1708184
20
50.7094718
11
21.6034274
21
54.7408476
0
LINE
8
0
10
21.6034274
20
54.7408476
11
17.5720516
21
36.1734566
0
LINE
8
0
10
31.4029908
20
8.7719011
11
49.8183781
21
4.0949886
0
LINE
8
0
10
49.8183781
20
4.0949886
11
51.1684887
21
9.4110617
0
LINE
8
0
10
53.4488349
20
18.3899465
11
54.4952906
21
22.5103759
0
LINE
8
0
10
36.0799033
20
27.1872884
11
31.4029908
21
8.7719011
0
LINE
8
0
10
54.4952907
20
22.5103758
11
63.8491157
21
59.3411504
0
LINE
8
0
10
36.0799034
20
27.1872883
11
45.4337284
21
64.0180629
0
LINE
8
0
10
63.8491157
20
59.3411504
11
45.4337284
21
64.0180629
0
LINE
8
0
10
51.1684887
20
9.4110617
11
68.850839
21
3.920546
0
LINE
8
0
10
56.33975
20
27.7002148
11
53.4488349
21
18.3899465
0
LINE
8
0
10
56.3397501
20
27.7002148
11
67.6083299
21
63.9909726
0
LINE
8
0
10
83.9744594
20
52.626563
11
85.7537088
21
58.3566827
0
LINE
8
0
10
85.7537088
20
58.3566827
11
67.6083299
21
63.9909726
0
LINE
8
0
10
67.0715896
20
-1.8095737
11
84.8791895
21
-7.3389804
0
LINE
8
0
10
87.2182581
20
-0.9986576
11
90.8512584
21
10.7015153
0
LINE
8
0
10
68.850839
20
3.920546
11
67.0715896
21
-1.8095737
0
LINE
8
0
10
90.8512585
20
10.7015153
11
102.1198383
21
46.9922731
0
LINE
8
0
10
102.1198383
20
46.9922731
11
83.9744594
21
52.626563
0
LINE
8
0
10
84.0162485
20
-9.6780845
11
101.8418838
21
-16.2543086
0
LINE
8
0
10
101.8418838
20
-16.2543086
11
121.5705561
21
37.2225973
0
LINE
8
0
10
87.2182581
20
-0.9986576
11
103.7449208
21
43.7988214
0
LINE
8
0
10
84.8791895
20
-7.3389804
11
84.0162485
21
-9.6780845
0
LINE
8
0
10
121.5705561
20
37.2225973
11
103.7449208
21
43.7988214
0
LINE
8
0
10
76.7477903
20
-29.3801026
11
94.5734256
21
-35.9563267
0
LINE
8
0
10
94.5734256
20
-35.9563267
11
101.1496497
21
-18.1306914
0
LINE
8
0
10
101.1496497
20
-18.1306914
11
83.3240144
21
-11.5544673
0
LINE
8
0
10
83.3240144
20
-11.5544673
11
76.7477903
21
-29.3801026
0
LINE
8
0
10
94.9679561
20
-36.88998
11
109.4693731
21
-49.1663356
0
LINE
8
0
10
109.4693731
20
-49.1663356
11
121.7457287
21
-34.6649186
0
LINE
8
0
10
121.7457287
20
-34.6649186
11
107.2443117
21
-22.388563
0
LINE
8
0
10
107.2443117
20
-22.388563
11
94.9679561
21
-36.88998
0
LINE
8
0
10
257.7756314
20
8.1787273
11
276.6130838
21
10.6587249
0
LINE
8
0
10
271.6530886
20
48.3336297
11
276.6130838
21
10.6587249
0
LINE
8
0
10
252.8156362
20
45.8536321
11
257.7756314
21
8.1787273
0
LINE
8
0
10
271.6530886
20
48.3336297
11
252.8156362
21
45.8536321
0
LINE
8
0
10
240.3576653
20
-4.9927013
11
258.9250563
21
-0.9613255
0
LINE
8
0
10
250.8623048
20
36.1734565
11
258.9250563
21
-0.9613255
0
LINE
8
0
10
232.2949138
20
32.1420807
11
240.3576653
21
-4.9927013
0
LINE
8
0
10
250.8623048
20
36.1734566
11
246.830929
21
54.7408476
0
LINE
8
0
10
246.830929
20
54.7408476
11
228.263538
21
50.7094718
0
LINE
8
0
10
228.263538
20
50.7094718
11
232.2949138
21
32.1420808
0
LINE
8
0
10
218.6159783
20
4.0949886
11
237.0313656
21
8.7719011
0
LINE
8
0
10
237.0313656
20
8.7719011
11
232.3544531
21
27.1872884
0
LINE
8
0
10
213.9390658
20
22.5103759
11
214.9855215
21
18.3899465
0
LINE
8
0
10
217.2658677
20
9.4110617
11
218.6159783
21
4.0949886
0
LINE
8
0
10
223.000628
20
64.0180629
11
232.354453
21
27.1872883
0
LINE
8
0
10
204.5852407
20
59.3411504
11
213.9390657
21
22.5103758
0
LINE
8
0
10
223.000628
20
64.0180629
11
204.5852407
21
59.3411504
0
LINE
8
0
10
199.5835174
20
3.920546
11
217.2658677
21
9.4110617
0
LINE
8
0
10
214.9855215
20
18.3899465
11
212.0946064
21
27.7002148
0
LINE
8
0
10
200.8260265
20
63.9909726
11
212.0946063
21
27.7002148
0
LINE
8
0
10
200.8260265
20
63.9909726
11
182.6806476
21
58.3566827
0
LINE
8
0
10
182.6806476
20
58.3566827
11
184.459897
21
52.626563
0
LINE
8
0
10
183.5551669
20
-7.3389804
11
201.3627668
21
-1.8095737
0
LINE
8
0
10
201.3627668
20
-1.8095737
11
199.5835174
21
3.920546
0
LINE
8
0
10
177.583098
20
10.7015153
11
181.2160983
21
-0.9986576
0
LINE
8
0
10
166.3145181
20
46.9922731
11
177.5830979
21
10.7015153
0
LINE
8
0
10
184.459897
20
52.626563
11
166.3145181
21
46.9922731
0
LINE
8
0
10
166.5924726
20
-16.2543086
11
184.4181079
21
-9.6780845
0
LINE
8
0
10
184.4181079
20
-9.6780845
11
183.5551669
21
-7.3389804
0
LINE
8
0
10
164.6894356
20
43.7988214
11
181.2160983
21
-0.9986576
0
LINE
8
0
10
146.8638003
20
37.2225973
11
166.5924726
21
-16.2543086
0
LINE
8
0
10
164.6894356
20
43.7988214
11
146.8638003
21
37.2225973
0
LINE
8
0
10
173.8609308
20
-35.9563267
11
191.6865661
21
-29.3801026
0
LINE
8
0
10
191.6865661
20
-29.3801026
11
185.110342
21
-11.5544673
0
LINE
8
0
10
185.110342
20
-11.5544673
11
167.2847067
21
-18.1306914
0
LINE
8
0
10
167.2847067
20
-18.1306914
11
173.8609308
21
-35.9563267
0
LINE
8
0
10
158.9649833
20
-49.1663356
11
173.4664003
21
-36.88998
0
LINE
8
0
10
173.4664003
20
-36.88998
11
161.1900447
21
-22.388563
0
LINE
8
0
10
161.1900447
20
-22.388563
11
146.6886277
21
-34.6649186
0
LINE
8
0
10
146.6886277
20
-34.6649186
11
158.9649833
21
-49.1663356
0
ENDSEC
0
EOF