0
SECTION
2
HEADER
9
$INSUNITS
70
4
0
ENDSEC
0
SECTION
2
TABLES
0
TABLE
2
LTYPE
0
LTYPE
72
65
70
64
2
CONTINUOUS
3
______
73
0
40
0
0
ENDTAB
0
TABLE
2
LAYER
0
ENDTAB
0
ENDSEC
0
SECTION
2
ENTITIES
0
LINE
8
0
10
-7.9914613
20
10.7998401
11
10.7998401
21
7.9914613
0
LINE
8
0
10
10.7998401
20
7.9914613
11
16.4165976
21
45.5740641
0
LINE
8
0
10
-7.9914613
20
10.7998401
11
-2.3747038
21
48.3824429
0
LINE
8
0
10
16.4165976
20
45.5740641
11
-2.3747038
21
48.3824429
0
LINE
8
0
10
9.4910743
20
-1.1271393
11
27.9852802
21
-5.4819468
0
LINE
8
0
10
27.9852802
20
-5.4819468
11
32.3400877
21
13.0122591
0
LINE
8
0
10
13.8458818
20
17.3670666
11
9.4910743
21
-1.1271393
0
LINE
8
0
10
32.3400876
20
13.0122592
11
36.6948951
21
31.5064651
0
LINE
8
0
10
18.2006892
20
35.8612726
11
13.8458817
21
17.3670667
0
LINE
8
0
10
36.694895
20
31.5064652
11
41.0497025
21
50.0006711
0
LINE
8
0
10
41.0497025
20
50.0006711
11
22.5554966
21
54.3554786
0
LINE
8
0
10
22.5554966
20
54.3554786
11
18.2006891
21
35.8612727
0
LINE
8
0
10
31.5512988
20
8.2225074
11
49.8822579
21
3.2249143
0
LINE
8
0
10
49.8822579
20
3.2249143
11
51.3249411
21
8.5166151
0
LINE
8
0
10
53.7616434
20
17.4543355
11
59.877444
21
39.8868325
0
LINE
8
0
10
31.5512988
20
8.2225074
11
41.5464849
21
44.8844256
0
LINE
8
0
10
59.877444
20
39.8868326
11
64.8750371
21
58.2177917
0
LINE
8
0
10
64.8750371
20
58.2177917
11
46.544078
21
63.2153848
0
LINE
8
0
10
46.544078
20
63.2153848
11
41.5464849
21
44.8844257
0
LINE
8
0
10
51.3249411
20
8.5166151
11
68.9087757
21
2.718336
0
LINE
8
0
10
53.7616434
20
17.4543355
11
68.7148293
21
62.8012985
0
LINE
8
0
10
84.8801299
20
51.1529914
11
86.7591127
21
56.8511861
0
LINE
8
0
10
86.7591127
20
56.8511861
11
68.7148293
21
62.8012985
0
LINE
8
0
10
67.0297928
20
-2.9798587
11
84.7381791
21
-8.8192089
0
LINE
8
0
10
87.1875459
20
-2.5206725
11
102.9244133
21
45.202879
0
LINE
8
0
10
68.9087757
20
2.718336
11
67.0297928
21
-2.9798587
0
LINE
8
0
10
102.9244133
20
45.202879
11
84.8801299
21
51.1529914
0
LINE
8
0
10
83.8345465
20
-11.1428963
11
101.542696
21
-18.029219
0
LINE
8
0
10
101.542696
20
-18.029219
11
108.4290187
21
-0.3210695
0
LINE
8
0
10
90.7208692
20
6.5652532
11
87.1875459
21
-2.5206725
0
LINE
8
0
10
84.7381791
20
-8.8192089
11
83.8345465
21
-11.1428963
0
LINE
8
0
10
108.4290188
20
-0.3210695
11
122.2016642
21
35.0952295
0
LINE
8
0
10
90.7208693
20
6.5652532
11
104.4935147
21
41.9815522
0
LINE
8
0
10
122.2016642
20
35.0952295
11
104.4935147
21
41.9815522
0
LINE
8
0
10
76.2233477
20
-30.7150616
11
93.9314972
21
-37.6013843
0
LINE
8
0
10
93.9314972
20
-37.6013843
11
100.8178199
21
-19.8932348
0
LINE
8
0
10
100.8178199
20
-19.8932348
11
83.1096704
21
-13.0069121
0
LINE
8
0
10
83.1096704
20
-13.0069121
11
76.2233477
21
-30.7150616
0
LINE
8
0
10
95.241681
20
-38.9042188
11
109.5266373
21
-51.4317893
0
LINE
8
0
10
109.5266373
20
-51.4317893
11
122.0542078
21
-37.146833
0
LINE
8
0
10
122.0542078
20
-37.146833
11
107.7692515
21
-24.6192625
0
LINE
8
0
10
107.7692515
20
-24.6192625
11
95.241681
21
-38.9042188
0
LINE
8
0
10
257.4637251
20
7.9914613
11
276.2550265
21
10.7998401
0
LINE
8
0
10
270.638269
20
48.3824429
11
276.2550265
21
10.7998401
0
LINE
8
0
10
251.8469676
20
45.5740641
11
257.4637251
21
7.9914613
0
LINE
8
0
10
270.638269
20
48.3824429
11
251.8469676
21
45.5740641
0
LINE
8
0
10
240.278285
20
-5.4819468
11
258.7724909
21
-1.1271393
0
LINE
8
0
10
258.7724909
20
-1.1271393
11
254.4176834
21
17.3670666
0
LINE
8
0
10
235.9234775
20
13.0122591
11
240.278285
21
-5.4819468
0
LINE
8
0
10
254.4176835
20
17.3670667
11
250.062876
21
35.8612726
0
LINE
8
0
10
231.5686701
20
31.5064651
11
235.9234776
21
13.0122592
0
LINE
8
0
10
250.0628761
20
35.8612727
11
245.7080686
21
54.3554786
0
LINE
8
0
10
245.7080686
20
54.3554786
11
227.2138627
21
50.0006711
0
LINE
8
0
10
227.2138627
20
50.0006711
11
231.5686702
21
31.5064652
0
LINE
8
0
10
218.3813073
20
3.2249143
11
236.7122664
21
8.2225074
0
LINE
8
0
10
226.7170803
20
44.8844256
11
236.7122664
21
8.2225074
0
LINE
8
0
10
208.3861212
20
39.8868325
11
214.5019218
21
17.4543355
0
LINE
8
0
10
216.9386241
20
8.5166151
11
218.3813073
21
3.2249143
0
LINE
8
0
10
226.7170803
20
44.8844257
11
221.7194872
21
63.2153848
0
LINE
8
0
10
221.7194872
20
63.2153848
11
203.3885281
21
58.2177917
0
LINE
8
0
10
203.3885281
20
58.2177917
11
208.3861212
21
39.8868326
0
LINE
8
0
10
199.3547895
20
2.718336
11
216.9386241
21
8.5166151
0
LINE
8
0
10
199.5487359
20
62.8012985
11
214.5019218
21
17.4543355
0
LINE
8
0
10
199.5487359
20
62.8012985
11
181.5044525
21
56.8511861
0
LINE
8
0
10
181.5044525
20
56.8511861
11
183.3834353
21
51.1529914
0
LINE
8
0
10
183.5253861
20
-8.8192089
11
201.2337724
21
-2.9798587
0
LINE
8
0
10
201.2337724
20
-2.9798587
11
199.3547895
21
2.718336
0
LINE
8
0
10
165.3391519
20
45.202879
11
181.0760193
21
-2.5206725
0
LINE
8
0
10
183.3834353
20
51.1529914
11
165.3391519
21
45.202879
0
LINE
8
0
10
166.7208692
20
-18.029219
11
184.4290187
21
-11.1428963
0
LINE
8
0
10
184.4290187
20
-11.1428963
11
183.5253861
21
-8.8192089
0
LINE
8
0
10
181.0760193
20
-2.5206725
11
177.542696
21
6.5652532
0
LINE
8
0
10
159.8345465
20
-0.3210695
11
166.7208692
21
-18.029219
0
LINE
8
0
10
163.7700505
20
41.9815522
11
177.5426959
21
6.5652532
0
LINE
8
0
10
146.061901
20
35.0952295
11
159.8345464
21
-0.3210695
0
LINE
8
0
10
163.7700505
20
41.9815522
11
146.061901
21
35.0952295
0
LINE
8
0
10
174.332068
20
-37.6013843
11
192.0402175
21
-30.7150616
0
LINE
8
0
10
192.0402175
20
-30.7150616
11
185.1538948
21
-13.0069121
0
LINE
8
0
10
185.1538948
20
-13.0069121
11
167.4457453
21
-19.8932348
0
LINE
8
0
10
167.4457453
20
-19.8932348
11
174.332068
21
-37.6013843
0
LINE
8
0
10
158.7369279
20
-51.4317893
11
173.0218842
21
-38.9042188
0
LINE
8
0
10
173.0218842
20
-38.9042188
11
160.4943137
21
-24.6192625
0
LINE
8
0
10
160.4943137
20
-24.6192625
11
146.2093574
21
-37.146833
0
LINE
8
0
10
146.2093574
20
-37.146833
11
158.7369279
21
-51.4317893
0
ENDSEC
0
EOF